
  <svg
    version="1.1"
    class="text"
    xmlns="http://www.w3.org/2000/svg"
    x="0px"
    y="0px"
    viewBox="0 0 316.2 521.2"
  >
    <defs>
      <style>
        .st0 {
          fill: none;
        }
        .st1 {
          fill: #ffffff;
        }
      </style>
    </defs>
    <g>
      <path
        class="st0"
        d="M167.1,0.1c48.5,0,97,0,145.5-0.1c2.8,0,3.6,0.4,3.6,3.5c-0.1,171.3-0.1,342.6,0,513.8c0,3.2-0.8,3.8-3.9,3.8
		c-102.8-0.1-205.6-0.1-308.4,0c-3.8,0-3.9-1.2-3.9-4.3C0.1,356.3,0.1,195.7,0.1,35.1c1.3-0.7,2.1,0.1,2.9,1
		c6.9,7.3,15.6,11.5,25.4,13.4c2.8,0.6,3.7,2.1,4.4,4.6c2.2,7.8,4.7,15.6,9.4,22.3c1.1,1.5,1.9,4.1,4.4,3.1c2.3-1,1.9-3.2,1.7-5.5
		C48,68.7,46.8,63.4,47,58c0.2-3.6,1.6-5.6,5.8-5.6c10.2,0,20.2,2,30.4,1.1c12.3-1.2,24.8-1,37-4.1c8.5-2.2,15.1-7.8,22.1-12.5
		C154,29,162.1,18,164.9,3.7C165.2,2.1,166.2,1.2,167.1,0.1z"
      />
      <path d="M167.1,0.1c-1.1,12.3-6.4,22.6-15.3,31.1c-14,13.3-30.1,22.4-50.1,22.6c-16,0.2-31.9,0.4-47.9,0.2c-4.1,0-5.2,1.2-4.7,5
		c0.9,7.6,1.5,15.2,2.5,22.8c0.5,3.6-1.3,4.1-3.4,2.5c-3-2.2-6.4-4.7-8-7.9c-3.5-6.9-6.2-14.3-8.8-21.6c-0.9-2.5-2.1-3.1-4.5-4.1
		c-8.1-3.3-15.9-7.3-23.7-11.3c-1.4-0.7-2-2.9-3-4.4c0-10.5,0.1-21-0.1-31.5C-0.1,0.6,0.6,0,3.6,0C58.1,0.1,112.6,0.1,167.1,0.1z" />
      <path
        class="st1"
        d="M82.9,2.1c25,0,50,0.1,75-0.1c4.8,0,6,1.9,5.2,5.9c-1.4,8-5.6,14.5-11.1,20.2c-13.3,13.6-29.7,21.6-48.6,22.8
		c-16.9,1.1-33.9,0.4-50.8,0.3c-5.9,0-7.2,0.6-7.2,6.6c0,4.8,0.6,9.6,0.9,14.4c0.1,1.4-0.2,2.9-0.3,4.3c-1.2-1-2.8-1.8-3.4-3.1
		c-3.1-6.4-6.3-12.8-8.8-19.4c-1.3-3.5-2.6-5.4-6.5-6.2c-8.8-1.6-16.9-5.1-22.6-12.5c-1.2-1.6-2.1-3.8-2.2-5.7
		c-0.2-7.5,0.2-15-0.1-22.5C2.3,3.2,3.5,2,7.5,2C32.6,2.1,57.8,2.1,82.9,2.1z"
      />
      <path d="M133.2,17c-6.8,7.1-11.3,7.5-18.7,2.1c-0.8-0.6-3-0.6-3.2-0.2c-2.3,4.8-5.9,1.2-8.8,1.3c-1.1,0.1-2.7-1.2-3.2-0.8
		c-3.9,3.3-8.7,1-12.9,2.5c-3.4,1.2-6-1-8.9-2.7c-1.6-0.9-5.4,3.3-8.3,3.4c-4.4,0.2-6.9-5.7-4.3-9.9c1.4-2.3,3.7-4.1,6-5.6
		c0.8-0.5,2.7,0.9,4.1,1.4c-0.9,0.8-1.7,1.6-2.6,2.3c-0.8,0.7-1.8,1.3-2.7,1.9c1.1,0.2,2.4,0.8,3.4,0.6c3-0.6,7.3,1,7.9-4.2
		c0.1-0.5,1.5-0.8,2.3-1.3c0.4,0.8,1.1,1.7,1.1,2.4c-0.1,1.5-1,2.9-1.1,4.3c0,1.2,0.7,2.5,1.1,3.7c1.1-0.8,2.5-1.4,3.2-2.5
		c0.8-1.4,0.8-3.2,1.5-4.7c0.5-1.2,1.6-2.1,2.4-3.1C92,9,92.9,10.2,93,11.5c0.2,1.2-0.3,2.6-0.8,5.1c2.1-3.1,3.6-5.2,5-7.4
		c2.1-3.1,3.8-2.7,5.4,0.4c1.2,2.2,2.6,4.3,3.9,6.5c0.6-2.3,0.9-4.7,1.8-6.9c0.5-1.1,2.2-2.6,3.1-2.5c3,0.5,5.9,1.5,8.6,2.8
		c0.5,0.2,0.1,2.6-0.1,3.9c-0.1,0.7-1.3,1.5-1.2,2.1c0.2,1,1,1.9,1.5,2.8c0.7-0.6,1.6-1,1.9-1.8c0.4-1.1-0.1-2.4,0.4-3.4
		c0.9-2,1.8-4.9,3.4-5.6c3-1.3,5.8,0.2,7.2,3.5c0.3,0.8,0.6,1.5,1,2.3c0.1,0.2,0.3,0.4,0.4,0.5c0.3,1.2,0.1,2.2-0.8,3
		C133.6,16.8,133.4,16.9,133.2,17z" />
      <path d="M64.1,36c2.6-3.4,5.3-6.7,7.9-10.1c2.2-2.9,3.8-2.9,5.2,0.6c1,2.7,2.2,5.5,3.3,8.2c1-2.7,1.9-5.5,3-8.2
		c0.9-2.4,6.6-3.7,9.7-2c2.9,1.6,4.4,3.6,1.3,6.6c-0.5,0.5-0.5,2-0.2,2.9c0.2,0.5,1.7,1.2,1.9,1c0.7-0.5,1.2-1.5,1.5-2.3
		c0.3-0.9,0.1-2,0.5-2.9c0.7-1.9,1.4-5,2.5-5.2c2.7-0.5,6.2-0.5,8.3,0.9c2.4,1.6,3.4,1.9,5.6,0c1.1-1,3.4-0.8,5.1-1.1
		c-0.3,1.2-0.8,2.4-0.7,3.6c0.2,1.1,1,2.1,1.7,3.1c1.7,2.8,1.1,5.7-1.7,6.7c-2.8,1-6.2,0.4-9.3,0.3c-0.1,0-0.5-1.6-0.3-1.7
		c0.9-0.5,2-0.8,3-1.2c1.3-0.4,2.6-0.8,3.9-1.1c-1.2-1.1-2.2-2.5-3.6-3c-0.7-0.3-2.4,0.8-3,1.7c-4.5,7-13.9,8.6-19.9,3.1
		c-2.1-1.9-3.6-3-4.8,0.7c-1.7,5.1-6,1.7-7.8,1.1c-3.7-1.2-6.4-1.3-9.6,0.9c-3.5,2.4-3.2-0.8-3.4-2.9L64.1,36z" />
      <path d="M64.3,35.9c-3.4,1.2-8.9,4.4-9.9,3.3c-4.3-4.6-6.6-1.8-10.3,0.4c-2.2,1.3-6.7,0.8-9-0.7c-3.2-2.1-2.5-6.3-0.2-8.9
		c2.3-2.5,5.7-3.9,8.7-5.6c0.3-0.2,1.5,1.3,2.4,2c-0.8,0.6-1.8,1-2.5,1.7c-2,1.9-3.9,3.8-5.6,6c-0.2,0.3,1,1.8,1.6,2.5
		c0.2,0.3,0.9,0.1,1.4,0.1c-0.3-0.7-1-1.4-0.9-2.1c0.1-0.9,0.5-2.2,1.2-2.5c1.1-0.6,2.6-0.7,3.9-0.7c4,0,8.1,0.4,8.1-5.5
		c0-0.5,1.4-1.5,1.8-1.3c0.8,0.3,1.8,1.3,1.7,2c-0.1,1.8-0.8,3.6-0.9,5.4c0,1.2,0.7,2.5,1.1,3.8c1.1-0.8,2.8-1.4,3.3-2.5
		c1-1.9,1.2-4.1,2-6.1c0.4-0.8,1.5-1.3,2.3-2C65,26,66,27,65.9,27.8c-0.4,2.8-1.2,5.5-1.8,8.2C64.1,36,64.3,35.9,64.3,35.9z" />
      <path d="M49.8,12.8c-0.5,2.4-0.8,4.9-1.5,7.2c-0.2,0.8-1.3,1.6-2.1,1.8c-0.6,0.1-1.6-0.9-1.9-1.6c-1.7-4.2-5-3-6.2-0.8
		c-2.5,4.4-7.9,2.5-8.6,1.8c-3.1-3-5.3-1.3-8-0.1c-1.1,0.5-2.4,0.4-3.6,0.6c0.1-1.2-0.1-2.6,0.5-3.6c1.9-3.5,4.1-6.8,6.3-10.2
		c1.9-3,3.6-1.9,4.7,0.4c1,2.2,1.5,4.7,2.3,7.1c0.2,0.7,0.7,1.4,1.1,2c0.5-0.6,1.1-1.2,1.3-1.8c0.5-1.9,0.6-4,1.3-5.8
		c0.4-1.2,1.6-2.2,2.4-3.3c0.6,1.2,1.1,2.4,1.7,3.6c0.6,1.3,1.1,2.6,1.6,3.9c1.6-1.1,3.4-1.9,4.8-3.2c1-1,1.5-2.5,2.2-3.7
		c0.5,1.6,0.9,3.1,1.4,4.7c0.1,0.3-0.1,0.7-0.1,1C49.6,12.7,49.7,12.8,49.8,12.8z" />
      <path d="M134.2,13.1c2-2.1,3.6-4.8,6-6.1c2.1-1.2,4.3-0.4,3,3.1c-0.4,1,0.8,2.5,0.7,3.8c-0.1,2,0,4.8-1.2,5.7
		c-1.8,1.4-4.7,1.9-7.1,1.8c-0.9,0-1.7-2.9-2.5-4.5c0,0-0.2,0.2-0.2,0.2c1.3-1.1,2-2.4,1-4.2C134.1,13,134.2,13.1,134.2,13.1z" />
      <path d="M12.3,19.4c-0.9-2.8-1.9-5.6-2.6-8.4c-0.2-1,0.5-2.2,0.7-3.4c1,0.4,2.4,0.6,2.8,1.3c1.8,3.6,2.6,1.4,3.9-0.3
		c0.5-0.7,1.8-0.8,2.8-1.2c0.3,0.7,1,1.6,0.8,2.1c-1.9,4-4,8-6.2,11.8c-0.4,0.6-1.7,0.7-2.6,1.1c-0.3-0.8-0.7-1.7-1-2.5
		C11.4,19.7,11.8,19.5,12.3,19.4z" />
      <path d="M149.4,22.4c-1.1-2.1-2-3-1.8-3.7c1-4.1,2.1-8.2,3.4-12.2c0.3-0.9,1.7-1.5,2.6-2.2c0.2,1,0.6,2,0.5,3
		c-0.3,2.9-0.4,5.9-1.2,8.7C152.5,17.9,151.1,19.6,149.4,22.4z" />
      <path d="M128,35c0.1-3.5,0.2-7,0.4-10.5c0-0.5,1.3-1.2,1.9-1.1c0.5,0,1.5,1.1,1.4,1.5c-0.7,3.5,0.6,7.9-3.9,9.9L128,35z" />
      <path d="M58.7,7.5c-1,2.5-1.5,5-2.9,6.9c-1.1,1.4-2.5-0.7-1.7-3.7c0.3-1,0.4-2,0.8-2.9c0.6-1.1,1.4-2.1,2.1-3.2
		C57.6,5.5,58.1,6.4,58.7,7.5z" />
      <path d="M127.8,34.9c-0.2,1.3-0.5,2.7-0.7,4c-0.8-0.4-1.6-0.7-2.4-1.1c1.1-0.9,2.2-1.8,3.3-2.8C128,35,127.8,34.9,127.8,34.9z" />
      <path d="M54.1,16.1c0.7,1,1.6,1.9,1.5,2.1c-0.5,0.7-1.3,1.3-2,1.7c-0.2,0.1-1.3-0.9-1.2-1.2C52.7,17.9,53.3,17.3,54.1,16.1z" />
      <path
        class="st1"
        d="M134.1,13c0.1,0.1,0.3,0.2,0.4,0.3c1.7,1.2,3.4,2.5,5.1,3.7c-2.2,0.1-4.4,0.1-6.6,0.2
		C133.4,15.8,133.7,14.4,134.1,13z"
      />
      <path
        class="st1"
        d="M129.4,13.3c-0.6,0.8-1,1.4-1.5,2c-0.3-0.4-0.9-0.9-0.8-1.3c0.1-0.7,0.6-1.3,0.9-2
		C128.4,12.3,128.8,12.7,129.4,13.3z"
      />
      <path
        class="st1"
        d="M107.9,31.3c-1.6,0.8-3.1,1.6-4.7,2.3c-0.1,0-1.3-1.5-1.1-2c0.4-1.3,1.3-2.6,2.2-3.7c0.1-0.1,1.6,0.8,2.4,1.3
		C107,29.9,107.4,30.6,107.9,31.3z"
      />
    </g>
  </svg>
