  <svg
    version="1.1"  
    xmlns="http://www.w3.org/2000/svg"
    x="0px"
    y="0px"
    viewBox="0 0 148.7 88.3"
  >
    <defs>
      <style>
        .st0 {
          fill: #2a322c;
        }
        .st1 {
          fill: #444f45;
        }
        .st2 {
          fill: #384236;
        }
        .st3 {
          fill: #a4a95a;
        }
        .st4 {
          fill: #8a9261;
        }
        .st5 {
          fill: #617082;
        }
        .st6 {
          fill: #555863;
        }
        .st7 {
          fill: #69765a;
        }
        .st8 {
          fill: #b4b098;
        }
        .st9 {
          fill: #8f926c;
        }
      </style>
    </defs>
    <g>
      <path
        class="st0"
        d="M85.3,52c0.9-1,1.8-2,2.7-3c0.9-0.6,1.7-1.2,2.6-1.8c-1.5-0.3-3-0.5-4.6-0.8l0.2-0.3c0,0-0.2,0.3-0.2,0.3
		c0.2-0.8,0.3-1.6,0.5-2.4c2.5,0.4,4.6,0,5.3-2.9c0.1-0.3,0.1-0.6,0.2-0.9c-0.2-0.7-0.4-1.5-0.6-2.2c-0.3-0.6-0.6-1.2-1-1.8
		c-0.6-3.1-1.6-6.6-5.1-6.4C79,30.1,76.5,36.5,72.2,40c-0.6-0.4-1.2-0.7-1.9-1.1c3.8-4.6-6.9-8.1-0.9-12.9c4.3-5.8-1.6-4.6-3.9-5.8
		c6-2.1,11.9-4.1,17.9-6.2c0.6-0.2,1.3-0.4,1.9-0.6c0.7-0.1,1.4-0.2,2.1-0.3c-0.8,1.3-1.5,2.7-2.3,4c1.8,4.4,4.4,6.1,9.7,6.3
		c5.7,0.2,12.8-0.5,16.2,6.4c-0.6,0.1-1.3,0.1-1.9,0.2c-3.5-1.3-7-2.6-10.5-4c-1.4-0.4-2.8-0.7-4.3-1.1c-0.1,0.4-0.3,0.8-0.4,1.2
		c1.5,0.6,2.9,1.2,4.4,1.7c3.1,2.1,5.1,6.2,9.9,4.8c0.4,0.3,0.7,0.5,1.1,0.8c-1.7,1.1-3.4,2.2-5.7,3.7c2.1,0.4,3.4,0.6,4.6,0.9
		c1.5,1.9,3.1,3.7,4.6,5.6c-1.1,0.4-2.2,0.8-3.3,1.1c-0.1,0.3-0.2,0.5-0.4,0.8c-0.9,1.7-1.8,3.4-2.8,5.2c-2.5,3.9-5.7,1.8-8.7,1
		c-3.6-4.1-6.4-1.2-9.2,1C87.3,52.7,86.3,52.4,85.3,52z M92.4,32c-0.1-0.1-0.3-0.1-0.4-0.2C92.1,31.9,92.2,32,92.4,32
		c0.3,2.4,0.7,4.7,1,7c0.9,0.4,1.8,0.8,2.7,1.2c-0.3,0.6-0.6,1.1-0.9,1.7c0.3,4.5,3.6,1.3,5.4,2.1c3.6-2,1.2-4.5,0.7-6.9
		c-1.3-0.7-2.6-1.3-3.9-2c0.6-1.2,1.2-2.4,1.8-3.6c-1.3,0.2-2.5,0.4-3.8,0.6C94.4,32,93.4,32,92.4,32z M84.7,22.7
		c0.1-0.6,0.3-1.2,0.4-1.7c-2.3-0.5-4.6-1.1-6.9-1.6c-0.2,0-0.6,0.9-1,1.3C79.7,21.4,82.2,22.1,84.7,22.7z M75,33.5
		c0.4-0.4,0.8-0.7,1.3-1.1c-1.4-1.7-2.8-3.3-4.2-5c-0.4,0.5-1.2,1.3-1.2,1.4C72.2,30.4,73.6,31.9,75,33.5z"
      />
      <path
        class="st0"
        d="M142.7,82c-1.3,6.5-8,7.1-11.1,5.6c-16-7.6-32.1,0.7-47.9-1.6c-5.5-0.8-11.1-1.3-16.6-4.4
		c7.3-0.9,14.5-1.7,25.6-3c-6-0.4-8.1-0.6-10.3-0.7c11.8-3.9,23.6-1.7,35.4-0.3c5.6,0.6,11.1,1.6,16.6,2.4c1.9-2.7,3.8-5.4,1.8-8.9
		c0.1-0.5,0.1-1,0.2-1.4c0.7,1.5,1.3,3.1,2.2,4.6C140,76.8,132.3,84.2,142.7,82z"
      />
      <path
        class="st1"
        d="M10.4,60c-4,0.5-10.6,0.4-10.4-2.9c0.4-6.7,6.2-11.6,11.8-15.3C35.9,25.7,61.7,13,89.6,5
		c1.7,0.9,4.5-1.8,5.3,1.8c-12.7,4-25.8,6.9-37.3,14.1c-17.3,6.7-34.3,13.9-47.3,27.8c-1.1,1.4-2.1,2.7-3.2,4.1c-1.1,1-2.1,2-3.2,3
		c1.5,0.5,3,0.9,4.5,1.4c0.7,0.2,1.3,0.4,2,0.7c1.7,0.2,3.3,0.4,5,0.6C13.7,59,12.1,59.5,10.4,60z"
      />
      <path
        class="st2"
        d="M134.4,80c-5.5-0.8-11.1-1.8-16.6-2.4C106,76.3,94.2,74,82.4,77.9c-2.1-0.2-4.1-0.5-6.2-0.7
		c0-0.6,0-1.3,0.1-1.9c13.3,0,26.7-0.2,40,0.1c4.7,0.1,9.3,3.8,14.2,0.5c-4.6-3-9.1-6.3-13.9-8.9c-4-2.2-8.6-3.4-9.3-8.9
		c0.7,0,1.3,0,2,0c1.1,0.6,2.2,1.2,3.4,1.8c0.6-0.3,1.3-0.6,1.9-1c1.8,3.9,3.8,7.5,9.2,6.1c0.9-1.3,1.8-2.7,2.7-4
		c-1.6-0.6-3.2-1.3-4.8-1.9c0-0.3-0.1-0.7-0.1-1l0,0c5.9-3.1,9.7,1.8,14.3,3.7c0,0,0,0,0,0c-3.1,2.9-0.3,5.3,0.7,7.9
		c-0.1,0.5-0.1,1-0.2,1.4c-1.4-0.8-2.8-1.7-4.2-2.5C132.8,72.6,133.6,76.3,134.4,80z"
      />
      <path
        class="st3"
        d="M57.6,20.8c11.5-7.1,24.6-10,37.3-14.1c3,0.6,4.8,0.1,3.6-3.6c6.3-1.4,12.4-5.6,19.1-1.4c0,0,0,0,0,0
		c0.1,0.6,0.3,1.3,0.4,1.9c-0.1,0.2-0.1,0.3-0.1,0.5c-0.3,0.3-0.5,0.6-0.8,0.8c-1.2,1.3-2.5,2.6-3.7,4c-0.7,0.3-1.4,0.6-2.1,0.9
		c-0.4-0.1-0.8-0.3-1.3-0.4c0,0-0.1,0-0.1,0l-0.4,0.2c-3.4,0.5-6.7,1-10.1,1.5c-0.7,0-1.3,0-2,0c-2.2-1.4-4.4-2.3-6.1,0.8
		c-1.3,0.4-2.6,0.9-4,1.3c-0.7,0.1-1.4,0.2-2.1,0.3c-0.6,0.2-1.3,0.4-1.9,0.6c-6,2.1-11.9,4.1-17.9,6.2c-1.6,0.3-3.2,0.7-4.8,1
		C59.6,21.1,58.6,21,57.6,20.8z"
      />
      <path
        class="st2"
        d="M97.5,52c3,0.8,6.2,2.9,8.7-1c0,0.7,0,1.4-0.1,2c-0.1,0.1-0.3,0.2-0.3,0.3c0.1,0.2,0.2,0.5,0.3,0.7
		c0,0.3,0,0.7,0,1c-0.4,0.1-0.9,0.1-1.3,0.2c-8.4-0.2-3.4,8.5-7.7,11.6c-6.8,4.9-13,6.8-19.9,0.8c0-0.5-0.1-1.1-0.1-1.6c0,0,0,0,0,0
		c2.7-6.8,3.5,6.5,6.1,0.6C89.3,62.9,94.2,58.2,97.5,52z"
      />
      <path
        class="st2"
        d="M70.3,38.9c0.6,0.4,1.2,0.7,1.9,1.1c0.1,0.3,0.1,0.7,0.2,1c-1.3,1-2.5,2.1-3.8,3.1c-0.7,0.7-1.3,1.4-2,2l0,0
		c-0.4,1.2-0.9,2.3-1.3,3.5c1.3-0.1,2.7-0.2,4-0.3c3.8-2.8,7.7-5.6,11.5-8.5c-0.1-0.5-0.2-1.1-0.4-1.6c2.6-0.8,5.2-1.6,7.8-2.3
		c0.4,0.4,0.8,0.8,1.3,1.3c-1,1.9-2,3.8-2.9,5.7c-0.2,0.8-0.3,1.6-0.5,2.4c-8.4-3.6-11,5.8-16.9,7.7c-3.3,1.1-6.2,6.2-9.5,3.5
		c-3.2-2.6,1.1-6,2.6-8.6C64.3,45.2,67.6,42.2,70.3,38.9z"
      />
      <path
        class="st4"
        d="M57.6,20.8c1,0.1,2,0.3,3,0.4c-4.4,2.5-8.7,5.1-13.1,7.6c-1.3,0.4-2.6,0.8-3.9,1.2c-7,3.1-14,6.2-19.2,12.1
		c0,0,0-0.1,0-0.1c-0.7,0.3-1.4,0.7-2.1,1c0,0,0.1,0,0.1,0c-2.4,1.6-4.8,3.3-7.1,4.9c0,0.3,0,0.7,0,1l0,0c-0.3,0.3-0.7,0.7-1,1
		l-0.1-0.1c-0.9,0.4-1.8,0.8-2.7,1.2c-0.4-0.8-0.8-1.6-1.2-2.4C23.4,34.8,40.3,27.5,57.6,20.8z"
      />
      <path
        class="st5"
        d="M111,30c-3.5-6.9-10.5-6.2-16.3-6.4c-5.2-0.2-7.9-2-9.7-6.3c0.7-0.5,1.4-0.9,2-1.4c4.9,9.2,15.2,4.3,22.2,8.5
		c3.8,2.3,7.4,3.8,3,8.5C111.9,31.9,111.4,31,111,30z"
      />
      <path
        class="st2"
        d="M111.3,9.8c0.7-0.3,1.4-0.6,2.1-0.9c2.8,0,5.8,0.4,8.4-0.3c2.2-0.6,6.4,3.1,6.5-2.6c4.4,0.2,9.2-1.5,13,2.1
		c-1.4-0.1-2.9-0.5-4.3-0.3c-4.5,0.5-2.3,0.9,0.1,1.2c1.6,5.3-4.3,4.2-5.8,6.9l0-0.1c-1.9,0.4-3.8,0.7-5.7,1.1
		c-0.4-0.1-0.8-0.2-1.2-0.4c2.4-1.6,4.8-3.2,7.5-5C124.5,11,117.9,10.4,111.3,9.8z"
      />
      <path
        class="st6"
        d="M141.3,8.2c-3.8-3.7-8.6-1.9-13-2.1l0,0c-3.5-0.6-7-1.3-10.5-1.9c0-0.2,0.1-0.3,0.1-0.5
		c9.2,0.6,18.4,0.8,27.6,2c5.6,0.7,2.3,4,0.9,6.4c-0.8-0.1-1.5-0.1-2.2-0.2C143.3,10.7,142.3,9.5,141.3,8.2z"
      />
      <path
        class="st6"
        d="M136.4,69.7c-1.1-2.5-3.8-4.9-0.7-7.9c4.5,6,7.8,12.4,7,20.2c-10.3,2.2-2.6-5.2-4.1-7.7
		C137.8,72.8,137.2,71.2,136.4,69.7z"
      />
      <path
        class="st6"
        d="M135.7,61.8c-4.6-1.9-8.4-6.8-14.3-3.7c-2.9-4.7-2.5-11.4-8.6-14.1c-1.5-1.9-3.1-3.7-4.6-5.6
		c1,0.3,2,0.5,3,0.8c0.4,0.5,0.8,0.9,1.1,1.4c0.3,0.2,0.5,0.4,0.8,0.6C118.5,50.4,127.4,55.7,135.7,61.8z"
      />
      <path
        class="st5"
        d="M111.3,9.8c6.6,0.6,13.3,1.2,20.7,1.9c-2.7,1.8-5.1,3.4-7.5,5c-6.1-11-15.3-2.2-22.9-3.4
		c-1.7-0.3-3.5-0.2-5.2-0.3c0.4-0.6,0.7-1.2,1.1-1.9c0.7,0,1.3,0,2,0c3.4-0.2,7.1,1.6,10.1-1.5c0,0,0.4-0.2,0.4-0.2s0.1,0,0.1,0
		C110.4,9.6,110.9,9.7,111.3,9.8z"
      />
      <path
        class="st2"
        d="M11.5,51.1c0.9-0.4,1.8-0.8,2.7-1.2c-0.9,3,0.2,4.3,3.3,4.1c4.3-0.3,8.6-0.5,13-0.8c0.6,0,1.3-0.1,1.9-0.1
		c2.4,0,4.7,0,7.1,0.1c0.4,1,0.7,2,1.1,3c0,0.3,0,0.6,0,0.8c-0.3,0.2-0.6,0.2-0.9,0.2c-0.8-0.2-1.6-0.6-2.3-0.6
		c-0.8,0-3.2-2.2-2.1,1.2c-3.6-0.5-7.3-1-10.9-1.4c-2.7,0-5.3,0-8-0.1C14.3,54.9,9.7,55.9,11.5,51.1z"
      />
      <path
        class="st1"
        d="M47.5,28.9c4.4-2.5,8.7-5.1,13.1-7.6c1.6-0.3,3.2-0.7,4.8-1c2.4,1.2,8.3,0.1,3.9,5.8c-1.6-9-6.5-2-9.4-1.6
		C55.7,25.2,51.7,27.4,47.5,28.9z"
      />
      <path
        class="st5"
        d="M40.5,56.9c0-0.3,0-0.6,0-0.8c0.5-0.7,1.1-1.4,1.6-2c-0.9-0.3-1.8-0.6-2.7-0.9c-2.4,0-4.7,0-7.1-0.1
		c4.7-1,9.3-2.1,14-2.9c0.7-0.1,2.4,1.2,2.3,1.2C47.1,54.8,44.9,57.6,40.5,56.9z"
      />
      <path
        class="st1"
        d="M24.4,42.1c5.2-5.9,12.2-9,19.2-12.1C38.7,36.4,31.6,39.3,24.4,42.1z"
      />
      <path
        class="st7"
        d="M144.5,13.2c-5.5-0.4-7,8.9-13.7,5.8c0.2-1,0.4-2,0.5-3c0,0,0,0.1,0,0.1c2.7-1,5.4-2,8.1-3
		c1-0.4,2-0.7,2.9-1.1c0.6,0.3,1.2,0.6,1.9,1L144.5,13.2z"
      />
      <path
        class="st2"
        d="M10.4,60c1.7-0.5,3.3-1,5-1.5c0.7,0,1.4-0.1,2.1-0.1c0.3,0,0.6,0,0.9,0c1.4-0.1,2.7-0.3,4.1-0.4
		c1.3,0.3,2.6,0.6,3.9,0.9C21,59.2,15.7,59.6,10.4,60z"
      />
      <path
        class="st1"
        d="M17.5,54c-3.1,0.3-4.2-1.1-3.3-4.1c0,0,0.1,0.1,0.1,0.1c0.3-0.3,0.7-0.7,1-1c0,0,0,0,0,0c0-0.3,0-0.7,0-1
		c2.4-1.6,4.8-3.3,7.1-4.9c1.5,5-8.7,3.9-5.2,10C17.3,53.4,17.4,53.7,17.5,54z"
      />
      <path
        class="st6"
        d="M83.4,66.6c-2.6,5.9-3.4-7.4-6.1-0.6c0.9-2.4,1.9-4.9,2.8-7.3c0.8,0.6-1.4,3.7,1.8,2.1l0.3,0.2
		C82.7,62.9,83.1,64.7,83.4,66.6z"
      />
      <path
        class="st7"
        d="M26.3,58.8c-1.3-0.3-2.6-0.6-3.9-0.9c0.6-0.5,1.2-1.1,1.8-1.6c3.6,0.5,7.3,1,10.9,1.4c0.4,0.1,0.7,0.2,1.1,0.3
		C32.9,58.3,29.6,58.6,26.3,58.8z"
      />
      <path
        class="st6"
        d="M85.3,52c1,0.3,2,0.7,3,1c-2,2.7-4,5.3-5.9,8c0,0-0.3-0.2-0.3-0.2c-0.2-1.2-0.4-2.5-0.6-3.7
		C82.7,55.4,84,53.7,85.3,52z"
      />
      <path
        class="st8"
        d="M98.5,3.2c1.2,3.6-0.6,4.2-3.6,3.6c-0.8-3.5-3.6-0.9-5.3-1.8C92.6,4.4,95.5,3.8,98.5,3.2z"
      />
      <path
        class="st1"
        d="M87.1,15.9c-0.7,0.5-1.4,0.9-2,1.4c0.8-1.3,1.5-2.7,2.3-4c1.3-0.4,2.6-0.9,4-1.3c1.4,0.4,2.8,0.7,4.2,1.1
		C92.7,14,89.9,14.9,87.1,15.9z"
      />
      <path
        class="st5"
        d="M111.2,39.1c-1-0.3-2-0.5-3-0.8c-1.3-0.2-2.5-0.5-4.6-0.9c2.3-1.5,4-2.6,5.7-3.7c0.4,0.1,0.8,0.2,1.1,0.3
		C106.9,36.3,112,37.3,111.2,39.1z"
      />
      <path
        class="st5"
        d="M17.5,54c-0.1-0.3-0.2-0.6-0.2-0.9c4.4,0,8.8,0.1,13.1,0.1C26.1,53.4,21.8,53.7,17.5,54z"
      />
      <path
        class="st4"
        d="M95.5,13c-1.4-0.4-2.8-0.7-4.2-1.1c1.7-3,3.8-2.1,6.1-0.8c-0.4,0.6-0.7,1.2-1.1,1.9c0,0-0.4,0.1-0.4,0.1
		L95.5,13z"
      />
      <path
        class="st4"
        d="M131.4,16c-0.2,1-0.4,2-0.5,3c-1.7-0.6-3.5-1.3-5.2-1.9C127.5,16.7,129.4,16.3,131.4,16z"
      />
      <path
        class="st2"
        d="M86.1,46.4c1.5,0.3,3,0.5,4.6,0.8c-0.9,0.6-1.7,1.2-2.6,1.8C87.4,48.1,86.7,47.2,86.1,46.4z"
      />
      <path
        class="st2"
        d="M110.4,34c-0.4-0.1-0.8-0.2-1.1-0.3c-0.4-0.3-0.7-0.5-1.1-0.8c0.3-0.9,0.6-1.8,0.9-2.7
		c0.6-0.1,1.3-0.1,1.9-0.2c0.4,1,0.9,1.9,1.3,2.9C111.7,33.3,111,33.6,110.4,34z"
      />
      <path
        class="st1"
        d="M105,55.2c0.4-0.1,0.9-0.1,1.3-0.2c1,1,1.9,2,2.9,3c-0.7,0-1.3,0-2,0C106.5,57.1,105.7,56.2,105,55.2z"
      />
      <path
        class="st1"
        d="M36.2,58.1c-0.4-0.1-0.7-0.2-1.1-0.3c-1.1-3.4,1.3-1.2,2.1-1.2c0.8,0,1.6,0.4,2.3,0.6
		C38.5,57.5,37.3,57.8,36.2,58.1z"
      />
      <path
        class="st2"
        d="M81.4,57.1c0.2,1.2,0.4,2.5,0.6,3.7c-3.2,1.6-1.1-1.5-1.8-2.1C80.6,58.2,81,57.6,81.4,57.1z"
      />
      <path
        class="st7"
        d="M144.3,11.9c0.7,0.1,1.5,0.1,2.2,0.2c-0.7,0.4-1.3,0.8-2,1.1c0,0-0.2-0.3-0.2-0.3c0.1-0.3,0.1-0.6,0.1-0.9
		L144.3,11.9z"
      />
      <path
        class="st6"
        d="M77.3,66c0,0.5,0.1,1.1,0.1,1.6C77.4,67.1,77.4,66.6,77.3,66z"
      />
      <path
        class="st1"
        d="M22.4,43.1c0.7-0.3,1.4-0.7,2.1-1C23.8,42.4,23.1,42.8,22.4,43.1z"
      />
      <path
        class="st6"
        d="M117.6,1.8C117.6,1.8,117.6,1.8,117.6,1.8C117.6,1.8,117.6,1.8,117.6,1.8z"
      />
      <path
        class="st5"
        d="M113.1,41.2c-0.3-0.2-0.5-0.4-0.8-0.6C112.6,40.7,112.9,40.9,113.1,41.2z"
      />
      <path
        class="st8"
        d="M82.4,61c2-2.7,4-5.3,5.9-8c2.9-2.3,5.7-5.1,9.2-1c-3.3,6.2-8.2,10.9-14.1,14.6C83.1,64.7,82.7,62.9,82.4,61z"
      />
      <path
        class="st8"
        d="M88.2,37c-2.6,0.8-5.2,1.6-7.8,2.3c-2.7,0.6-5.4,1.1-8.1,1.7c0,0,0.1,0,0.1,0c-0.1-0.3-0.1-0.7-0.2-1
		c4.3-3.6,6.8-9.9,13.2-10.3c3.4-0.2,4.5,3.3,5.1,6.4C89.7,36.4,89,36.7,88.2,37z"
      />
      <path
        class="st8"
        d="M114.5,58.9c-0.6,0.3-1.3,0.6-1.9,1c-3-4.2-4.9-8.7-3.5-14c0.2-0.2,0.3-0.5,0.4-0.8c6.5,0.9,4.5,7.8,7.8,11
		C116.3,57,115.4,58,114.5,58.9z"
      />
      <path
        class="st2"
        d="M117.2,56.1c-3.3-3.2-1.2-10.1-7.8-11c1.1-0.4,2.2-0.8,3.3-1.1c6.1,2.7,5.7,9.4,8.6,14.1c0,0,0,0,0,0
		C120,57.4,118.6,56.8,117.2,56.1z"
      />
      <path
        class="st8"
        d="M109.1,30.2c-0.3,0.9-0.6,1.8-0.9,2.7c-4.7,1.3-6.8-2.8-9.9-4.8c0.1-0.6,0.2-1.2,0.3-1.9
		C102.1,27.5,105.6,28.9,109.1,30.2z"
      />
      <path
        class="st8"
        d="M101.3,37.1c0.5,2.4,2.9,5-0.7,6.9c-1.8-0.7-3.6-1.4-5.4-2.1c0.3-0.6,0.6-1.1,0.9-1.7
		C97.8,39.2,99.6,38.1,101.3,37.1z"
      />
      <path
        class="st5"
        d="M109,45.9c-1.4,5.3,0.5,9.8,3.5,14c-1.1-0.6-2.2-1.2-3.3-1.8c-1-1-1.9-2-2.9-3c0-0.3,0-0.7,0-1
		c0-0.3-0.1-0.7-0.1-1c0-0.7,0-1.4,0.1-2C107.2,49.3,108.1,47.6,109,45.9z"
      />
      <path
        class="st9"
        d="M86.6,43.9c1-1.9,2-3.8,2.9-5.7c0.7-0.1,1.3-0.2,2-0.3c0.2,0.7,0.4,1.5,0.6,2.2c-0.2,0.3-0.3,0.6-0.1,0.9
		C91.2,43.9,89,44.3,86.6,43.9z"
      />
      <path
        class="st1"
        d="M101.3,37.1c-1.7,1.1-3.5,2.1-5.2,3.2c-0.9-0.4-1.8-0.8-2.7-1.2c1-0.9,1.9-1.7,2.9-2.6
		c0.4-0.5,0.7-0.9,1.1-1.4l0,0C98.7,35.7,100,36.4,101.3,37.1z"
      />
      <path
        class="st7"
        d="M84.7,22.7c-2.5-0.7-5-1.3-7.5-2c0.3-0.5,0.7-1.4,1-1.3c2.3,0.4,4.6,1,6.9,1.6C85,21.6,84.8,22.1,84.7,22.7z"
      />
      <path
        class="st7"
        d="M96.3,36.5c-1,0.9-1.9,1.7-2.9,2.6c-0.4-2.3-0.7-4.7-1.1-7l0,0c1,0,2,0,3,0c0.2,1,0.4,2,0.5,3.1
		C96,35.6,96.2,36,96.3,36.5z"
      />
      <path
        class="st6"
        d="M75,33.5c-1.4-1.6-2.8-3.1-4.1-4.7c-0.1-0.1,0.8-0.9,1.2-1.4c1.4,1.7,2.8,3.3,4.2,5
		C75.8,32.7,75.4,33.1,75,33.5z"
      />
      <path
        class="st1"
        d="M95.9,35.1c-0.2-1-0.4-2-0.5-3.1c1.3-0.2,2.5-0.4,3.8-0.6c-0.6,1.2-1.2,2.4-1.8,3.6c0,0,0,0,0,0
		C96.9,35.1,96.4,35.1,95.9,35.1z"
      />
      <path
        class="st6"
        d="M95.2,41.9c1.8,0.7,3.6,1.4,5.4,2.1C98.8,43.3,95.5,46.5,95.2,41.9z"
      />
      <path
        class="st1"
        d="M98.6,26.2c-0.1,0.6-0.2,1.2-0.3,1.9c-1.5-0.6-2.9-1.2-4.4-1.7c0.1-0.4,0.3-0.8,0.4-1.2
		C95.8,25.5,97.2,25.9,98.6,26.2z"
      />
      <path
        class="st1"
        d="M91.5,37.9c-0.7,0.1-1.3,0.2-2,0.3c-0.4-0.4-0.8-0.8-1.3-1.3c0.8-0.3,1.5-0.6,2.3-0.9
		C90.8,36.7,91.1,37.3,91.5,37.9z"
      />
      <path
        class="st1"
        d="M83.4,14c0.6-0.2,1.3-0.4,1.9-0.6C84.7,13.6,84,13.8,83.4,14z"
      />
      <path
        class="st1"
        d="M92.3,32c-0.1-0.1-0.2-0.1-0.4-0.2C92.1,31.9,92.2,32,92.3,32C92.4,32,92.3,32,92.3,32z"
      />
      <path
        class="st1"
        d="M91.9,41.1c-0.1-0.3-0.1-0.7,0.1-0.9C92,40.4,92,40.8,91.9,41.1z"
      />
      <path
        class="st1"
        d="M134.4,80c-0.8-3.7-1.6-7.4-2.4-11.3c1.4,0.8,2.8,1.7,4.2,2.5C138.2,74.6,136.3,77.3,134.4,80z"
      />
      <path
        class="st3"
        d="M11.5,51.1c-1.8,4.8,2.8,3.8,4.8,5.2c-2,0.5-3.9,1-5.9,1.6c-0.7-0.2-1.3-0.4-2-0.7c-0.4-1.5-0.9-3-1.3-4.4
		c1.1-1.4,2.1-2.7,3.2-4.1C10.7,49.4,11.1,50.3,11.5,51.1z"
      />
      <path
        class="st4"
        d="M10.4,57.8c2-0.5,3.9-1,5.9-1.6c2.7,0,5.3,0,8,0.1c-0.6,0.5-1.2,1.1-1.8,1.6c-1.4,0.1-2.7,0.3-4.1,0.4
		c-0.3-0.1-0.6-0.1-0.9,0c-0.7,0-1.4,0.1-2.1,0.1C13.7,58.3,12.1,58,10.4,57.8z"
      />
      <path
        class="st9"
        d="M7.1,52.7c0.4,1.5,0.9,3,1.3,4.4c-1.5-0.5-3-0.9-4.5-1.4C5,54.8,6,53.7,7.1,52.7z"
      />
      <path
        class="st6"
        d="M117.2,56.1c1.4,0.7,2.8,1.3,4.2,2c0,0.3,0.1,0.7,0.1,1c-5,4.1,0.7,4.2,2.2,5.9c-5.4,1.4-7.4-2.2-9.2-6.1
		C115.4,58,116.3,57,117.2,56.1z"
      />
      <path
        class="st8"
        d="M123.6,65c-1.5-1.7-7.2-1.9-2.2-5.9c1.6,0.6,3.2,1.3,4.8,1.9C125.4,62.3,124.5,63.7,123.6,65z"
      />
      <path
        class="st4"
        d="M128.3,6.1c-0.1,5.7-4.3,2-6.5,2.6c-2.6,0.7-5.6,0.3-8.4,0.3c1.2-1.3,2.5-2.6,3.7-4
		C120.9,5.4,124.6,5.7,128.3,6.1C128.4,6.1,128.3,6.1,128.3,6.1z"
      />
      <path
        class="st4"
        d="M109.5,9.6c-3,3.1-6.7,1.3-10.1,1.5C102.8,10.6,106.2,10.1,109.5,9.6z"
      />
      <path
        class="st2"
        d="M128.4,6.1c-3.8-0.4-7.5-0.7-11.3-1.1c0.3-0.3,0.5-0.6,0.8-0.8C121.4,4.8,124.9,5.5,128.4,6.1z"
      />
      <path
        class="st4"
        d="M110,9.4C110,9.4,109.9,9.4,110,9.4C110,9.4,110,9.4,110,9.4z"
      />
      <path
        class="st1"
        d="M106.2,53.1c0,0.3,0.1,0.7,0.1,1c-0.1-0.2-0.3-0.4-0.3-0.7C105.9,53.3,106.1,53.2,106.2,53.1z"
      />
      <path
        class="st8"
        d="M80.8,40.9c-3.8,2.8-7.7,5.6-11.5,8.5c-0.9-1.1-1.8-2.1-2.7-3.2c0,0,0,0,0,0c0.7-0.7,1.3-1.4,2-2
		c1.3-1,2.5-2.1,3.8-3.1c0,0-0.1,0-0.1,0C75.3,47.8,77.9,37.9,80.8,40.9z"
      />
      <path
        class="st1"
        d="M80.8,40.9c-2.9-3-5.6,6.9-8.5,0.1c2.7-0.6,5.4-1.1,8.1-1.7C80.6,39.8,80.7,40.4,80.8,40.9z"
      />
      <path
        class="st6"
        d="M66.6,46.2c0.9,1.1,1.8,2.1,2.7,3.2c-1.3,0.1-2.7,0.2-4,0.3C65.7,48.5,66.1,47.3,66.6,46.2z"
      />
      <path
        class="st6"
        d="M68.6,44.1c-0.7,0.7-1.3,1.4-2,2C67.2,45.5,67.9,44.8,68.6,44.1z"
      />
      <path
        class="st2"
        d="M15.3,49c-0.3,0.3-0.7,0.7-1,1C14.7,49.7,15,49.3,15.3,49z"
      />
      <path
        class="st2"
        d="M15.3,48c0,0.3,0,0.7,0,1C15.3,48.7,15.3,48.3,15.3,48z"
      />
      <path
        class="st9"
        d="M142.4,12c-1,0.4-2,0.7-2.9,1.1c-0.8-1.3-1.6-2.6-2.4-3.9c-2.3-0.3-4.6-0.7-0.1-1.2c1.4-0.2,2.9,0.2,4.3,0.3
		c1,1.2,1.9,2.4,2.9,3.7c0,0,0.1,0.1,0.1,0.1C143.7,12,143,12,142.4,12z"
      />
      <path
        class="st4"
        d="M137.1,9.1c0.8,1.3,1.6,2.6,2.4,3.9c-2.7,1-5.4,2-8.1,3C132.8,13.4,138.7,14.4,137.1,9.1z"
      />
      <path
        class="st1"
        d="M39.4,53.1c0.9,0.3,1.8,0.6,2.7,0.9c-0.5,0.7-1.1,1.4-1.6,2C40.1,55.1,39.8,54.1,39.4,53.1z"
      />
      <path
        class="st6"
        d="M142.4,12c0.6,0,1.3,0,1.9,0.1c0,0.3,0,0.6-0.1,0.9C143.6,12.6,143,12.3,142.4,12z"
      />
      <path
        class="st1"
        d="M17.5,58.3c0.3-0.1,0.6-0.1,0.9,0C18,58.3,17.7,58.3,17.5,58.3z"
      />
      <path
        class="st0"
        d="M95.9,35.1c0.5,0,1,0,1.5-0.1c-0.4,0.5-0.7,0.9-1.1,1.4C96.2,36,96,35.6,95.9,35.1z"
      />
    </g>
  </svg>
