  <svg
    version="1.1"
    class="shadows"
    xmlns="http://www.w3.org/2000/svg"
    x="0px"
    y="0px"
    viewBox="0 0 734.3 224"
  >
  <defs>
    <style>
      .st0 {
        fill: none;
      }
    </style>
  </defs>
    <g>
      <path
        class="st0"
        d="M718.4,157.9c5.1-1.3,10.3-2,15.7-3c0.1,0.7,0.2,1.3,0.2,1.9V23.9H0V224h734.3v-66.2c-0.1,2.2-0.9,4.1-2.5,6.4
		c-2.9,4.1-2.1,9.8-0.5,15c2,6.6,2.6,13.1-1.9,19.4c-3.3,4.6-7.2,9.4-4.1,16.3c2,4.5-1.8,8.8-6.9,8.9c-6.5,0.1-13,0-18.6,0
		c-3.3-4.7-6.3-8.3-8.5-12.4c-1.4-2.6-1.6-5.9-2.2-8.7c-1,0.8-1,0.8-0.9,9.6c-3.4,0.2-6.8,0.3-11.7,0.5c3.4-7.4,6.4-14,10-21.7
		c-1.8,1.4-2.8,2-3.6,2.8c-1.2,1.2-2,3.4-3.2,3.7c-6.3,1.3-6.4,6.5-7.3,11c-0.7,3.6-0.5,7.4-0.5,11.1c0,3-1.2,4.1-4.2,4.1
		c-9.8-0.1-19.6,0-29.6,0c-0.6-2-0.9-4-1.8-5.7c-1.8-3.3-1.4-5.9,0.3-9.5c3.9-8.4,7.4-17.2,3.3-26.6c-8.9,2.1-9.6,1.8-17.2-9.1
		c1.4-1,2.8-1.9,4.1-3c1.9-1.4,4.3-2.4,5.4-4.3c5.2-9,12.6-13.2,23-11.6c0.5-1.9,0.8-3.4,1.2-4.9c-0.5,0.2-1,0.5-1.5,0.7
		c-1.4-2.1-3.3-4.1-4.1-6.5c-1.4-4.2,2-6.2,5.1-7c3.2-0.8,5.5-1.5,5.9-5.3c0.3-2.5,1.5-4.9,2.5-8c0.6-0.1,2.2-0.5,3.9-0.9
		c1.2,4.2-4.4,9.1,2.3,12.3c4.5,2.1,8.4,2.6,13.9-1.1c-1.7,9.4-5.7,16.6-9.2,24.7c3.5,1.4,6.7,3.4,10.1,3.7c6.3,0.6,9,3.8,10.3,11.1
		c0.5,2.5,0.1,5.2,0.1,9.7c4.7-3.1,8.4-5.7,12.2-8.1c2.1-1.3,4.2-2.6,6.6-3.5c3-1.1,3-2.6,1.4-4.8
		C713.2,162.5,714.2,158.9,718.4,157.9z M51.6,162.6c-3.2,3.8-6.7,7.8-10.2,11.9c-0.3,0.3-0.6,0.7-0.9,1c-0.5,0.5-1.1,1-1.7,1.1
		c-1.8,0.3-3.4,0.8-4.9,1.4c-0.7,0.3-1.4,0.6-2.1,1c-0.7,0.3-1.3,0.7-1.8,1.1c-0.9,0.6-1.7,1.3-2.4,2c-0.5,0.5-0.9,1-1.4,1.5
		c-0.2,0.3-0.4,0.5-0.6,0.8c-0.6,0.8-1.1,1.6-1.6,2.5c-0.2,0.3-0.3,0.6-0.5,0.9c-0.4,0.9-0.9,1.9-1.2,2.8v0c-0.2,0.7-0.5,1.3-0.7,2
		c-0.9,3-1.5,6.3-2,9.6c-0.6,4.2-0.6,8.5-0.4,13c0.1,2.8,0.2,5.7,0.2,8.6h0c-2.9,0-6.5,0-10.4,0c-1.9,0-3.9,0-5.9,0
		c-0.3,0-0.6,0-0.9-0.1c-0.1,0-0.2,0-0.3-0.1c-0.1,0-0.2,0-0.3-0.1c-0.1,0-0.2-0.1-0.3-0.1c-0.1-0.1-0.2-0.1-0.3-0.2
		c0,0-0.1,0-0.1-0.1c-0.1,0-0.1-0.1-0.2-0.2c-0.8-1-0.4-2.5-0.4-3.8c0-7.7,0-15.4,0-23.1c0-9.3,0-18.5,0-27.8c0-1.5,0-3,0-4.5
		c0-0.4,0-0.8,0-1.3c-0.1-3-0.1-5.8,5.2-4.9c1.1,0.2,2.6-0.6,3.9-1.7c0.2-0.2,0.5-0.4,0.7-0.7l0.4-0.3c0.4-0.5,0.8-1,1.1-1.5
		c0.2-0.3,0.2-0.6,0.2-1c0-0.2-0.1-0.3-0.1-0.5c-0.3-1.3-1.3-3-1.8-4.4c-0.1-0.2-0.1-0.3-0.2-0.5c-0.1-0.2-0.2-0.4-0.3-0.6
		c-0.2-0.3-0.3-0.6-0.5-0.9c-0.1-0.2-0.3-0.5-0.4-0.7c-0.5-0.9-1-1.8-1.3-2.8c-0.1-0.2-0.1-0.5-0.1-0.7c-0.3-2-0.5-4-0.8-6.1
		c-0.4-3.4-0.8-6.8-1.1-10.2c-0.2-2.1-0.4-4.2-0.6-6.3c0-0.2,0-0.4-0.1-0.7c-0.1-1-0.2-2-0.3-3c3.6,2.3,6,3.8,7.9,4.3
		c2.1,0.7,3.4,0.2,4.7-1.4c0,0,0,0,0,0c0.2-0.2,0.4-0.5,0.6-0.8c0.5-0.8,1-1.7,1.6-2.9c0.5,0.9,0.9,1.6,1.3,2c0,0.1,0.1,0.1,0.2,0.1
		c0.1,0.1,0.2,0.2,0.3,0.2s0.2,0.1,0.3,0.1c1.4,0.5,2.6-1.5,3.9-3.7c0.4,0.9,0.7,1.7,1,2.4c0.1,0.3,0.3,0.7,0.4,1
		c0.1,0.3,0.3,0.6,0.4,1c1.6,0.1,2.6,0.2,3.6,0c0.2,0,0.3-0.1,0.4-0.1c0.4-0.1,0.8-0.3,1.1-0.5c0,0,0,0,0,0c0.2-0.1,0.3-0.2,0.4-0.3
		c0,0,0,0,0,0c0.2-0.1,0.3-0.2,0.5-0.4c0.2-0.1,0.3-0.3,0.5-0.5c1.2-1.2,2.8-3.1,5.2-6.1l0,0c-0.2,6.1-0.3,12.4-0.5,18.7
		c-0.2,6.3-0.3,12.7-0.5,19c0,1.6,0.2,3.1,0.7,4.3c0.2,0.5,0.4,0.9,0.7,1.3c1.2,1.8,3.2,3.1,5.8,3.5c1.6,0.3,3.2,0.5,4.7,0.6
		c2.4,0.3,4.6,0.4,6.2,0.6c0,0,0,0,0,0C54.4,159.2,53,160.9,51.6,162.6z M382.1,173.5c-0.4,0.4-0.8,0.8-1.4,1.2
		c-0.5,0.4-1.1,0.7-1.6,1.1c-1.6,1-3.2,2-4.8,3.1c-2.1,1.4-4.2,2.8-6.2,4.5c-1.6,1.3-3.1,2.7-4.6,4.1c-0.8,0.7-1.5,1.4-2.3,2.1
		c-3.7,3.5-7.4,7.2-11.2,10.7c-0.2,0.2-0.4,0.4-0.7,0.6c-0.6,0.5-1.2,0.9-1.9,1.2c-0.2,0.1-0.4,0.2-0.5,0.2
		c-0.5,0.2-0.9,0.2-1.4,0.2c-0.4-0.1-0.8-0.2-1.3-0.4c-0.7-0.3-1.3-0.7-1.9-1.2c-0.2-0.2-0.4-0.3-0.5-0.5c-0.3-0.3-0.6-0.7-0.8-1.1
		c-0.8-1.6-1.5-3.1-2.2-4.8c-0.7-1.6-1.3-3.2-1.9-4.8c-1.2-3.3-2.4-6.5-3.7-9.8c-1.3-3.5-3.4-6.6-5.7-9.8c-0.5-0.7-1-1.4-1.5-2.1
		c-0.4-0.5-0.7-1-1.1-1.5c-0.9-1.2-1.8-2.5-2.6-3.7c-0.1-0.2-0.2-0.3-0.3-0.5c0-0.1-0.1-0.2-0.1-0.3c0-0.1-0.1-0.2-0.1-0.3
		c-0.1-0.2-0.1-0.4-0.2-0.6c0-0.1-0.1-0.3-0.1-0.5c-0.1-0.2-0.1-0.4-0.2-0.6c0-0.1-0.1-0.3-0.1-0.4c0-0.1,0-0.2-0.1-0.2
		c1.1,0.9,2.2,1.5,3.2,2c3.3,1.3,6.5,0.6,9.6-0.1h0c0.5-0.1,0.9-0.2,1.4-0.3c0.2-0.1,0.4-0.1,0.7-0.2c0.5-0.1,0.9-0.2,1.4-0.3
		c0.7-0.1,1.4-0.2,2-0.2c0.5,0,1-0.9,1.4-2c0.3-0.7,0.5-1.5,0.7-2.2c0,0,0,0,0,0c0-0.1,0.1-0.2,0.1-0.3c0.5-3.3,0.6-6.7,0.7-10
		c0.1-3.7,0.1-7.3,0-10.5c0-1,0-1.9,0-2.7c0.2,0,0.5-0.1,0.7-0.1c3.5-0.5,6-0.9,8.5-1c0.3,0,0.5,0,0.8,0c0.3,0,0.5,0,0.8,0
		c2.4,0,4.9,0.1,7.4-0.1c1.3-0.1,2.7-0.3,4-0.4c1.3-0.2,2.6-0.3,3.8-0.5c0.8-0.1,1.6-0.2,2.3-0.3h0c0.1,0.6,0.3,1.2,0.5,1.9
		c0.2,0.9,0.5,1.8,0.7,2.7c0.2,0.7,0.4,1.4,0.5,2.1c0,0.1,0.1,0.3,0.1,0.4c0.1,0.5,0.2,0.9,0.3,1.4c0.3,1.5,0.6,3.1,0.7,4.7
		c0.2,3.2-1.5,6.5-2.5,9.7c-0.1,0.3-0.3,0.6-0.6,0.9c-0.2,0.3-0.6,0.5-0.8,0.8c-0.1,0.1-0.2,0.2-0.3,0.3c-0.1,0.1-0.2,0.2-0.2,0.3
		c-0.3,0.5-0.6,0.9-0.9,1.4c-0.2,0.4-0.4,0.9-0.6,1.3c-0.2,0.4-0.3,0.8-0.4,1.2c-0.3,1.4-0.1,2.6,0.7,3.6c0.2,0.2,0.4,0.5,0.6,0.7
		c1,0.9,2.4,1.8,4.4,2.5c0.3,0.1,0.7,0.2,1,0.3c0.2,0.1,0.4,0.2,0.7,0.2c0.2,0.1,0.4,0.1,0.6,0.2c0.5,0.1,0.9,0.3,1.4,0.4
		c0.9,0.3,1.7,0.6,2.6,0.9c0.4,0.2,0.9,0.4,1.3,0.6c0.1,0,0.2,0.1,0.3,0.2c0.6,0.3,1.1,0.7,1.4,1
		C383.3,170.8,383.3,172.2,382.1,173.5z M543.1,176.9c-0.2,0.6-0.6,1.2-1,1.8v0c-0.1,0.1-0.2,0.3-0.4,0.4c-0.1,0-0.2,0.1-0.3,0.2
		c-0.2,0.1-0.4,0.2-0.6,0.2c-0.3,0.1-0.6,0.2-0.9,0.2c-2.6,0.3-4.6,1.3-6,2.7c-0.2,0.2-0.4,0.4-0.6,0.7c-1.6,2-2.4,4.7-2.7,7.6
		c0,0.3-0.1,0.6-0.1,0.9c0,0.3-0.1,0.5-0.2,0.7c0,0,0,0,0,0c-0.2,0.5-0.4,1-0.7,1.2c-0.9,0.9-2.2,0.6-3.6-0.2
		c-2.8-1.8-5.5-3.8-8.2-5.8c-1-0.7-1.9-1.4-2.9-2.1c-1.2-0.9-2.5-1.7-3.8-2.5c-1.7-1.1-3.4-2.1-5.2-3.2c-1.2-0.7-2.4-1.4-3.6-2.1
		c-1.1-0.6-2.2-1.3-3.3-1.9c-1.2-0.7-2.4-1.4-3.6-2.1c-1.7-1-3.5-2.1-5.2-3.2c-0.5-0.3-0.9-0.7-1.4-1.1c-0.6-0.6-1.2-1.3-1.8-2
		c-0.4-0.5-0.7-0.9-1.1-1.3c-0.2-0.2-0.4-0.5-0.6-0.7c1.9-1.3,3.7-3,5.7-3.8c2.7-1.1,5.5-2.1,8.3-3.1c0,0,0,0,0,0
		c1.4-0.5,2.8-1,4.2-1.5s2.8-1,4.1-1.6c0.2-0.1,0.3-0.2,0.5-0.3c0.2-0.1,0.3-0.2,0.5-0.4c0.2-0.2,0.4-0.5,0.6-0.7v0
		c0.2-0.3,0.4-0.6,0.5-0.9c0,0,0,0,0,0c0.1-0.2,0.2-0.4,0.2-0.6c0.1-0.4,0.2-0.9,0.2-1.2c0-0.8-1.2-1.8-2.3-2.4
		c-0.3-0.2-0.6-0.3-0.8-0.4c-0.1,0-0.2-0.1-0.3-0.1c-1.1-0.4-1.9-0.9-2.6-1.5c-1.2-1.2-1.5-2.6-0.9-4.4c0.2-0.4,0.4-0.9,0.6-1.3
		c0.1-0.2,0.2-0.3,0.3-0.5c0.4-0.6,0.7-1.2,1-1.8c0.2-0.3,0.3-0.6,0.5-0.8c0.2-0.2,0.4-0.5,0.7-0.7c0.7-0.5,1.4-1.1,2.1-1.6
		c1.7-1.5,3.2-3.2,4-5.3c0.5-1.3,0.8-2.7,0.8-4.3c0-0.5,0.7-1,1.4-1.7c0.2-0.2,0.5-0.5,0.8-0.7v0h0c1.4,2.8,2.7,4.9,3.9,6.1
		c2.8,2.6,5.7,1.5,10.2-2.9c0.2,0.2,0.4,0.4,0.6,0.5c0.1,0,0.1,0.1,0.1,0.1c0.1,0.1,0.2,0.3,0.2,0.4c0,4,0.1,8,0.1,11.9
		c0,1.5,0,2.9-0.1,4.4v0c0,0.7-0.1,1.5-0.1,2.2c0,0.3-0.1,0.7-0.1,1c-0.2,1.3-0.7,2.6-1.2,3.9c-0.1,0.3-0.2,0.6-0.3,1
		c-0.2,0.7-0.4,1.3-0.6,2c-1.2,5.3,2,7,6.4,7.7c1.9,0.3,3.6,1.2,5,2.6C543.1,167.7,544.7,172.9,543.1,176.9z"
      />
      <path d="M734.3,157.7v-1c0-0.6-0.1-1.2-0.2-1.9c-5.4,1-10.6,1.8-15.7,3c-4.2,1.1-5.2,4.6-2.7,8.2c1.6,2.2,1.6,3.7-1.4,4.8
		c-2.3,0.8-4.5,2.1-6.6,3.5c-3.8,2.4-7.5,4.9-12.2,8.1c0-4.4,0.4-7.1-0.1-9.7c-1.3-7.4-4-10.5-10.3-11.1c-3.4-0.3-6.6-2.4-10.1-3.7
		c3.5-8.2,7.6-15.3,9.2-24.7c-5.4,3.7-9.4,3.3-13.9,1.1c-6.7-3.2-1-8.1-2.3-12.3c-1.7,0.4-3.2,0.8-3.9,0.9c-1,3.2-2.2,5.5-2.5,8
		c-0.4,3.8-2.7,4.5-5.9,5.3c-3.1,0.8-6.5,2.7-5.1,7c0.8,2.4,2.7,4.3,4.1,6.5c0.5-0.2,1-0.5,1.5-0.7c-0.4,1.5-0.7,3.1-1.2,4.9
		c-10.4-1.6-17.8,2.7-23,11.6c-1.1,1.8-3.5,2.9-5.4,4.3c-1.4,1-2.8,2-4.1,3c7.6,10.9,8.3,11.3,17.2,9.1c4.1,9.5,0.6,18.3-3.3,26.6
		c-1.7,3.6-2.1,6.2-0.3,9.5c0.9,1.7,1.2,3.7,1.8,5.7c9.9,0,19.8-0.1,29.6,0c3,0,4.2-1,4.2-4.1c-0.1-3.7-0.2-7.5,0.5-11.1
		c0.8-4.5,1-9.7,7.3-11c1.3-0.3,2.1-2.5,3.2-3.7c0.8-0.8,1.8-1.4,3.6-2.8c-3.5,7.7-6.6,14.2-10,21.7c5-0.2,8.3-0.4,11.7-0.5
		c-0.1-8.8-0.1-8.8,0.9-9.6c0.7,2.8,0.8,6,2.2,8.7c2.2,4.1,5.2,7.7,8.5,12.4c5.6,0,12.1,0.1,18.6,0c5.1,0,8.9-4.4,6.9-8.9
		c-3.2-6.9,0.8-11.6,4.1-16.3c4.6-6.4,4-12.8,1.9-19.4c-1.6-5.2-2.4-10.9,0.5-15C733.4,161.8,734.2,159.9,734.3,157.7z M706.3,192.2
		c-0.3,1.3-0.5,2.6-0.8,3.8c-0.1,0.6-0.3,1.2-0.4,1.8c-0.2,1.2-0.5,2.3-0.7,3.5h0c-0.3,0.1-0.6,0.2-0.9,0.3v0h0
		c-1-2.7-2-5.4-3.1-8.5c-0.4-1-0.7-2-1.1-3.1c1.5-0.7,2.8-1.4,4.4-2.1c0.3-0.2,0.7-0.3,1.1-0.5c0.2-0.1,0.4-0.2,0.5-0.3
		c0.4-0.2,0.8-0.4,1.2-0.6s0.8-0.4,1.3-0.6C707.2,188.2,706.7,190.3,706.3,192.2z" />
      <path d="M19,114.2c2.4,4.9,4.2,2,6-1.2c0.7,1.8,1.2,3.1,1.7,4.4c5.1,0.4,5.1,0.4,11.8-7.9c-0.3,12.2-0.7,25-1,37.7
		c-0.1,5,2.5,8.3,7.2,9.1c4.1,0.7,8.2,1,10.9,1.3c-4.3,5-9.3,10.9-14.4,16.8c-0.7,0.9-1.6,2-2.6,2.1c-14.3,2.6-17.4,13.9-19.2,25.5
		c-1,6.9-0.2,14.1-0.2,21.6c-4.4,0-10.3,0-16.2,0c-3.6,0-2.8-2.7-2.8-4.6c0-17,0-34,0-50.9c0-1.5,0-3,0-4.5c0.1-3.4-0.9-7.2,5.2-6.2
		c1.8,0.3,4.9-2.2,6.1-4.1c0.7-1.2-0.9-3.9-1.7-5.9c-0.9-2.1-2.6-4.1-2.9-6.2C5.9,132.6,5.1,124,4.2,115
		C14.1,121.3,15.4,121.2,19,114.2z" />
      <path d="M342.2,132.4c3.8-0.5,6.5-1,9.2-1.1c3-0.2,5.9,0.1,8.9-0.2c3.6-0.3,7.2-0.9,10.2-1.2c0.8,3.5,2.5,8.3,2.8,13.3
		c0.2,3.2-1.5,6.5-2.5,9.7c-0.3,0.9-1.4,1.4-2,2.2c-3.5,5.2-2.3,8.4,3.9,10.7c2.6,1,5.4,1.5,7.9,2.9c3.1,1.7,3.2,4,0.1,6.1
		c-4.2,2.8-8.8,5.3-12.6,8.6c-6.2,5.4-12,11.3-18.1,16.9c-1.2,1.1-3.1,2.4-4.4,2.2c-1.7-0.3-3.7-1.7-4.5-3.2
		c-3.1-6.3-5.3-12.9-7.8-19.4c-2.3-6.2-7.3-11.4-11-17c-0.4-0.6-0.5-1.5-1.2-3.4c6.5,5.4,12.4,1.1,18.2,0.8c0.8,0,1.9-2.9,2.1-4.6
		c0.5-3.3,0.6-6.7,0.7-10C342.3,140.8,342.2,136.1,342.2,132.4z" />
      <path d="M515.8,123.6c4.4,9.1,7.6,9.6,14.1,3.1c0.3,0.4,0.9,0.7,0.9,1.1c0,6.2,0.2,12.4-0.1,18.5c-0.2,2.6-1.6,5.2-2.2,7.8
		c-1.2,5.3,2,7.1,6.5,7.7c6.9,1,11.3,11.2,7.2,16.8c-0.4,0.6-1.4,0.9-2.1,1c-6.5,0.8-8.8,5.5-9.4,11c-0.4,3.9-2.5,3.9-4.5,2.6
		c-5.1-3.2-9.8-7.2-14.8-10.4c-6.8-4.4-13.9-8.2-20.8-12.5c-1.9-1.2-3.3-3.4-4.9-5.1c1.9-1.3,3.6-3,5.7-3.8
		c5.5-2.2,11.1-3.9,16.6-6.2c1.3-0.5,2.6-2.7,2.5-4.1c0-1.1-2-2.4-3.4-3c-3.8-1.4-4.9-4.2-2.6-7.7c0.7-1.1,1.2-2.6,2.2-3.3
		c3.9-2.8,6.9-6,6.9-11.3C513.6,125.4,514.8,124.7,515.8,123.6z" />
      <path
        class="st0"
        d="M699.2,190c2.6-1.3,4.8-2.4,8.4-4.1c-1.3,6.2-2.3,10.8-3.2,15.4c-0.3,0.1-0.6,0.2-0.9,0.3
		C702.1,198,700.8,194.3,699.2,190z"
      />
    </g>
    <path
      class="st0"
      d="M272.1,52.7L272.1,52.7C272.1,52.8,272.2,52.8,272.1,52.7C272.2,52.8,272.1,52.8,272.1,52.7z M0,0v223.4
	c126.1-0.1,252.2-0.1,378.3-0.1c118.7,0,237.3,0,356,0.1V0H0z M145.3,38.9c-1.3,4.2-2.7,8.5-4.3,12.6c-0.7,1.6-0.3,2.9,0.2,4.3
	c1.5,4.2,0.2,7.5-3.6,9.7c-3.8,2.1-7.7,2.3-10.8-1.1c-1.3-1.3-1.6-1.3-3.1-0.3c-4.4,3.1-8.1,0.8-12.2-3.1c0.7,9.3-6,9.7-11.6,11
	c-4.1,1-7.3-0.5-8-5.1c-0.3-1.9-0.8-3.3-3.1-2.4c-4,1.7-6.7-0.4-8.9-3c-1.1-0.4-0.9,0.5-0.9,0.8c-0.7,3.6-4,4.4-6.3,6.4
	c-1.9,1.6,1.2,5.3-0.9,8.2c-3.5,4.8-11.3,6-15.7,2c-1.8-1.7-3.2-3.1-3.4,1c-0.2,4.2-2.8,6.8-6.8,7.3c-6.2,0.8-12.7,3.8-18.5-1.6
	c-0.3,0.4-0.7,0.8-1,1.2c1.1,7.7-4.1,13.6-11.8,13.5c-2.9-0.1-5.2-1.5-5.7-4.6C6.9,85.3,5.9,74.9,6,64.4c0-5.4,5-10,10.4-10.2
	c1.9-0.1,3.2-0.1,4.5-2c4-5.8,8-6.3,14.1-2.2c1.1,0.8,1.4-0.2,2-0.4c2.2-1,4.4-2.2,6.7-3.2c8.8-4.1,14.2-2.9,19.9,4.9
	c0.7-4,1.4-7.6,2.1-11.3c1.2-6.8,7.4-7.1,12.2-8.3c4.2-1,7,2,8.7,5.8c0.8,1.8,1.7,3.5,2.8,5.9c1.1-3.9,2.8-6.5,6.6-7.4
	c3.5-0.9,6.5-1.4,9,1.9c1.4,1.9,1.7-0.2,2.4-0.9c3.6-4,8.3-4.9,13-2.7c3.2,1.5,3.9,5.8,1.7,9.5c-0.8,1.3-3.3,2.4-2.1,4
	c1.7,2.3,4.1,4.4,6.5,6c1.1,0.7,1.9-0.8,1.4-2.2c-2.4-5.6-0.3-11.2,0.3-16.7c0.5-4.6,7.1-7.1,13.1-5.6
	C145.6,30.7,147,33.6,145.3,38.9z M341.9,74.6c-1.7,1.3-3.6,2.3-5.4,3.5c-3.2,2.1-6.4,3.8-6.5,8.7c-0.1,4.2-4.4,5.7-8.1,6.1
	c-3.1,0.4-5.9-1-6.6-4.6c-0.4-1.9-1.4-2.2-3.2-2.1c-4.9,0.5-8-1.6-8.4-7.3c-2.9,2.9-5.8,4.2-9.8,3.5c-3.5-0.6-5.3-4.3-9.2-4.1
	c-4.5,0.2-6.3-3-7-7.5c-3.7,3.6-7.5,4.7-11.8,2c-0.8-0.5-1.5-0.6-2.3-0.3c-4,1.9-6.7-0.1-9-3.1c-1.4-1.8-2.4-3.4-4.6-0.2
	c-2.6,3.8-7.4,3.2-10.4,1.6c-5.2-2.7-9.9-0.6-14.8-0.2c-3.3,0.3-6.6,0.7-9.9,0.6c-5.2-0.1-8-3.8-6.7-8.7c1.9-7.2,4.2-14.3,6.2-21.5
	c1.1-3.7,3.7-5.5,7.3-5.7c7.1-0.4,14,0.2,19.8,4.7c1.3,1,1.6,0.2,2.3-0.3c3.9-3.3,8.2-2.9,12.6-1.2c2,0.8,4,1.7,6,2.3
	c5.1,1.5,9.1,3.9,9.6,11.1c0,0.3,0,0.6,0,0.9v0.1c0,0,0,0,0,0c0.3-0.4,0.6-0.7,0.9-1.1c4.7-5.3,9.2-7.9,15.2-5.2
	c6.5,3,4,9.8,5.6,14.9c2-0.9,2-2.8,2.7-4.1c3.6-6.6,8.8-7.8,14-2.4c2,2.1,3.8,2.5,6.4,2.4c6.6-0.1,9.5,3.1,8.5,8.8
	c1.1,0.4,1.3-0.5,1.8-1.2c4.3-5.3,12.8-4.9,16.5,0.9C345.8,69.1,345,72.2,341.9,74.6z M584.5,52.2c-1.5,1.1,0.1,1.7,0.4,2.4
	c1.6,3.9,0.5,6.9-3.1,8.9c-3.8,2.1-7.7,2.8-10.7-1.2c-1.2-1.6-1.8-2.2-3.8-1.6c-4.3,1.3-8.3,0.8-10.4-4c-4.4,5.4-9.9,6.7-15.3,3.4
	c-1.4-0.9-1.7-0.4-2.7,0.3c-3.8,2.7-7.9,3.6-11.6-0.1c-1.2-1.2-1.4-0.3-2.1,0.3c-0.7,0.7-1.6,1.2-2.3,1.8c-7,5.1-12,5-18.1-0.9
	c-1.5-1.4-2.4-2.6-4.3-0.8c-0.6,0.6-2.2,1.1-2.8,0.7c-5-3.3-9.2,0.5-13.7,1.3c-0.8,0.1-1.6,0.3-2.5,0.3c-2.6,0.1-4.3-2-6.5-2.8
	c-0.9,3.1-3.7,3.6-6.2,4.4c-6.2,2.1-14.3-0.3-18.5-5.4c-4.8-5.7-5.6-13.5-2.2-20.1c3-5.7,10.3-9.5,17.1-9c2.7,0.2,4.3,1.5,4.6,4.2
	c0.2,1.9,0.2,3.9,0.3,5.8c3.8,0.3,7.4,0.4,8.8-4.4c0.4-1.5,2.1-2.2,3.6-2.5c7.4-1.1,15.1-4.3,21.1,3.2c1.2,1.6,2,0,2.9-0.3
	c3-1.2,5.9-1.3,8.2,1.4c1.1,1.3,1.9,1.6,3,0.1c0.1-0.1,0.3-0.2,0.4-0.3c3.9-3.3,8.1,1.3,11.9-0.5c4.2-2,8.2-2.8,11.9,0.8
	c1.4,1.4,1.7,0,2.6-0.6c2.8-2.3,6-2.6,9.7-2.7c5.1-0.2,10.1-2,15.4-1.7c4.5,0.3,8.8,0.7,13.1-2.2c2.5-1.7,6.6-0.7,8.9,2.4
	c2.2,3,1.3,6-0.4,8.8C589,45.4,588,49.6,584.5,52.2z M692.5,53.8c5.2,5.9,5.4,10.5,1.1,14.7c-4.3,4.1-13.3,4.3-17.5,0.5
	c-3.5-3.3-3.3-11,1.3-13c5.7-2.3,4.7-5.4,2.7-9.8c-0.6,5.1-2.9,8.1-8.1,8.3c-2,0.1-3.5,1.1-3.6,3.8c-0.1,2-0.8,4.3-2.3,5.9
	c-2.6,2.7-5.9,3-9.2,2.1c-3.2-0.9-4-3.6-4.1-6.7c0-1,0.6-2.2-0.6-3.6c-3,8.2-8.5,13-17.2,13.5c-1.6,0.1-3.7,0.5-4.9-0.3
	c-8.2-5.2-15.8,0.1-23.6,1.1c-2,0.2-4,0.6-5.8,1.3c-3,1.1-5.7,0.8-7.6-1.8c-1.9-2.6-1.7-5.5,0.1-8c1.9-2.6,2.1-4.5,0.4-7.7
	c-3.2-6,1.1-13.9,7.7-15.4c3.6-0.8,7.1-1.6,10.7-2.2c1.4-0.2,3.6-0.7,4.4,0c4.5,4.1,7.9,0.4,11.9-1c6.2-2.2,12.3-2.3,18.1,1.7
	c0.7,0.5,1.3,1.9,2.4,1c6.6-5.7,14.9-3.4,22.3-5c0.2,0,0.3,0,0.5,0c7.5-0.9,8.8,0,9.9,7.4c2.7-1.7,3.2-5.8,6.7-6.1
	c3.1-0.3,6.3-0.4,9.5-0.4c3.5-0.1,5.7,1.7,6.2,5.1C704.5,44.7,698.5,52.7,692.5,53.8z"
    />
  </svg>
