  <svg
    version="1.1"
    class="text"
    xmlns="http://www.w3.org/2000/svg"
    x="0px"
    y="0px"
    viewBox="0 0 734.3 226"
  >
    <defs>
      <style>
        .st0 {
          fill: none;
        }
        .st1 {
          fill: #1b1211;
        }
        .st2 {
          fill: #1d1d13;
        }
        .st3 {
          fill: #a62d2d;
        }
        .st4 {
          fill: #b5403b;
        }
        .st5 {
          fill: #cec93a;
        }
      </style>
    </defs>
    <g>
      <rect class="st0" width="734.3" height="226" />
    </g>
    <g>
      <path
        class="st0"
        d="M293,72.4L293,72.4C293,72.5,293.1,72.4,293,72.4C293.1,72.4,293,72.4,293,72.4z M8.7,16.8
		c-3.4,0-4.1,0.7-4.1,4.1c0.1,68.3,0.1,136.7,0,205h729.7V16.8C492.4,16.9,250.6,16.9,8.7,16.8z M166.2,58.5
		c-1.3,4.2-2.6,8.5-4.3,12.6c-0.7,1.6-0.3,2.9,0.2,4.3c1.5,4.2,0.2,7.5-3.7,9.7c-3.8,2.2-7.7,2.3-10.8-1.1c-1.3-1.4-1.6-1.3-3.1-0.3
		c-4.4,3.1-8.1,0.8-12.2-3.1c0.7,9.3-6,9.7-11.6,11c-4.1,1-7.3-0.5-8-5.1c-0.3-1.9-0.8-3.3-3.1-2.4c-4,1.7-6.7-0.4-8.9-3
		c-1.1-0.4-0.9,0.5-0.9,0.8c-0.7,3.6-4,4.4-6.3,6.4c-1.9,1.6,1.2,5.3-0.9,8.2c-3.5,4.8-11.3,6-15.7,1.9c-1.8-1.7-3.2-3-3.4,1
		c-0.2,4.2-2.8,6.8-6.8,7.3c-6.2,0.8-12.7,3.8-18.5-1.6c-0.3,0.4-0.7,0.8-1,1.2c1.1,7.7-4.1,13.6-11.8,13.5
		c-2.9-0.1-5.1-1.5-5.7-4.6c-1.9-10.3-2.9-20.7-2.9-31.2c0-5.4,5-10,10.4-10.2c1.9-0.1,3.2-0.1,4.5-2c4-5.8,8-6.3,14.1-2.2
		c1.1,0.8,1.4-0.2,2-0.4c2.2-1,4.4-2.2,6.7-3.2c8.8-4.1,14.2-2.9,19.9,4.9c0.7-4,1.4-7.6,2.1-11.3c1.2-6.8,7.4-7.1,12.2-8.3
		c4.2-1,7,2,8.7,5.8c0.8,1.8,1.7,3.5,2.8,5.9c1.1-3.9,2.8-6.5,6.6-7.4c3.5-0.9,6.5-1.4,8.9,1.9c1.4,1.9,1.7-0.2,2.4-0.9
		c3.5-4,8.3-4.9,13-2.7c3.2,1.5,3.9,5.8,1.7,9.4c-0.8,1.3-3.3,2.4-2.1,4c1.7,2.3,4.1,4.4,6.5,6c1.1,0.7,1.9-0.8,1.4-2.2
		c-2.4-5.6-0.3-11.1,0.3-16.6c0.5-4.6,7.1-7.1,13.1-5.6C166.5,50.3,167.8,53.3,166.2,58.5z M362.8,94.2c-1.7,1.3-3.6,2.3-5.4,3.5
		c-3.2,2.1-6.3,3.7-6.5,8.7c-0.1,4.2-4.4,5.7-8.1,6.1c-3.1,0.4-5.9-1-6.7-4.6c-0.4-1.9-1.4-2.2-3.2-2.1c-4.9,0.5-8.1-1.6-8.4-7.3
		c-2.9,2.9-5.8,4.2-9.8,3.5c-3.5-0.6-5.3-4.3-9.2-4.1c-4.5,0.2-6.3-3-7-7.5c-3.7,3.6-7.5,4.7-11.8,2c-0.8-0.5-1.5-0.6-2.4-0.3
		c-4,1.9-6.6-0.1-9-3.1c-1.4-1.7-2.4-3.4-4.5-0.2c-2.5,3.8-7.4,3.2-10.5,1.7c-5.2-2.7-9.9-0.7-14.8-0.2c-3.3,0.3-6.6,0.7-9.9,0.6
		c-5.2-0.2-8-3.8-6.7-8.7c1.9-7.2,4.2-14.3,6.2-21.5c1.1-3.7,3.7-5.5,7.3-5.7c7-0.4,14,0.2,19.8,4.7c1.3,1,1.6,0.2,2.3-0.3
		c3.9-3.3,8.2-2.9,12.7-1.2c2,0.8,4,1.7,6,2.3c5.1,1.5,9.1,3.9,9.6,11.1c0,0.3,0,0.6,0.1,0.9v0.1c0,0,0,0,0,0
		c0.3-0.4,0.6-0.7,0.9-1.1c4.7-5.3,9.2-7.9,15.2-5.2c6.5,3,4,9.8,5.5,14.9c2-0.9,2-2.8,2.7-4.1c3.7-6.6,8.8-7.8,14-2.4
		c2,2.1,3.8,2.5,6.4,2.4c6.6-0.1,9.5,3.1,8.5,8.8c1.1,0.4,1.3-0.5,1.8-1.2c4.3-5.3,12.8-4.9,16.5,0.9
		C366.7,88.8,365.9,91.9,362.8,94.2z M605.4,71.8c-1.5,1.1,0.1,1.7,0.4,2.4c1.6,3.9,0.5,6.9-3.1,8.9c-3.8,2.1-7.7,2.8-10.7-1.2
		c-1.2-1.6-1.8-2.2-3.8-1.6c-4.3,1.3-8.3,0.8-10.4-4c-4.4,5.4-9.9,6.7-15.3,3.4c-1.4-0.9-1.7-0.4-2.7,0.3c-3.8,2.7-7.9,3.6-11.6-0.1
		c-1.2-1.2-1.4-0.3-2.1,0.3c-0.7,0.7-1.6,1.2-2.4,1.8c-7,5.2-12,5-18.1-0.9c-1.5-1.4-2.4-2.6-4.4-0.8c-0.6,0.6-2.2,1.1-2.8,0.7
		c-5-3.3-9.2,0.5-13.7,1.3c-0.8,0.2-1.6,0.3-2.4,0.3c-2.6,0.1-4.3-2-6.5-2.8c-0.9,3.1-3.7,3.6-6.2,4.4c-6.2,2.1-14.3-0.3-18.5-5.4
		c-4.8-5.7-5.6-13.5-2.2-20.1c3-5.7,10.3-9.5,17.1-9c2.7,0.2,4.3,1.5,4.6,4.2c0.2,1.9,0.2,3.9,0.4,5.8c3.8,0.3,7.4,0.4,8.8-4.4
		c0.4-1.5,2.1-2.2,3.6-2.4c7.4-1.1,15.1-4.3,21.1,3.2c1.2,1.6,2,0,2.9-0.3c3-1.2,5.9-1.3,8.2,1.4c1.1,1.3,2,1.6,3,0.1
		c0.1-0.1,0.3-0.2,0.4-0.3c3.9-3.3,8.1,1.3,11.9-0.5c4.2-2,8.2-2.8,11.9,0.8c1.4,1.4,1.7,0,2.6-0.6c2.8-2.3,6-2.6,9.7-2.7
		c5.1-0.2,10.1-2,15.3-1.7c4.5,0.3,8.8,0.7,13.1-2.2c2.5-1.7,6.6-0.7,8.9,2.4c2.2,3,1.3,6-0.4,8.8C609.9,65,608.9,69.3,605.4,71.8z
		 M713.4,73.4c5.2,5.9,5.4,10.5,1.1,14.7c-4.3,4.1-13.3,4.4-17.5,0.5c-3.6-3.3-3.3-11,1.3-12.9c5.7-2.4,4.7-5.4,2.7-9.8
		c-0.6,5.1-3,8.1-8.2,8.3c-2,0.1-3.4,1.1-3.6,3.7c-0.1,2-0.8,4.3-2.4,5.9c-2.6,2.7-5.9,3-9.2,2.1c-3.2-0.9-4-3.6-4.1-6.6
		c0-1.1,0.6-2.2-0.6-3.6c-3,8.2-8.5,13-17.2,13.5c-1.6,0.1-3.7,0.5-4.9-0.3c-8.2-5.2-15.8,0.1-23.6,1.1c-2,0.2-4,0.6-5.8,1.3
		c-3,1.1-5.7,0.9-7.6-1.8c-1.8-2.6-1.7-5.5,0.1-8c1.9-2.6,2.1-4.5,0.4-7.7c-3.2-6,1.1-13.9,7.7-15.4c3.5-0.8,7.1-1.6,10.7-2.2
		c1.5-0.2,3.6-0.7,4.4,0c4.5,4.1,7.9,0.4,11.9-1c6.2-2.2,12.4-2.3,18.1,1.7c0.7,0.5,1.3,1.9,2.4,1c6.6-5.7,14.9-3.4,22.3-5
		c0.2,0,0.3,0,0.5,0c7.5-0.9,8.8,0,9.9,7.4c2.7-1.7,3.2-5.8,6.7-6.1c3.1-0.3,6.3-0.4,9.5-0.4c3.5-0.1,5.7,1.7,6.2,5.1
		C725.4,64.3,719.4,72.3,713.4,73.4z"
      />
      <path
        class="st1"
        d="M166.2,58.5c1.6-5.2,0.3-8.2-4.1-9.3c-6-1.6-12.6,1-13.1,5.6c-0.6,5.5-2.7,11.1-0.3,16.6
		c0.6,1.4-0.2,2.9-1.4,2.2c-2.5-1.6-4.8-3.6-6.5-6c-1.2-1.7,1.3-2.7,2.1-4c2.1-3.7,1.4-7.9-1.7-9.4c-4.8-2.2-9.5-1.3-13,2.7
		c-0.6,0.7-1,2.8-2.4,0.9c-2.5-3.3-5.5-2.8-8.9-1.9c-3.8,0.9-5.5,3.5-6.6,7.4c-1.1-2.4-2-4.1-2.8-5.9c-1.7-3.8-4.5-6.8-8.7-5.8
		c-4.8,1.2-11,1.4-12.2,8.3c-0.7,3.7-1.3,7.3-2.1,11.3c-5.7-7.8-11.1-9.1-19.9-4.9c-2.2,1-4.4,2.2-6.7,3.2c-0.6,0.3-0.9,1.2-2,0.4
		c-6-4.1-10-3.5-14.1,2.2c-1.3,1.9-2.6,1.9-4.5,2c-5.4,0.2-10.4,4.8-10.4,10.2c0,10.5,0.9,20.9,2.9,31.2c0.6,3,2.8,4.5,5.7,4.6
		c7.7,0.2,12.9-5.8,11.8-13.5c-0.1-0.6-0.6-1.4-0.4-1.7c0.6-0.8,0.9,0.2,1.4,0.5c5.7,5.4,12.2,2.4,18.5,1.6c4.1-0.5,6.6-3.1,6.8-7.3
		c0.2-4,1.5-2.7,3.4-1c4.3,4,12.1,2.8,15.7-1.9c2.1-2.8-1-6.6,0.9-8.2c2.3-2,5.6-2.8,6.3-6.4c0.1-0.3-0.2-1.1,0.9-0.8
		c2.3,2.6,4.9,4.7,8.9,3c2.3-1,2.8,0.5,3.1,2.4c0.8,4.6,4,6.1,8,5.1c5.6-1.3,12.3-1.7,11.6-11c4.1,3.9,7.8,6.2,12.2,3.1
		c1.5-1,1.8-1.1,3.1,0.3c3.2,3.4,7,3.2,10.8,1.1c3.9-2.2,5.1-5.5,3.7-9.7c-0.5-1.4-0.8-2.6-0.2-4.3C163.6,67,164.9,62.8,166.2,58.5z
		 M56.8,101.1c-1.5,1.9-2.8,1.9-4.4,0.2c-0.9-1-2.1-1.6-3.2-2.4c-1.7-1.3-3.7-3.4-5.6-2c-2.2,1.7-3.4,4.5-2.6,7.6
		c0.3,1.3,0.6,2.6,1,3.8c1.6,4.5-2.4,4.6-4.6,5.4c-3.3,1.1-2.5-2-2.8-3.7c-1.5-7.8-2-15.8-2.1-23.7c0-3.4,0.8-5.8,4.9-7
		c0.4,1.6,0.8,3,1.1,4.5c0.2,1.2-0.4,3,1.5,3.1c1.6,0.2,2.2-1.5,2.7-2.5c0.8-1.6,1.1-3.4,1.5-5.2c0.8-3.5,2.9-5.8,6.6-7.4
		c-0.2,4.3-2,7.6-3.3,11c-1.1,2.9-1,5,1.5,6.9c2.6,2,4.9,4.5,7.5,6.5C58.9,97.9,58.3,99.3,56.8,101.1z M87.4,93.6
		c-1.3,1.4-3.6,3.5-6.1,1.2c-2.5-2.3-5.7-4-7.8-6.9c-1,0-2-0.2-3-0.1c-5.1,0.7-5.7,1.7-3.8,6.4c1.4,3.5,1.9,6.4-2.7,7.8
		c-1.3,0.4-2.4,0.6-2.3-1.2c0.3-7-3.4-13.3-4-20.2c-0.1-1.1-0.7-2.4-0.4-3.4c1-3.6,14.3-9.3,17.8-7.7c4.5,2,4.4,5.6-0.2,11.5
		c-0.4,2.9,2.2,3.4,3.9,4.5c2.1,1.6,4.5,2.9,6.5,4.6C86.3,91.1,89.3,91.7,87.4,93.6z M110,78.5c-2.3,1.3-4.4,0.6-5.5-2.3
		c-1.1-3.1-3.3-3.5-6.4-2.4c-2.3,0.8-3.3,2-3.3,4.2c0,0.8,0,1.7-0.2,2.5c-0.5,2.5-2.9,3-4.7,3c-2.2,0-0.7-2.4-1.1-3.2
		c0.7-6,1.4-11.6,2-17.2c0.5-4.5,4-5.3,7.4-6.1c3.6-0.8,3.8,2.4,4.9,4.4c2.1,4,4.2,7.9,6.1,11.9C110.1,74.9,113.3,76.7,110,78.5z
		 M141.8,79c-2,2.3-3-0.7-4.4-1.4c-1-0.5-1.7-1.5-2.7-2.2c-1.7-1.3-3.3-3.1-5.7-1.6c-2.4,1.5-3.7,3.7-3.1,6.7c0.3,1.3,1.8,3.1,0,4
		c-2.2,1-4.7,1.4-7.2,1.8c-0.8,0.1-0.8-0.9-0.9-1.5c-0.1-6.3-1.1-12.5-2-18.7c0.2-1.2,0.3-2.3,0.6-3.5c0.4-1.9,2.2-1.9,3.6-2.1
		c1.8-0.4,1.5,1.3,1.8,2.3c0.2,0.5,0.2,1,0.4,1.4c1,2-0.9,5.7,2,6c2.7,0.3,3.7-3.3,5.4-5.2c1.9-2.3,2.2-6.2,6.3-6.2
		c1.8,0,3.5,0,1.7,2.8c-4.5,7.1-4.4,7.4,2.2,12.8C141.4,75.6,143.9,76.6,141.8,79z M154.2,81c-1.4,0-2.5-0.1-2.5-1.8
		c0-2.3,1.4-3.4,3.2-3.7c1.6-0.3,2.2,1.3,2.3,2.6C157.4,80.3,155.6,80.6,154.2,81z M160.9,57.5c-1,3.2-1.8,6.3-2.7,9.5
		c-0.5,1.8-1.9,2.1-3.5,1.9c-1.7-0.2-1.8-1.2-0.8-3.8c0-1.3,0.1-3.9,0-6.6c-0.1-2.7,1.2-3.7,3.8-4.1C160.3,54,161.9,54.2,160.9,57.5
		z"
      />
      <path
        class="st1"
        d="M612.4,52.7c-2.3-3.2-6.4-4.1-8.9-2.4c-4.3,2.9-8.6,2.5-13.1,2.2c-5.2-0.3-10.3,1.4-15.3,1.7
		c-3.7,0.1-6.8,0.5-9.7,2.7c-0.8,0.7-1.1,2-2.6,0.6c-3.7-3.6-7.7-2.9-11.9-0.8c-3.8,1.8-8.1-2.8-11.9,0.5c-0.1,0.1-0.3,0.2-0.4,0.3
		c-1.1,1.5-2,1.2-3-0.1c-2.3-2.7-5.1-2.6-8.2-1.4c-0.9,0.3-1.7,1.9-2.9,0.3c-6-7.6-13.8-4.3-21.1-3.2c-1.5,0.2-3.2,1-3.6,2.4
		c-1.4,4.8-5,4.7-8.8,4.4c-0.1-1.9-0.2-3.9-0.4-5.8c-0.3-2.7-1.9-4-4.6-4.2c-6.8-0.5-14.1,3.3-17.1,9c-3.4,6.5-2.6,14.4,2.2,20.1
		c4.2,5.1,12.3,7.5,18.5,5.4c2.4-0.8,5.3-1.3,6.2-4.4c2.2,0.9,3.9,2.9,6.5,2.8c0.8,0,1.6-0.2,2.4-0.3c4.5-0.8,8.7-4.6,13.7-1.3
		c0.6,0.4,2.1-0.1,2.8-0.7c2-1.8,2.9-0.6,4.4,0.8c6.2,5.9,11.2,6,18.1,0.9c0.8-0.6,1.6-1.2,2.4-1.8c0.7-0.6,0.8-1.5,2.1-0.3
		c3.7,3.7,7.8,2.8,11.6,0.1c1-0.7,1.3-1.1,2.7-0.3c5.4,3.3,10.9,2,15.3-3.4c2.2,4.8,6.2,5.3,10.4,4c2.1-0.6,2.6-0.1,3.8,1.6
		c2.9,3.9,6.9,3.2,10.7,1.2c3.6-2,4.7-4.9,3.1-8.9c-0.3-0.7-1.9-1.3-0.4-2.4c3.5-2.6,4.5-6.8,6.6-10.3
		C613.7,58.7,614.6,55.7,612.4,52.7z M494.3,68.8c-3.3,0.5-3.9,2.7-3.5,5.4c0.7,4.8-2.4,5.4-5.5,5.6c-6.7-0.1-12.2-5.1-12.8-11
		c-0.7-6.6,3.1-11.7,9.5-13.1c1.1-0.2,2.3-1.3,3.2-0.1c0.9,1.1,0.4,2.5,0.1,3.8c-0.6,1.9-2.5,2.6-3.7,3.9c-1.8,1.8-3,4.1-1.1,6.2
		c2,2.2,4.4,1.1,5.9-0.9c1.7-2.3,4.2-2.4,6.6-3.1c0.9-0.3,2.1-0.8,2.5,0.5C495.8,67,495.8,68.5,494.3,68.8z M519.8,74.7
		c-1.9,2.6-4.1-0.4-5.7-1.8c-4.4-3.8-5.3-3.7-6.7,1.8c-0.6,2.2-2,2.3-3.7,2.4c-2.4,0-1.9-1.8-1.9-2.8c0.7-5,1.4-9.5,2-14.1
		c0.2-1.8,1.5-2,2.7-2.4c3.1-1.1,6.2-0.7,9.4-0.7c2.3,0,4,1.3,4.3,3.4c0.3,1.8-0.8,3.5-2.6,4.4c-0.4,0.2-0.8,0.5-1.3,0.7
		c-4.6,1.7-3.4,3.1,0,5.1C517.7,71.5,521.6,72.2,519.8,74.7z M545.6,66.1c-0.1,8-4,13-11,14c-7.5-2.6-10.6-12-6-18.2
		c0.7-0.9,1.5-1.4,2.5-1.2c1.4,0.2,1.1,1.4,0.8,2.4c-0.7,2.7-0.3,5.2,0.9,7.7c4.7,1.2,7.3-0.6,7.9-5.4c0.2-2.2,0.9-4.2,3.5-3.8
		C546.8,62,545.7,64.5,545.6,66.1z M572.7,66.9c0.3,1.8,0,3.7-0.1,5.5c-0.1,2.4-1,3.9-3.6,3.6c-2,0.2-3.7-0.2-4.6-2.2
		c-0.6-1.5-1.6-2.5-2.9-3.3c-2.8-1.7-5.1-2.4-4.9,2.3c0,1-0.3,2-0.6,2.9c-0.5,1.3-1.7,1.5-2.9,1.2c-1.4-0.3-1.9-1.2-1.6-2.6
		c0.8-3.7,1.4-7.5,2.4-11.2c1-3.6,3.3-4.1,5.7-1.5c1.8,1.9,3.1,4.3,4.7,6.4c0.7,0.9,1.2,2.2,2.7,1.8c1.5-0.4,1.8-1.8,1.9-3.1
		c0.3-2.9-1.2-7.8,3.4-7C575.7,60.2,572.2,64.3,572.7,66.9z M588.8,65c-1.5,2.3-1.2,4.7-0.6,7.1c0.4,1.5,0,2.6-1.5,3.2
		c-1.1,0.5-2.3,0.8-3.2-0.1c-1.1-1.1,0.1-2.2,0.5-3.2c1.3-3.8,3.3-7.6-2.9-9c-0.4-0.1-1.1-1.3-0.3-2.1c-0.3-2.1,0.4-3.1,2.6-3
		c1.6,0.1,3.4-0.3,4.9,0.1c1.8,0.5,5-2,5.3,2.1C593.8,63.4,591.9,64.8,588.8,65z M602.7,66.7c-0.2,0.3-1.3,0.3-1.8,0
		c-1-0.4-0.7-1.3-0.4-2.1c0.9-2.7,1.7-5.4,2.6-8c0.5-1.5,1.9-1.7,3.3-1.6c1.1,0.1,1.6,0.8,2.3,1.6C606.6,60.2,604.7,63.5,602.7,66.7
		z"
      />
      <path
        class="st2"
        d="M293.4,70.8c-0.1,0.2-0.3,0.5-0.4,0.7c0,0.3,0,0.6,0.1,0.9c0,0,0,0,0,0c0.3-0.4,0.6-0.7,0.9-1.1
		C293.8,71.2,293.6,71,293.4,70.8z M364.6,85.5c-3.7-5.8-12.2-6.1-16.5-0.9c-0.5,0.6-0.7,1.5-1.8,1.2c1-5.7-1.9-8.9-8.5-8.8
		c-2.6,0-4.3-0.3-6.4-2.4c-5.2-5.4-10.3-4.2-14,2.4c-0.8,1.4-0.8,3.3-2.7,4.1c-1.6-5.1,0.9-11.9-5.5-14.9
		c-5.9-2.7-10.5-0.2-15.2,5.2l0.1,0.1c-0.2,0.4-0.5,0.8-0.8,1.2c-0.1-0.1-0.2-0.2-0.3-0.3c0,0,0,0,0,0v-0.1
		c-0.2-0.1-0.3-0.3-0.2-0.4c0-0.2,0.1-0.3,0.2-0.5c-0.5-7.2-4.5-9.6-9.6-11.1c-2.1-0.6-4-1.5-6-2.3c-4.4-1.7-8.7-2.1-12.7,1.2
		c-0.7,0.6-1,1.3-2.3,0.3c-5.9-4.5-12.8-5-19.8-4.7c-3.6,0.2-6.3,2-7.3,5.7c-2.1,7.2-4.3,14.3-6.2,21.5c-1.3,5,1.5,8.6,6.7,8.7
		c3.3,0.1,6.6-0.3,9.9-0.6c4.9-0.4,9.6-2.5,14.8,0.2c3.1,1.6,7.9,2.2,10.5-1.7c2.2-3.2,3.2-1.6,4.5,0.2c2.4,2.9,5,4.9,9,3.1
		c0.8-0.4,1.6-0.2,2.4,0.3c4.3,2.7,8.1,1.6,11.8-2c0.7,4.5,2.5,7.7,7,7.5c3.9-0.2,5.7,3.5,9.2,4.1c4,0.7,6.9-0.5,9.8-3.5
		c0.4,5.8,3.5,7.8,8.4,7.3c1.8-0.2,2.8,0.2,3.2,2.1c0.7,3.6,3.5,5,6.7,4.6c3.7-0.4,7.9-1.9,8.1-6.1c0.1-4.9,3.3-6.6,6.5-8.7
		c1.8-1.2,3.7-2.2,5.4-3.5C365.9,91.9,366.7,88.8,364.6,85.5z M257,74.4c2.9,2.6,1.4,6.9-3.1,8.7c-5.5,2.2-11.4,1.8-18.4,2.3
		c-0.2,0-2.3-0.1-1.3-2.3c2.9-6.4,3.6-13.4,5.8-20.1c0.8-2.3,2.1-3.1,4.4-3.1c4,0.1,7.9,1,11.7,2c3.3,0.9,2.5,2.1,0.7,4
		c-1.8,2-6,1.7-5.9,4.5C251.2,73,255.1,72.8,257,74.4z M285.2,73.8c-1.9,1.8-6.4,1-6,4.6c0.3,2.7,3.4,4.3,5.5,6.1
		c0.2,0.2,0.4,0.5,0.7,0.9c-2.4,2.3-4.6,3-6.4-0.8c-0.3-0.7-1.2-1.1-1.8-1.7c-5.8-6.4-5.7-6.3-9.9,1.4c-2,3.6-4.9,0-7.5,0.7
		c2.2-7.5,6.4-13.6,8.3-20.8c0.8-2.9,3.4-2.4,5.4-1.8c3.6,1.1,7.2,2.4,10.7,3.9C288.5,68.1,288.6,70.8,285.2,73.8z M306.9,92.8
		c-2.4,0-2.4-1.4-2.6-3.3c-0.3-5.5-2.6-7.8-6.5-6.5c-1.9,0.6-2.6,2.5-3.9,3.7c-0.9,0.9-1.7,2.3-3.3,1.3c-1.7-1.1,0.1-2.1,0.4-2.9
		c2.1-5.7,6.7-9.7,10.8-13.8c2.7-2.6,6.4-0.2,6.6,3.8c0.1,1.3,0.1,2.7,0.2,4c0,1.2,0,2.3,0,3.5h0.1c0,2.3,0.1,4.7,0,7
		C308.8,90.9,309.5,92.8,306.9,92.8z M334,97.7c0.3,1.7,0.9,2.8-1.4,3.1c-2.3,0.3-2.5-0.9-2.2-2.7c0.2-1.1,0.1-2.3,0-3.5
		c-0.3-2-0.5-4.3-3-4.5c-2.3-0.2-4.6,0.2-6,2.5c-0.7,1.1-1.3,2.3-2.1,3.3c-1.4,1.6-3.1,0.8-4.6,0.1c-2.1-0.9-0.7-2.3-0.1-3.3
		c2.7-4.9,5.6-9.7,8.4-14.5c1.2-2,2.5-1.5,4.2-0.5c1.8,1,1.7,2.2,0.6,3.6c-0.9,1.2-2,2.5-0.4,3.9c1.5,1.4,2.9,0,4.1-0.5
		c3.2-1.4,6.2-4.3,10.3-1c-0.6,0.5-0.9,0.9-1.3,1.1C332.4,88.7,332.3,88.8,334,97.7z M338.9,95.3c-0.1-1.5-1.7-3.6,1-4.6
		c1.5-0.5,2.9-1.3,4.7-2.1c-0.4,2.1-0.8,3.7-0.9,5.2c-0.1,1.5,0.5,3-1.9,3C340.5,97,339,97.2,338.9,95.3z M346.3,104
		c-0.2,1.5-2,3.1-3.3,3c-1.8,0-2-1.3-2-2.4c0-2.1,1.3-2.8,3.3-2.7C345.6,102,346.5,102.4,346.3,104z M352.5,94.8
		c-0.8,0.5-1.6,1.4-2.6,0.5c-1.1-1-0.7-1.9-0.2-3.1c3.6-6.9,4.2-7.1,11.2-3.3C357.8,91,355.1,92.9,352.5,94.8z"
      />
      <path
        class="st2"
        d="M724.6,58.8c-0.5-3.4-2.7-5.2-6.2-5.1c-3.2,0.1-6.3,0.2-9.5,0.4c-3.5,0.3-4,4.4-6.7,6.1
		c-1-7.3-2.4-8.3-9.9-7.4c-0.2,0-0.3,0-0.5,0c-7.4,1.6-15.8-0.7-22.3,5c-1,0.9-1.7-0.5-2.4-1c-5.7-4.1-11.9-3.9-18.1-1.7
		c-4,1.4-7.4,5.1-11.9,1c-0.8-0.7-2.9-0.3-4.4,0c-3.6,0.6-7.2,1.3-10.7,2.2c-6.6,1.6-10.8,9.5-7.7,15.4c1.7,3.1,1.5,5-0.4,7.7
		c-1.8,2.5-2,5.4-0.1,8c1.9,2.6,4.6,2.9,7.6,1.8c1.9-0.7,3.9-1,5.8-1.3c7.8-1,15.4-6.3,23.6-1.1c1.2,0.8,3.2,0.4,4.9,0.3
		c8.7-0.5,14.2-5.2,17.2-13.5c1.2,1.4,0.6,2.6,0.6,3.6c0,3.1,0.9,5.8,4.1,6.6c3.3,0.9,6.6,0.6,9.2-2.1c1.6-1.6,2.2-3.9,2.4-5.9
		c0.1-2.6,1.5-3.7,3.6-3.7c5.2-0.2,7.5-3.2,8.2-8.3c2,4.4,2.9,7.4-2.7,9.8c-4.6,1.9-4.9,9.6-1.3,12.9c4.2,3.9,13.2,3.6,17.5-0.5
		c4.3-4.2,4.1-8.8-1.1-14.7C719.4,72.3,725.4,64.3,724.6,58.8z M639.6,79.7c-0.1,1.7-1.1,2.5-2.4,2.7c-6.1,1.3-12.2,2.5-19,3.9
		c1.5-4.5,4.3-7.5,6.2-11.1c0.9-1.8,2-3.5-1.5-3.5c-1.4,0-4,1.2-3.9-1.4c0.1-2.6,0-5.9,3.7-6.7c4.5-1,9-1.9,15-3.2
		c-3,4.7-5.1,8.2-7.3,11.7c-0.4,0.7-1,1.5-0.4,2.2c0.6,0.7,1.5,0.5,2.3,0.1c2.5-1.2,5.1-2.1,8.1-2.3
		C640.2,74.9,639.8,77.3,639.6,79.7z M652.1,83.7c-4.9-1-7.8-5.2-6.8-10.3c0.4-2.3,1.1-4.4-0.2-6.7c-0.8-1.3,0-2.5,1-3.6
		c2.9-3.3,10.6-5.2,14.8-3.6c4.9,1.8,7.1,5.4,7.1,11.3C667.9,79.4,660.5,85.4,652.1,83.7z M696.5,62.1c-0.6,4.1-1.5,7.7-6.9,7.6
		c-3.7-0.1-5.2,2.2-5.2,5.8c0,1.5-0.5,3-1.1,4.3c-0.5,1.3-1.9,1.2-3.1,1c-1.9-0.3-1.2-1.6-0.9-2.7c0.3-1.3,0.6-2.6,1.1-3.8
		c1-2.8,0.6-4.7-2.9-4.4c-2.4,0.2-4.2-0.2-3.5-3.1c0.6-2.5-1.3-6.4,3.4-7.1c1.6-0.2,3.3-0.5,4.9-0.7c3.6-0.4,7.3-0.8,11.7-1.3
		C697.2,56.8,696.9,59.4,696.5,62.1z M712.1,81.3c-0.3,4.1-3.7,4.7-7,4.6c-2.4-0.1-5.2-0.7-4.8-3.8c0.5-3.7,3.8-4.1,6-4.4
		C709.6,77.8,712.3,78.2,712.1,81.3z M709.8,68.2c-2.8,0-2.9-1-2.3-3.3c1.7-6.1,2.7-6.7,11.6-5.5C716.5,68,716.1,68.2,709.8,68.2z"
      />
      <path
        class="st3"
        d="M37.5,79.2c0.4,1.6,0.8,3,1.1,4.5c0.2,1.2-0.4,2.9,1.5,3.1c1.6,0.2,2.2-1.5,2.7-2.5c0.8-1.6,1.1-3.4,1.5-5.2
		c0.8-3.5,2.9-5.8,6.6-7.4c-0.1,4.3-2,7.6-3.3,11c-1.1,2.9-1,5,1.6,6.9c2.6,2,4.9,4.5,7.6,6.5c2.3,1.7,1.6,3.1,0.2,4.9
		c-1.5,1.9-2.8,1.8-4.4,0.2c-0.9-0.9-2.1-1.6-3.2-2.4c-1.7-1.3-3.7-3.4-5.6-2c-2.2,1.7-3.4,4.5-2.6,7.6c0.3,1.3,0.6,2.6,1,3.8
		c1.6,4.5-2.4,4.6-4.6,5.4c-3.3,1.1-2.5-2-2.8-3.7c-1.4-7.8-2-15.8-2.1-23.7C32.5,82.8,33.4,80.4,37.5,79.2z"
      />
      <path
        class="st4"
        d="M115.8,66.1c0.2-1.2,0.3-2.3,0.6-3.5c0.4-1.9,2.2-1.8,3.6-2.1c1.8-0.4,1.5,1.3,1.8,2.3c0.2,0.5,0.2,1,0.4,1.4
		c1,2-0.9,5.6,2,6c2.7,0.3,3.7-3.3,5.4-5.2c1.9-2.3,2.2-6.2,6.3-6.2c1.8,0,3.5,0,1.7,2.8c-4.5,7.1-4.4,7.4,2.2,12.8
		c1.5,1.2,4,2.2,1.9,4.6c-2,2.3-3-0.7-4.5-1.4c-1-0.5-1.7-1.5-2.6-2.2c-1.7-1.3-3.3-3.1-5.7-1.6c-2.4,1.5-3.7,3.7-3.1,6.7
		c0.3,1.3,1.8,3.1,0,4c-2.2,1.1-4.7,1.4-7.1,1.8c-0.8,0.2-0.9-0.8-0.9-1.5C117.8,78.5,116.7,72.3,115.8,66.1z"
      />
      <path
        class="st3"
        d="M75.2,69.7c-3.5-1.6-16.8,4.1-17.8,7.7c-0.3,1,0.3,2.2,0.4,3.4c0.5,6.9,4.3,13.1,4,20.2
		c-0.1,1.9,1,1.6,2.3,1.2c4.6-1.3,4.2-4.3,2.7-7.8c-1.9-4.8-1.3-5.8,3.8-6.4c1-0.1,2,0,3,0.1c1.7-2.2-1.3-4.9,0.6-7.1
		c0.1-0.1,0.3,0,0.4,0c0.1,0.1,0.2,0.2,0.4,0.3C79.6,75.2,79.6,71.7,75.2,69.7z M66.3,83.8c-3.1,0.7-4.1-2.7-3.9-4.6
		c0.2-3.5,4-3.2,6.5-4c1.6-0.5,2.8,0.5,3.1,2.6C71.2,80.7,69.2,83.2,66.3,83.8z"
      />
      <path
        class="st4"
        d="M109.3,73.3c-1.9-4-4-8-6.1-11.9c-1.1-2-1.3-5.3-4.9-4.4c-3.4,0.8-6.9,1.6-7.4,6.1c-0.6,5.6-1.3,11.2-2,17.2
		c0.3,0.8-1.1,3.2,1.1,3.2c1.7,0,4.1-0.5,4.7-3c0.2-0.8,0.1-1.7,0.2-2.5c0.1-2.3,1.1-3.4,3.3-4.2c3.1-1.1,5.2-0.7,6.4,2.4
		c1.1,2.9,3.2,3.6,5.5,2.3C113.3,76.7,110.1,74.9,109.3,73.3z M97.1,69.8c-3,0.6-2.7-1.5-2.5-3c0.2-2.4-0.4-5.5,2.6-5.2
		c2.5,0.3,4.8,3,4.9,5.5C102.3,69.7,99.1,69.4,97.1,69.8z"
      />
      <path
        class="st4"
        d="M73.6,88c1.7-2.3-1.3-4.9,0.6-7.1c0.1-0.1,0.3,0,0.4,0c0.1,0.1,0.3,0.2,0.4,0.3c-0.4,2.9,2.2,3.3,3.9,4.5
		c2.1,1.6,4.5,2.9,6.5,4.6c1,0.8,4,1.4,2.1,3.3c-1.3,1.4-3.7,3.5-6.1,1.3C78.8,92.5,75.6,90.9,73.6,88z"
      />
      <path
        class="st4"
        d="M153.8,65.1c0-1.3,0.1-3.9,0-6.6c-0.1-2.7,1.2-3.7,3.8-4.1c2.7-0.4,4.3-0.3,3.3,3.1c-1,3.1-1.8,6.3-2.7,9.5
		c-0.5,1.8-1.9,2.1-3.5,1.9C153,68.8,152.8,67.8,153.8,65.1z"
      />
      <path
        class="st4"
        d="M154.2,81c-1.4,0-2.5-0.1-2.5-1.8c0-2.3,1.4-3.4,3.2-3.7c1.6-0.3,2.2,1.3,2.3,2.6
		C157.4,80.3,155.6,80.6,154.2,81z"
      />
      <path
        class="st0"
        d="M47.3,106.3c-0.1-0.6-0.6-1.4-0.4-1.7c0.6-0.8,0.9,0.2,1.4,0.5C47.9,105.5,47.6,105.9,47.3,106.3z"
      />
      <path
        class="st4"
        d="M485.3,79.8c-6.7-0.1-12.2-5.1-12.8-11c-0.6-6.6,3.1-11.7,9.5-13.1c1.1-0.2,2.3-1.3,3.2-0.1
		c0.9,1.1,0.4,2.5,0.1,3.8c-0.6,1.9-2.5,2.6-3.7,3.9c-1.8,1.8-3,4.1-1.1,6.2c2,2.2,4.5,1.1,6-0.9c1.7-2.3,4.2-2.4,6.5-3.1
		c0.9-0.3,2.1-0.8,2.5,0.5c0.4,1.1,0.3,2.6-1.2,2.8c-3.3,0.5-3.8,2.7-3.5,5.4C491.5,79,488.4,79.7,485.3,79.8z"
      />
      <path
        class="st4"
        d="M569,75.9c-2,0.2-3.7-0.2-4.6-2.2c-0.6-1.4-1.6-2.5-2.9-3.3c-2.8-1.7-5.1-2.4-4.9,2.3c0,1-0.3,2-0.6,2.9
		c-0.5,1.3-1.7,1.5-2.9,1.2c-1.4-0.3-1.9-1.2-1.6-2.6c0.8-3.7,1.4-7.5,2.4-11.2c1-3.6,3.3-4.1,5.7-1.5c1.8,1.9,3.1,4.3,4.7,6.4
		c0.7,0.9,1.2,2.2,2.7,1.8c1.5-0.4,1.8-1.8,1.9-3.2c0.3-2.9-1.3-7.8,3.4-7c3.5,0.5,0,4.7,0.4,7.3c0.3,1.8,0,3.6-0.1,5.5
		C572.5,74.7,571.6,76.2,569,75.9z"
      />
      <path
        class="st4"
        d="M516.2,70.6c-3.4-2-4.5-3.4,0-5.1c0.5-0.2,0.9-0.5,1.3-0.7c1.8-0.9,3-2.5,2.6-4.4c-0.4-2.1-2.1-3.4-4.3-3.4
		c-3.1,0-6.3-0.4-9.4,0.7c-1.2,0.4-2.5,0.6-2.7,2.4c-0.6,4.6-1.3,9.2-2,14.1c0.1,1-0.5,2.8,1.9,2.8c1.7,0,3.2-0.2,3.7-2.4
		c1.4-5.4,2.3-5.6,6.7-1.8c1.6,1.4,3.8,4.4,5.7,1.8C521.6,72.2,517.7,71.5,516.2,70.6z M509.6,66c-1.5,0.6-1.9-0.6-2-2
		c-0.2-2.9,1.7-3.6,4-4c1.5,0.1,3.7,0.3,3.6,1.8C514.9,64.7,511.7,65,509.6,66z"
      />
      <path
        class="st4"
        d="M532.8,70.7c4.7,1.2,7.3-0.6,7.9-5.4c0.3-2.2,0.9-4.2,3.5-3.8c2.6,0.5,1.5,3,1.5,4.6c-0.1,8-4,13-11,14
		c1.3-2.5,1.9-4.9-1.6-5.9C529.3,73.1,532.9,71.9,532.8,70.7z"
      />
      <path
        class="st3"
        d="M532.8,70.7c0.2,1.1-3.4,2.4,0.2,3.5c3.5,1,2.9,3.4,1.6,5.9c-7.5-2.6-10.6-12-6-18.2c0.7-0.9,1.5-1.4,2.5-1.3
		c1.4,0.2,1.1,1.4,0.8,2.4C531.2,65.7,531.6,68.3,532.8,70.7z"
      />
      <path
        class="st4"
        d="M580.7,61c-0.3-2.1,0.4-3.1,2.6-3c1.6,0.1,3.4-0.3,4.9,0.1c1.8,0.5,5-2,5.3,2.1c0.2,3.3-1.7,4.7-4.8,4.9
		C586.4,63.1,582.9,63.4,580.7,61z"
      />
      <path
        class="st4"
        d="M608.7,56.7c-2.1,3.5-4,6.8-6,10c-0.2,0.3-1.3,0.3-1.8,0.1c-1-0.4-0.7-1.3-0.4-2.1c0.9-2.7,1.7-5.4,2.6-8
		c0.5-1.5,1.9-1.7,3.3-1.6C607.5,55.2,608,55.9,608.7,56.7z"
      />
      <path
        class="st3"
        d="M580.7,61c2.1,2.5,5.6,2.1,8.1,4c-1.5,2.3-1.2,4.7-0.6,7.1c0.4,1.5,0,2.6-1.5,3.2c-1.1,0.4-2.3,0.8-3.3-0.1
		c-1.1-1.1,0.1-2.2,0.5-3.2c1.3-3.8,3.3-7.6-2.9-9C580.6,63,580,61.8,580.7,61z"
      />
      <path
        class="st5"
        d="M251.1,70.5c-0.1-2.8,4.1-2.5,5.9-4.5c1.7-2,2.5-3.2-0.7-4c-3.9-1-7.7-2-11.7-2c-2.3,0-3.6,0.8-4.4,3.1
		c-2.2,6.6-2.9,13.7-5.8,20.1c-1,2.2,1,2.3,1.3,2.3c6.9-0.5,12.8-0.1,18.4-2.3c4.4-1.8,6-6.1,3.1-8.7
		C255.1,72.8,251.2,73,251.1,70.5z M246.3,78.4c-1.8,0.6-3.9,2.4-5.6,1.2c-2.2-1.5-0.1-3.7,0.6-5.2c1.2-2.5,3.8-1.3,5.8-1.2
		c1.1,0,1.9,0.6,1.8,1.9C248.7,76.6,247.8,77.9,246.3,78.4z M250.3,64.7c-0.6,2.7-2.6,4.1-5.4,4.4c-1.4-0.2-3.1-0.4-2.7-2.5
		c0.5-2.8,2.2-4.4,5.1-4.3C248.8,62.3,250.8,62.6,250.3,64.7z"
      />
      <path
        class="st5"
        d="M285.2,73.8c3.3-3,3.3-5.7-0.9-7.5c-3.5-1.5-7.1-2.8-10.7-3.9c-2-0.6-4.7-1.1-5.4,1.8
		c-1.9,7.2-6.1,13.3-8.3,20.8c2.6-0.7,5.5,3,7.5-0.7c4.2-7.7,4.1-7.8,9.9-1.4c0.5,0.6,1.4,1,1.8,1.7c1.8,3.8,3.9,3,6.4,0.8
		c-0.3-0.4-0.4-0.7-0.7-0.9c-2.1-1.8-5.2-3.4-5.5-6.1C278.8,74.7,283.3,75.5,285.2,73.8z M272.8,74.4c-1.2,0.6-3.5-0.5-2.8-2.2
		c1-2.3,0.9-6.1,4.6-6.1c2.3,0,4.9,0.8,5.7,3.7C279.4,73.9,275.4,73,272.8,74.4z"
      />
      <path
        class="st5"
        d="M341.6,83.7c-0.6,0.5-0.9,0.9-1.3,1.1c-7.9,3.9-8,4-6.3,12.9c0.3,1.7,0.9,2.8-1.4,3.1
		c-2.3,0.3-2.5-0.9-2.2-2.7c0.2-1.1,0.1-2.3,0-3.5c-0.3-2-0.5-4.3-3-4.5c-2.3-0.2-4.6,0.2-6,2.5c-0.7,1.1-1.3,2.3-2.1,3.3
		c-1.4,1.6-3.1,0.8-4.6,0.1c-2.1-0.9-0.7-2.3-0.1-3.3c2.7-4.9,5.6-9.7,8.4-14.5c1.2-2,2.5-1.5,4.2-0.5c1.8,1,1.7,2.2,0.6,3.6
		c-1,1.2-2,2.5-0.5,3.9c1.5,1.4,2.9,0,4.1-0.5C334.6,83.3,337.5,80.4,341.6,83.7z"
      />
      <path
        class="st5"
        d="M308.8,89.6c0.1-2.3,0-4.7,0-7h-0.1c0-1.2,0-2.3,0-3.5c0-1.3-0.1-2.7-0.2-4c-0.2-4-3.9-6.4-6.6-3.8
		c-4.2,4-8.7,8.1-10.8,13.8c-0.3,0.8-2.1,1.8-0.4,2.9c1.6,1.1,2.4-0.3,3.3-1.3c1.3-1.3,2-3.1,3.9-3.7c3.9-1.2,6.2,1,6.5,6.5
		c0.1,1.9,0.1,3.3,2.6,3.3C309.5,92.8,308.8,90.9,308.8,89.6z M307.1,77c-0.1,2.1-0.7,4.2-3.1,4.2c-1.7,0-4.5-0.5-4.2-3
		c0.3-2.3,2.8-3.3,4.3-4.2C306.6,74.2,307.2,75.3,307.1,77z"
      />
      <path
        class="st5"
        d="M360.9,88.8c-3.1,2.2-5.7,4.1-8.4,6c-0.8,0.5-1.6,1.4-2.6,0.5c-1.1-1-0.7-1.9-0.1-3.1
		C353.3,85.3,353.9,85,360.9,88.8z"
      />
      <path
        class="st0"
        d="M344.7,88.7c-0.4,2.1-0.8,3.7-0.9,5.3c-0.1,1.5,0.5,3-1.9,3c-1.4,0-2.9,0.2-3-1.6c-0.1-1.5-1.7-3.6,1-4.6
		C341.4,90.2,342.8,89.5,344.7,88.7z"
      />
      <path
        class="st5"
        d="M343,107c-1.8,0-2-1.3-2-2.4c0-2.1,1.3-2.8,3.3-2.7c1.3,0.1,2.2,0.5,2.1,2.1C346.2,105.5,344.3,107.1,343,107z
		"
      />
      <path
        class="st0"
        d="M294.1,71.4c-0.3,0.4-0.5,0.8-0.8,1.2c-0.2-0.2-0.6-0.5-0.5-0.7c0.1-0.4,0.4-0.8,0.6-1.2
		C293.6,71,293.8,71.2,294.1,71.4z"
      />
      <path
        class="st5"
        d="M660.8,59.5c-4.3-1.6-11.9,0.3-14.8,3.6c-0.9,1.1-1.7,2.3-1,3.6c1.4,2.3,0.7,4.4,0.2,6.7
		c-1,5.1,1.9,9.3,6.8,10.3c8.4,1.7,15.8-4.3,15.8-12.9C667.9,64.9,665.7,61.3,660.8,59.5z M651.8,75.5c-2.5-0.1-4.4-1.6-4.1-4.2
		c0.4-3.6,2.9-6,6.6-6.2c2.5-0.2,4.5,1,4.7,4C659.1,72.1,655.6,75.4,651.8,75.5z"
      />
      <path
        class="st5"
        d="M637.8,60.5c-3,4.7-5.1,8.2-7.3,11.7c-0.4,0.7-1,1.5-0.4,2.2c0.6,0.7,1.5,0.5,2.3,0.1c2.5-1.2,5.1-2.1,8.1-2.3
		c-0.3,2.6-0.7,5-0.9,7.5c-0.1,1.7-1.1,2.4-2.4,2.7c-6.1,1.3-12.2,2.5-19,3.9c1.5-4.5,4.3-7.5,6.2-11.1c0.9-1.8,2-3.5-1.5-3.5
		c-1.4,0-3.9,1.2-3.9-1.4c0.1-2.6,0-5.9,3.7-6.7C627.2,62.7,631.7,61.8,637.8,60.5z"
      />
      <path
        class="st5"
        d="M693.9,57.8c3.3-0.9,3,1.6,2.6,4.3c-0.6,4.1-1.5,7.7-6.9,7.6c-3.7-0.1-5.2,2.2-5.2,5.8c0,1.4-0.5,3-1.1,4.3
		c-0.5,1.3-1.9,1.2-3.1,1c-1.9-0.3-1.2-1.6-0.9-2.7c0.3-1.3,0.7-2.6,1.1-3.8c1-2.8,0.6-4.7-2.9-4.4c-2.4,0.2-4.2-0.2-3.5-3.1
		c0.6-2.5-1.3-6.4,3.4-7.1c1.6-0.2,3.3-0.5,4.9-0.7C685.8,58.7,689.5,58.3,693.9,57.8z"
      />
      <path
        class="st5"
        d="M719.2,59.4c-2.7,8.6-3.1,8.9-9.4,8.8c-2.8,0-2.9-1-2.3-3.3C709.3,58.7,710.3,58.2,719.2,59.4z"
      />
      <path
        class="st5"
        d="M706.3,77.7c3.2,0.1,6,0.5,5.8,3.6c-0.3,4.1-3.7,4.7-7,4.6c-2.4-0.1-5.2-0.7-4.8-3.8
		C700.8,78.4,704.1,78,706.3,77.7z"
      />
      <path
        class="st1"
        d="M71.9,77.8c-0.8,2.9-2.7,5.4-5.6,6c-3.1,0.7-4-2.7-3.9-4.6c0.2-3.5,4-3.2,6.5-4C70.4,74.8,71.7,75.7,71.9,77.8
		z"
      />
      <path
        class="st1"
        d="M94.6,66.8c0.2-2.4-0.4-5.5,2.6-5.2c2.5,0.3,4.8,3,4.9,5.5c0.1,2.7-3,2.4-5,2.7C94.2,70.3,94.5,68.3,94.6,66.8
		z"
      />
      <path
        class="st1"
        d="M511.6,60c1.5,0.2,3.7,0.3,3.6,1.8c-0.3,2.9-3.4,3.2-5.6,4.1c-1.5,0.6-1.9-0.6-2-2
		C507.4,61.1,509.3,60.4,511.6,60z"
      />
      <path
        class="st2"
        d="M249,75c-0.3,1.6-1.1,2.9-2.6,3.4c-1.8,0.6-3.9,2.4-5.6,1.2c-2.2-1.5-0.1-3.7,0.6-5.2c1.2-2.5,3.8-1.3,5.8-1.2
		C248.3,73.2,249.1,73.7,249,75z"
      />
      <path
        class="st2"
        d="M245,69.1c-1.5-0.2-3.1-0.4-2.7-2.5c0.5-2.8,2.2-4.4,5.1-4.3c1.4,0,3.4,0.3,2.9,2.4
		C249.7,67.4,247.8,68.8,245,69.1z"
      />
      <path
        class="st2"
        d="M280.4,69.8c-0.9,4.1-5,3.2-7.5,4.6c-1.2,0.6-3.5-0.5-2.8-2.2c1-2.3,0.9-6.1,4.7-6.1
		C277,66.1,279.6,66.8,280.4,69.8z"
      />
      <path
        class="st2"
        d="M304.1,74c2.5,0.2,3.1,1.3,3,3c-0.1,2.1-0.7,4.2-3.1,4.2c-1.7,0-4.5-0.5-4.2-3C300,75.9,302.6,74.9,304.1,74z"
      />
      <path
        class="st2"
        d="M651.8,75.5c-2.5-0.1-4.4-1.6-4.1-4.2c0.4-3.6,2.9-6,6.6-6.2c2.5-0.2,4.5,1,4.7,4
		C659.1,72.1,655.5,75.4,651.8,75.5z"
      />
    </g>
  </svg>
