  <svg
    version="1.1"
    class="ground"
    xmlns="http://www.w3.org/2000/svg"
    x="0px"
    y="0px"
    viewBox="0 0 389.1 48.1"
  >
    <defs>
      <style>
        .st0 {
          fill: #7bb079;
        }
        .st1 {
          fill: #355249;
        }
      </style>
    </defs>
    <g>
      <path
        class="st0"
        d="M278,5.9c2.6-3.4,6.3-1.6,9.5-1.8c8.7-0.7,17.5-1,26.3-0.8c0.5,1.6,1.7,2,3.1,1.8c10.9-2.2,22.2,4,33-1.8
		c0.5-0.3,1.5,0.4,2.3,0.5c8.5,1.1,16.6-0.9,24.8-2.8c4-0.3,8.1-0.6,12.1-0.9c0,15-0.1,30,0.1,45c0,2.4-0.4,3.1-3,3.1
		C258.4,48,130.7,48,3,48.1c-2.6,0-3.1-0.7-3-3.1c0.1-10.3,0.1-20.6,0.1-31c4.7-3.6,10.1-1.5,15.2-1.7c8.6-0.4,17.2,0.7,25.9,0.1
		c9.7-0.7,19.3-3,29.1-0.9c1.3,2.2,3.5,1.5,5.4,1.5c17.8,0,35.6,0.3,53.4-1c12.6-0.9,25.2-1.7,37.8-1.9c16.3-0.3,32.6,0.1,48.9-0.1
		c8.4-0.1,16.9,0.8,25.3-0.9c0.8-0.1,1.5-0.2,2.3-0.3c0.5-0.5,1-0.9,1.6-1.4c0.4,0,0.8-0.1,1.3-0.1c1.6,3.3,4.5,0.8,6.7,1.1
		C261.3,9.8,269.7,8.3,278,5.9z M224.2,20.6c0-0.1,0-0.2,0.1-0.4c-2,0.2-4,0.4-5.9,0.7c-1.3,0.2-2.9,0.6-2.8,2.2
		c0.1,1.3,1.5,1.5,2.6,1.9c4.7,1.9,9.7,1.9,14.7,2.1c10.6,0.3,21.1,2.3,31.6,3.5c3.2,0.4,4.3,4.3,7.2,3.9c5.8-0.9,11.5-0.7,17.3,0.3
		c2.7,0.5,5.3-1.3,5.9-3.6c0.6-2.5-2.2-3.4-4.2-4.1c-1.6-0.6-3-1.3-4.2-2.5c-1.2-1.1-2.5-2.1-4.5-1.3c-6.4,2.6-13,1.5-19.6,0.8
		C249.6,22.8,236.9,21.8,224.2,20.6z"
      />
      <path
        class="st1"
        d="M241,9c-8.4,1.7-16.9,0.8-25.3,0.9c-16.3,0.2-32.6-0.2-48.9,0.1c-12.6,0.2-25.2,1-37.8,1.9
		c-17.8,1.3-35.6,1-53.4,1c-1.9,0-4.1,0.7-5.4-1.5c12.8-0.3,25.6-1.3,38.3-0.5c7.3,0.5,14.3-0.9,21.3-1.3c11-0.6,21.9-0.1,32.8-0.8
		c16.4-1,32.7-1.1,49.1-0.8c7.9,0.2,15.9-0.3,23.9-0.4C237.5,7.7,239.6,7.2,241,9z"
      />
      <path
        class="st1"
        d="M377,0.9c-8.2,1.9-16.3,3.9-24.8,2.8c-0.8-0.1-1.8-0.8-2.3-0.5c-10.7,5.8-22.1-0.4-33,1.8
		c-1.4,0.3-2.6-0.2-3.1-1.8c8.7-0.5,17.4,0.2,26-0.4c10.3-0.7,20.8,0.1,31-2.2C372.8,0.1,374.9-0.2,377,0.9z"
      />
      <path
        class="st1"
        d="M278,5.9c-8.2,2.4-16.6,3.9-25.1,2.5c-2.2-0.4-5,2.2-6.7-1.1c8.7-0.2,17.4-0.1,26-1.8
		C274.1,5.1,276.1,4.9,278,5.9z"
      />
      <path
        class="st1"
        d="M244.9,7.4c-0.5,0.5-1,0.9-1.6,1.4C243.4,7.8,243.8,7.2,244.9,7.4z"
      />
      <path
        class="st1"
        d="M224.2,20.6c12.7,1.2,25.4,2.2,38.1,3.5c6.6,0.7,13.2,1.9,19.6-0.8c1.9-0.8,3.2,0.2,4.5,1.3
		c1.2,1.2,2.6,1.9,4.2,2.5c2,0.7,4.8,1.6,4.2,4.1c-0.6,2.4-3.2,4.1-5.9,3.6c-5.8-1-11.5-1.2-17.3-0.3c-2.9,0.4-4-3.5-7.2-3.9
		c-10.5-1.3-21-3.2-31.6-3.5c-5-0.1-9.9-0.2-14.7-2.1c-1.1-0.4-2.5-0.6-2.6-1.9c-0.1-1.7,1.5-2,2.8-2.2c2-0.3,3.9-0.5,5.9-0.7
		C224.2,20.4,224.2,20.5,224.2,20.6z"
      />
    </g>
  </svg>
