  <svg
    version="1.1"
    xmlns="http://www.w3.org/2000/svg"
    x="0px"
    y="0px"
    viewBox="0 0 388.9 245.9"
  >
    <defs>
      <style>
        .st0 {
          fill: none;
        }
      </style>
    </defs>
    <g>
      <path
        class="st0"
        d="M0,245.9C0,164,0,82,0,0c129.6,0,259.2,0,388.9,0c0,81.9,0,163.9,0,245.9C259.3,245.9,129.7,245.9,0,245.9z
		 M218.7,227.7c6.2,0.4,11.7,0.8,17.2,1c5.7,0.2,11.5,0.3,17.2,0.3c1.9,0,4,0.2,5.8-0.2c4.8-1.1,21.7,0.5,27.2,3.3
		c-4.6-0.4-8.2-0.9-11.8-1c-3.6,0-7.3,0.4-10.9,0.7c-3.4,0.3-6.8,0.7-10.3,1.1c0,0.4,0.1,0.8,0.1,1.1c21.3,0,42.6,0,64.4,0
		C313.4,227.3,225,221.7,218.7,227.7z M54.8,211.3c0,0.4,0,0.7,0,1.1c7.3,0.3,14.6,0.7,21.9,1c0.1,0.7,0.2,1.3,0.3,2
		c-3.2,1.2-6.3,2.7-9.6,3.5c-2.7,0.6-5.7,0.2-8.4,0.7c-15.5,2.4-30.8,6.1-46.7,5.7c-0.7,0-1.4,0.8-1.8,1.1c17.1,0,34.2,0,51.3,0
		c0-0.4,0-0.9,0-1.3c-4.3-0.2-8.7-0.4-13-0.6c0-0.1,0-0.3,0-0.4c9.2,0,18.4,0,27.6,0c0-0.4,0-0.7,0-1.1c-2.5-0.4-5.1-0.9-6.4-1.1
		c4.5-2.6,9.8-5.6,15.1-8.6c-0.2-0.6-0.3-1.3-0.5-1.9C74.7,211.3,64.7,211.3,54.8,211.3z M149,220.8c0-0.7,0-1.4,0-2.1
		c13,0.6,26,1.2,38.9,1.7c0-0.6,0-1.2,0.1-1.8c-20.4,0.2-40.4-6.3-61-1.3c1.8,0.3,3.7,0.6,5.7,1c-1.8,2.5-3.3,4.5-5.4,7.3
		c7.1-0.8,13.7-1.6,20.3-2.4c1.1,1.1,2.5,1.5,3.9,1.3c3.5-0.5,7-1.2,10.6-1.9c1.7-0.3,3.4-0.6,5.2-0.9c0-0.3-0.1-0.7-0.1-1
		C161.1,220.8,155.1,220.8,149,220.8z M136.5,232.9c28.9-0.2,57.7,4.6,87.8-0.2c-1.6-0.6-2.1-0.8-2.5-1c-0.1,0,0-0.3-0.1-0.6
		c2.6-0.2,5.2-0.3,7.9-0.5c0-0.3,0-0.7,0-1c-8.8,0-17.7,0-27.4,0c1.6,0.5,2.4,0.7,3.3,0.9c-1.8,0.2-3.6,0-5,0.7
		c-7.9,4-16.6,3.1-24.3,1.3C162.7,229.2,149.7,229.2,136.5,232.9z M158.6,214.2c8.7,0.6,16.1,0.9,23.5,1.8
		c7.1,0.8,14.2,2.2,21.3,3.3c0.1-0.5,0.1-1,0.2-1.6C189.5,213,175,212.2,158.6,214.2z M167.3,204.8c-10-2-19.8-8.8-30.7-2.2
		C147.1,203.4,157.2,204.1,167.3,204.8z M147.4,227c0-0.6-0.1-1.1-0.1-1.7c-15.2,1.6-30.4,3.2-45.7,4.9c0.1,0.4,0.1,0.9,0.2,1.3
		C117,230,132.2,228.5,147.4,227z M116.1,218.9c-0.1-0.3-0.1-0.7-0.2-1c-7.4,0-14.7,0-22.1,0c0,0.3,0,0.7,0.1,1
		C101.3,218.9,108.7,218.9,116.1,218.9z"
      />
      <path d="M218.7,227.7c6.4-6,94.7-0.3,99,6.4c-21.8,0-43.1,0-64.4,0c0-0.4-0.1-0.8-0.1-1.1c3.4-0.4,6.8-0.8,10.3-1.1
		c3.6-0.3,7.3-0.7,10.9-0.7c3.6,0,7.2,0.6,11.8,1c-5.5-2.8-22.4-4.5-27.2-3.3c-1.9,0.4-3.9,0.2-5.8,0.2c-5.7-0.1-11.5-0.1-17.2-0.3
		C230.4,228.5,224.9,228.1,218.7,227.7z" />
      <path d="M54.8,211.3c10,0,19.9,0,29.9,0c0.2,0.6,0.3,1.3,0.5,1.9c-5.3,3-10.6,6-15.1,8.6c1.3,0.2,3.8,0.7,6.4,1.1
		c0,0.4,0,0.7,0,1.1c-9.2,0-18.4,0-27.6,0c0,0.1,0,0.3,0,0.4c4.3,0.2,8.7,0.4,13,0.6c0,0.4,0,0.9,0,1.3c-17.1,0-34.2,0-51.3,0
		c0.5-0.3,1.2-1.1,1.8-1.1c15.9,0.4,31.2-3.3,46.7-5.7c2.8-0.4,5.7,0,8.4-0.7c3.3-0.8,6.4-2.3,9.6-3.5c-0.1-0.7-0.2-1.3-0.3-2
		c-7.3-0.3-14.6-0.7-21.9-1C54.8,212.1,54.8,211.7,54.8,211.3z" />
      <path d="M149,220.8c6,0,12.1,0,18.1,0c0,0.3,0.1,0.7,0.1,1c-1.7,0.3-3.4,0.6-5.2,0.9c-3.5,0.6-7,1.4-10.6,1.9
		c-1.3,0.2-2.7-0.3-3.9-1.3c-6.6,0.8-13.2,1.5-20.3,2.4c2.1-2.8,3.6-4.9,5.4-7.3c-2.1-0.3-3.9-0.6-5.7-1c20.6-4.9,40.7,1.5,61,1.3
		c0,0.6,0,1.2-0.1,1.8c-13-0.6-26-1.2-38.9-1.7C149.1,219.4,149.1,220.1,149,220.8z" />
      <path d="M136.5,232.9c13.2-3.7,26.2-3.7,39.6-0.5c7.7,1.9,16.3,2.7,24.3-1.3c1.4-0.7,3.2-0.5,5-0.7c-0.9-0.3-1.7-0.5-3.3-0.9
		c9.7,0,18.6,0,27.4,0c0,0.3,0,0.7,0,1c-2.6,0.2-5.3,0.3-7.9,0.5c0,0.3,0,0.5,0.1,0.6c0.5,0.2,1,0.4,2.5,1
		C194.2,237.5,165.4,232.7,136.5,232.9z" />
      <path d="M158.6,214.2c16.4-2,30.9-1.2,45.1,3.5c-0.1,0.5-0.1,1-0.2,1.6c-7.1-1.1-14.2-2.5-21.3-3.3
		C174.7,215.1,167.2,214.8,158.6,214.2z" />
      <path d="M167.3,204.8c-10.1-0.7-20.2-1.4-30.7-2.2C147.5,196,157.3,202.8,167.3,204.8z" />
      <path d="M147.4,227c-15.2,1.5-30.4,3-45.6,4.5c-0.1-0.4-0.1-0.9-0.2-1.3c15.2-1.6,30.4-3.2,45.7-4.9
		C147.3,225.9,147.4,226.5,147.4,227z" />
      <path d="M116.1,218.9c-7.4,0-14.8,0-22.2,0c0-0.3,0-0.7-0.1-1c7.4,0,14.7,0,22.1,0C116,218.2,116,218.6,116.1,218.9z" />
    </g>
  </svg>
