  <svg
    version="1.1"
    xmlns="http://www.w3.org/2000/svg"
    x="0px"
    y="0px"
    viewBox="0 0 390.5 247.2"
  >
    <defs>
      <style>
        .st0 {
          fill: none;
        }
        .st1 {
          fill: #402e21;
        }
        .st2 {
          fill: #b9413a;
        }
        .st3 {
          fill: #c1443f;
        }
        .st4 {
          fill: #42433a;
        }
        .st5 {
          fill: #d0a544;
        }
        .st6 {
          fill: #cb8f3f;
        }
        .st7 {
          fill: #d0883a;
        }
        .st8 {
          fill: #cc7b3f;
        }
        .st9 {
          fill: #c29e3e;
        }
        .st10 {
          fill: #be6838;
        }
        .st11 {
          fill: #c03f36;
        }
        .st12 {
          fill: #cc7a39;
        }
        .st13 {
          fill: #9e8651;
        }
        .st14 {
          fill: #d87b3b;
        }
        .st15 {
          fill: #d7843a;
        }
      </style>
    </defs>
    <g>
      <path
        class="st0"
        d="M358.1,247.1c-117.8,0-235.7,0-353.5,0.1c-3.8,0-4.6-0.8-4.6-4.6c0.1-79.5,0.1-159,0-238.5C0,0.7,0.7,0,4.1,0
		c127.3,0.1,254.7,0.1,382,0c2.7,0,4.1-0.1,4.1,3.5c-0.1,80-0.1,160-0.2,240c0,1,1.6,3-0.9,3.5c0-36.9,0-73.7-0.1-110.6
		c0-1.5,1-3.4-1-4.4c-0.1-0.6-0.1-1.1-0.2-1.7c1.7-2.6,2.3-4.6-2.1-4.3c-4.6,0.4-9.5,1-13.7,0.2c-8.5-1.5-18.1,6.6-25.4-3.1
		c-0.1-0.1-0.3-0.1-0.5-0.1c-5.8,0.7-4-3.4-3.8-6.3c0.1-2.1,0.5-4.1,0.8-6.6c-8,2.7-14.7,7.4-23.7,9.3c2.1-2.7,3.6-4.3,4.7-6.1
		c2.8-4.6,7.8-7.7,8.9-13.3c0.4-0.5,0.8-1,1.2-1.4c2,0,2.6-1.5,3.5-3.5c-17.4,0-34.5-0.1-51.6,0.1c-2.5,0-4.2,1.4-3.8,4.6
		c0.7,4.8,1.1,9.7,1.4,14.6c0.2,2.8,0.9,3.1,3.6,2.3c6.4-2.1,12.8-4.1,20.5-5c-3.2,3.9-6,7-8.4,10.4c-2.7,4-6,5.4-10.9,5.1
		c-7.2-0.4-14.5-0.1-21.8-0.1c-0.8-0.4-1.7-0.8-2.6-1.2c-0.4-0.6-0.8-1.1-1.1-1.7c3.4-5-3-4.1-4.1-6.6c-1.8-4-5.7-5.1-9.9-2.5
		c-3.4,2.1-6,1.6-7.3-2.5c-0.5-1.5-1.2-2.6-2.8-1.7c-5,3-11.7,4.5-10.9,12.5c0.2,1.9,1.1,4,0.6,5.8c-1.7,6.1-3.1,11.9-2.8,18.7
		c0.2,6.5,0.9,7.2,6.8,4c-0.9,3-1.5,5-2.5,8.5c7-6.9,8-3.3,7.3,2.4c3.5-0.9,2-6.8,6.8-5.6c0.4,1.4,0.9,2.8,1.9,6c0-4.1,0-6.1,0-8.1
		c0.1-0.7,0.1-1.4,0.2-2.1c1.6,1.1,3.3,2,4.8,3.3c10.8,9.7,22.2,18.8,34.4,26.7c7.6,5.4,15.2,10.8,22.8,16.2c0.7,0.9,1.3,1.7,2,2.6
		c-0.6,1.4-1.2,2.8-1.9,4.2l0,0.1c-0.3,0.6-0.6,1.3-1,1.9c-1.3,2.9-2.6,5.7-4.2,9.2c8.1-0.4,15.2-1.1,22.3-1c3.7,0,8.3,1.8,7.5,6.1
		c-0.8,4.4,0.7,3.7,3.4,3.1c1.2-0.3,2.4-0.5,2.2,1.9c-5.1-1.1-9.2,1-13.2,3.8c-4.7,3.2-5,7-0.2,10.3c6.5,4.4,17.1,3.1,21.5-3.5
		c2.4-3.7,4.1-3.2,6.7-0.9c1.3,1.1,2.6,2.1,3.9,3.2C357.2,242.6,356.2,245,358.1,247.1z"
      />
      <path
        class="st1"
        d="M388,132c2,1.1,1,3,1,4.4c0.1,36.9,0.1,73.7,0.1,110.6c-0.7,0-1.3,0-2,0c-0.6-2,1.2-4.4-1-6.2
		c-0.3,0-0.5,0-0.8,0c-0.1-2.3-0.2-4.5-0.2-6.8c0.8-3.3-0.9-4.3-3.9-4c-0.9-0.8-1.9-1-3-0.7c-0.7,0-1.4,0-2.1,0
		c-10.7-0.5-14.3,3.9-15,17.7c-1,0-2,0-3,0c-1.9-2-0.9-4.5-1.1-6.8c0.7-1.6,1.4-3.1,2.1-4.7c1-1.5,2.1-3,3.1-4.5
		c3-3.3,7.8-2.3,11.1-4.8c0.6-0.1,1.1-0.1,1.7-0.2c12.3,0.3,12.3,0.3,12.1-8.9c0-3.3,0.1-6.6,0.1-9.9c0-6.9,0-13.7,0-20.6
		c0-3.9,0-7.8,0-11.7c-0.1-9.3-0.1-18.7-0.2-28c0.1-0.5,0.1-0.9,0.2-1.4c1.4-2.7,0.8-5.5,0.5-8.4C387.9,135.5,388,133.8,388,132z"
      />
      <path
        class="st2"
        d="M361.1,247.1c0.7-13.8,4.3-18.2,15-17.7c-0.4,1.9-2,2.5-3.6,2.6c-2.8,0.3-2,1.7-1.3,3.3
		c-2.1,2.7-0.9,3.1,1.7,2.4c0.9-0.3,2-1.1,2.6,0c0.8,1.4-0.7,2-1.6,2.6c-2.4,1.7-5.4,3-2.8,6.8C367.8,247.1,364.4,247.1,361.1,247.1
		z M365,240.8c1.2,1.5-1.4,5,2,5.1c3,0.1,2.2-3.1,2.2-5.1c0-2,1-5.1-2.1-5.2C363.4,235.5,366,238.9,365,240.8z"
      />
      <path
        class="st1"
        d="M371.1,247.1c-2.6-3.8,0.4-5.1,2.8-6.8c0.8-0.6,2.4-1.2,1.6-2.6c-0.6-1.1-1.7-0.3-2.6,0
		c-2.6,0.8-3.8,0.3-1.7-2.4c3.1-1.4,6.1-2.6,8.7,0.9c0.2,3-2,4.6-4.3,6.5c2.2,1,7-0.7,4.4,4.4C377.1,247.1,374.1,247.1,371.1,247.1z
		"
      />
      <path
        class="st2"
        d="M380.1,247.1c2.5-5-2.3-3.4-4.4-4.4c2.2-1.9,4.5-3.4,4.3-6.5c1.4-1.5,3-2.5,5.2-2.1c0.1,2.3,0.2,4.5,0.2,6.8
		c-2.1,1.7-0.9,4.1-1.2,6.2C382.8,247.1,381.4,247.1,380.1,247.1z"
      />
      <path
        class="st3"
        d="M384.1,247.1c0.3-2.1-0.8-4.4,1.2-6.2c0.3,0,0.5,0,0.8,0c0,2.1,0,4.1,0,6.2
		C385.4,247.1,384.8,247.1,384.1,247.1z"
      />
      <path
        class="st2"
        d="M386.1,247.1c0-2.1,0-4.1,0-6.2c2.2,1.7,0.4,4.2,1,6.2C386.8,247.1,386.4,247.1,386.1,247.1z"
      />
      <path
        class="st1"
        d="M266.7,127.1c7.3,0,14.6-0.4,21.8,0.1c4.9,0.3,8.2-1.1,10.9-5.1c2.3-3.4,5.2-6.4,8.4-10.4
		c-7.7,0.9-14.1,2.9-20.5,5c-2.7,0.9-3.4,0.6-3.6-2.3c-0.3-4.9-0.7-9.8-1.4-14.6c-0.4-3.2,1.3-4.6,3.8-4.6
		c17.1-0.1,34.2-0.1,51.6-0.1c-0.9,1.9-1.5,3.4-3.5,3.5c-0.8-2.2-2.7-1.2-4.2-1.5c-4.4-0.9-8.6,1.7-13,0.4
		c-6.7-0.1-13.3-0.4-19.9-0.1c-10.5,0.5-11.1,1.3-10.8,11.9c0,0.3,0,0.7,0,1c-0.3,3.1,0.7,4.2,4.1,3.2c6.2-1.8,12.6-3.1,18.8-4.7
		c3.1-0.8,3.6,0.5,2.8,3.1c-7.7,10.5-17.6,19.1-27.4,30.5c7.1-1.7,12.3-2.9,17.5-4.2c8.2-1.7,17.9,0,21.8-10.8
		c0.6-1.7,4.4-3.9,5.9-3.4c9.5,3.5,6.7-4.2,8.9-8.7c-9.6,3.3-17.4,8.2-26.4,9.6c-0.2-4.2,3.5-5.7,5.6-8.2
		c4.8-5.7,8.9-12.1,15.1-16.6c-1.1,5.7-6.1,8.8-8.9,13.3c-1.1,1.8-2.6,3.4-4.7,6.1c9-1.8,15.7-6.6,23.7-9.3
		c-0.3,2.5-0.6,4.5-0.8,6.6c-0.2,2.9-2,7,3.8,6.3c0.2,0,0.4,0,0.5,0.1c7.3,9.7,17,1.6,25.4,3.1c4.2,0.7,9.1,0.1,13.7-0.2
		c4.4-0.4,3.8,1.7,2.1,4.3c-3.5-1.8-7.2-0.4-10.7,0c-9.4,1-19-0.7-28.3,1.8c-2,7.8,0.2,15.4,1.6,23c0.9,4.8,0.4,10.5,4.4,13.9
		c4.6,4,6,8.5,4.4,14.1c-3.9,6.1-11.1,7.5-18.1,11.9c6.5,0,11.3-0.2,16.1,0.1c2.4,0.2,5.5-1.5,7,2c-0.3,0.2-0.4,0.4-0.4,0.7
		c-2.7,2.2-4.3,5.2-5.9,8.2l0,0c-0.3,0.3-0.6,0.7-0.8,1c0,0-0.1,0.1-0.1,0.1c-0.2,0.3-0.4,0.5-0.5,0.8c-0.2,0.3-0.3,0.7-0.5,1
		c-2.7,2.7-4.6,5.8-6,9.3c-2.2,0.9-1.5,3.6-3.1,4.8c-1.3,1.4-2.7,2.7,0.3,3.8l-0.1-0.1c1.1,2,1.8,4.4,4.8,4.2l0,0
		c0.1,2,1.2,3,3.2,2.8l0.1-0.1c-0.3,1.4-0.8,2.6-2.2,3.2c-2.6-2.3-4.3-2.7-6.7,0.9c-4.4,6.6-15,8-21.5,3.5c-4.8-3.2-4.5-7,0.2-10.3
		c4.1-2.8,8.2-4.9,13.2-3.8c0.2-2.4-1.1-2.2-2.2-1.9c-2.6,0.6-4.1,1.3-3.4-3.1c0.7-4.3-3.8-6.1-7.5-6.1c-7.1-0.1-14.2,0.6-22.3,1
		c1.6-3.5,2.9-6.3,4.2-9.2c0.3-0.6,0.6-1.3,1-1.9c0,0,0-0.1,0-0.1c1.8-0.9,2.1-2.4,1.9-4.2c-0.7-0.9-1.3-1.7-2-2.6
		c0.1-1.6,1.2-2.2,2.5-2.6c0.4,0.1,0.7,0.1,1.1,0.2c0.6,0.1,1.2,0.1,1.8,0.2c-1.1,3.6-1.7,7.5-3.3,10.9c-3.1,6.3-0.3,6.6,4.9,6
		c12-1.3,12.1-1.2,12-13.4c0-4.3,1.2-6.7,5.8-7.4c7.1-1.1,13.8-3.4,19.6-8c2.3-1.1,3.3-2.9,3.5-5.4c0.7-8.4-5.9-7.6-10.9-8.8
		c-5.7,0.4-11.4,0.8-17.1,1.3c-3.1,0.3-4.7,2.2-5.8,5.2c-2.2,5.7-2.9,12.2-7.7,16.8c-0.5-0.1-1.1-0.2-1.6-0.3
		c0.3-0.9,0.5-1.9,0.8-2.8c0.5-1.4,1-2.7,1.5-4.1c2.9-4.7,4.1-10,5.9-15.2c2.5-0.9,4.9-2,7.4-2.6c4-0.8,3.2-4.1,2.9-6.3
		c-0.4-3.3-3.2-1.2-4.8-1.1c-5.2,0.5-4.6,5.7-6.8,8.8c-5.5,1.3-11.5-1.4-16.9,1.6c-0.4,0.1-0.7,0.1-1.1,0.2
		c-0.8-0.4-1.6-0.5-2.2,0.3c-1.2-0.6-2.3-1.3-3.5-1.9c-0.2-1.2,0.1-2.2,1-3.2c6.5-6.7,11.8-14.3,15.9-22.7c1.4-1.6,2.7-3.2,2.8-5.5
		c0-0.2-1.1-0.7-1.6-0.6c-4.2,1.1-8.9,0.3-12.7,2.9c-4-0.5-7.7,0.9-11.4,2.1c-1.3,0.4-2.7,0.7-4,1.1c-1.1-0.1-2.3-0.2-3.1,0.9l0,0
		c-1.7-1.1-5,3.7-5.7-1.5c1.1-0.8,1-2,0.9-3.1c2.5-1.2,5.1-2.4,6.9-4.7c1-0.9,2-1.8,3-2.7c1.4-1,3.1-2.2,0-3
		c-3.3-0.9-6.7-1.4-10.2-0.7c-1.3,0-2.6,0.1-3.9,0.1c-0.3-0.2-0.6-0.2-0.9-0.1C270.7,129.9,267.3,131.3,266.7,127.1z M344.8,142.1
		c-0.2-4.1-0.1-8.2-0.6-12.2c-0.3-2.7-1.9-4.6-5.1-3c-1,0.1-2,0.1-2.9,0.2c-4.3,0.4-9.1-0.5-11.6,4.5c-1.8,3.5-3.7,6.9-5.5,10.4
		c-5.4,8.6-10.8,17.2-16.5,26.3c3.8,0,6.9,0,10.1,0c2.2,0,5,0.7,5.8-2.4c1.5-5.6,6-6.4,10.8-6.8c1.8-0.3,3.7-0.5,5.5-0.8
		c0.1,0.8,0.3,1.6,0.2,2.4c-0.3,2.5-1.8,6.5,1,6.9c4.2,0.7,9.1,2.4,13-1.5c-2.6-7.1-2.3-14.7-3.9-22
		C344.9,143.4,344.8,142.8,344.8,142.1z M337.5,208.9c0.2-3.1,0.4-6.3,0.5-9.4c0-1.4,0.6-3.2-1.8-3.4c-2.2-0.2-5.2-0.3-5.6,2.1
		c-0.8,5.2-1.3,10.7,2.3,15.5c0.2,1.2,0.6,2.5,1.8,2.6c1.4,0.1,1.6-1.5,1.9-2.5C337.2,212.2,337.3,210.5,337.5,208.9z M359.4,198.2
		c-5.1,0-9,0.1-12.9,0c-4.1-0.2-5.5,1.6-5.4,5.6c0.1,4.8-0.9,9.5-2.4,14.1c-0.4,1.3-2.9,3-0.3,4.1c1.8,0.8,4.3,1,5.9-1.1
		C349.5,213.8,352.1,205,359.4,198.2z M334.9,242c3.7-0.8,8.6-1.5,8.9-6.5c0.3-4.3-3.8-5.5-7.5-5.4c-4.3,0.1-9.5,0.6-9.8,6.2
		C326.4,240.8,330.7,241.6,334.9,242z"
      />
      <path
        class="st4"
        d="M244.1,157.2c-4.8-1.1-3.3,4.7-6.8,5.6c0.7-5.8-0.3-9.4-7.3-2.4c1-3.5,1.7-5.5,2.5-8.5c-5.9,3.2-6.6,2.6-6.8-4
		c-0.3-6.8,1.1-12.5,2.8-18.7c0.5-1.7-0.4-3.8-0.6-5.8c-0.8-8,5.9-9.5,10.9-12.5c1.6-1,2.4,0.2,2.8,1.7c1.3,4.1,3.9,4.6,7.3,2.5
		c4.2-2.6,8.1-1.4,9.9,2.5c1.1,2.5,7.5,1.6,4.1,6.6c-2-0.1-3-1.8-4.4-2.8c-1.7-1.1-2.8-3.7-5.5-2.6c-3.6,1.5-7.2,0.7-10.8,0
		c-1.4-0.6-2.9-1.9-4.3,0l-0.3,0.1c-2.8,0.5-1.6,2.5-1.6,4.1c-0.1,0.9-0.2,1.9-0.3,2.8c-0.3,0.4-0.6,0.7-1,1.1c0,0-0.1,0-0.1,0
		c-1.5,1.7-0.7,3.7-1,5.6c-0.2,0-0.3,0.1-0.4,0.3c-0.5-0.5-1-1-1.2,0.3c0.1,0.7,0.2,1.4,0.3,2.1c-0.4,0.8-0.4,1.5,0.5,2
		c-0.1,0.3-0.1,0.6,0.1,0.9c1.2,1.9-4.3,3.2-0.5,5.3c-0.1,0.3,0,0.5,0.2,0.6c0.1,0.6,0.2,1.3,0.4,1.9c1.5,5,5.8,4.6,9.7,4.9
		c1,0.7,2.1,1.5,3.1,2.2c-0.1,0.7-0.1,1.4-0.2,2.1C245.3,155.8,244.7,156.5,244.1,157.2z"
      />
      <path
        class="st5"
        d="M348.9,132.1c9.3-2.5,18.9-0.9,28.3-1.8c3.5-0.4,7.1-1.8,10.7,0c0.1,0.6,0.1,1.1,0.2,1.7
		c-0.1,1.7-0.1,3.5-0.2,5.2c-1.3,2.7-0.5,5.6-0.5,8.4c-0.1,0.5-0.1,0.9-0.2,1.4c-3,0.2-6-3.7-9,0.1c-0.7,0-1.3,0-2,0
		c-7-1.2-13.7-4.2-21-2c0,0,0,0,0,0c-0.7-0.7-1.3-1.4-2-2c0.1-1.6-0.3-3.1,1.8-4.2c1.8-0.9,5.6,0,5.2-2.4c-0.4-2.5-4.4-1.1-6.6-2.2
		c-0.9-0.5-2.3-0.1-3.5-0.1C349.7,133.5,349.3,132.8,348.9,132.1z"
      />
      <path
        class="st2"
        d="M302.1,138.2c-5.2,1.2-10.4,2.5-17.5,4.2c9.8-11.4,19.6-20,27.4-30.5c0.3,1.2,0.6,2.4,0.8,3.7
		c0.5-0.3,1.3-0.6,1.4-0.9c0.9-5.7,5.6-10.7,2.9-17c4.4,1.3,8.6-1.3,13-0.4c1.5,0.3,3.4-0.7,4.2,1.5c-0.4,0.5-0.8,1-1.2,1.4
		c-6.2,4.5-10.3,10.9-15.1,16.6c-2.1,2.5-5.9,4.1-5.6,8.2c-0.5,6.3-8.5,1.9-10,7.1c-0.2,0.9-3.5-1-3.6,1.9
		C298.5,136.2,300.6,137,302.1,138.2z"
      />
      <path
        class="st6"
        d="M233.9,132.5c0.4-1.9-0.5-3.9,1-5.6c1.1,4.9,3.6,4.4,6,1.2c0.9-1.3,1.5-1.7,2.5-0.8c6.4,5.2,14,3.1,21.2,4.3
		c-0.2-2.1-0.3-3.9-0.4-5.6c0.9,0.4,1.7,0.8,2.6,1.2c0.6,4.2,4,2.8,6.5,3.2c0.3,0,0.6,0.1,0.9,0.1c1.3,0,2.6-0.1,3.9-0.1
		c0.1,0.6,0.2,1.1,0.3,1.7c-1.9,2.4-5.2-0.1-7.1,2.1c-3,0.5-6.2-1-9,1c-4.8,0.7-9.4-0.2-13.7-2.2c-2.2-1-3.7,0.2-4.8,1.5
		c-1.4,1.6-3,2.8-5.3,3.5c7,4.7,14.6,7,21.8,10.3c1.9,1.8,5.3,1.7,6,5C253.9,148.5,240,146.6,233.9,132.5z"
      />
      <path
        class="st5"
        d="M264.2,126c0.1,1.8,0.3,3.5,0.4,5.6c-7.1-1.1-14.8,0.9-21.2-4.3c-1-0.9-1.6-0.4-2.5,0.8
		c-2.4,3.2-4.9,3.7-6-1.2c0,0,0.1,0,0.1,0c0.3-0.4,0.6-0.7,1-1.1c0.1-0.9,0.2-1.9,0.3-2.8c1.7-0.9,2.2-2.3,1.6-4.1
		c0,0,0.3-0.1,0.3-0.1c1.4,0,2.9,0,4.3,0c3.6,0.7,7.1,1.5,10.8,0c2.7-1.1,3.8,1.5,5.5,2.6c1.4,1,2.4,2.7,4.4,2.8
		C263.4,124.9,263.8,125.4,264.2,126z"
      />
      <path
        class="st1"
        d="M246.1,153.1c-1-0.7-2.1-1.5-3.1-2.2c0.4-0.4,0.7-0.8,1.1-1.2l0.5,0.1l0.4-0.2c1,0.1,2,0.3,3,0.4
		c2.5,1.7,4.7,4,8,4.2l0,0c0.3,1.2,0.8,2,2.1,1.1c0.6,0.3,1.2,0.7,1.8,1c0.3,0.3,0.6,0.5,1,0.8l0.2,0.1c0.1,1.7,1.3,2.1,2.8,2
		l0.1,0.1c0.3,1.7,1.2,2.7,3,2.9c0.9,0.7,1.8,1.4,2.7,2.2c0.4,1.3,0.5,2.8,2.5,2.6l0.1,0.1c1.6,3.5,5.6,4.4,7.8,7.2
		c0.7,0.6,1.4,1.2,2.1,1.8l0,0c0.4,0.3,0.8,0.6,1.2,0.9c1.2,0.2,2.5,0.2,2.8,1.8c-0.8,1.3,2.3,3.5-1,4.3c-12.2-8-23.5-17-34.4-26.7
		C249.5,155.1,247.7,154.2,246.1,153.1z"
      />
      <path
        class="st4"
        d="M285.2,183.1c3.3-0.7,0.2-2.9,1-4.3c1.6,0.7,3.3,1.4,4.9,2.2c3.8,2.1,6.4,6.2,11.1,7l0,0
		c0.6,0.4,1.2,0.9,1.8,1.3c0.3,0.3,0.6,0.5,0.9,0.8c-0.3,4.1,4.5,3.7,5.7,6.5c-1.4,0.3-2.5,1-2.5,2.6
		C300.4,193.9,292.8,188.5,285.2,183.1z"
      />
      <path
        class="st4"
        d="M353.1,237.1c1.4-0.6,1.9-1.8,2.2-3.2c1.3,0.6,2.5,1.1,3.8,1.7c-0.7,1.6-1.4,3.1-2.1,4.7
		C355.7,239.2,354.4,238.1,353.1,237.1z"
      />
      <path
        class="st1"
        d="M244.1,157.2c0.6-0.7,1.3-1.4,1.9-2c0,2,0,3.9,0,8.1C244.9,159.9,244.5,158.6,244.1,157.2z"
      />
      <path
        class="st4"
        d="M310,201.9c0.2,1.8-0.1,3.3-1.9,4.2C308.8,204.7,309.4,203.3,310,201.9z"
      />
      <path
        class="st4"
        d="M308.1,206.2c-0.3,0.6-0.6,1.3-1,1.9C307.5,207.5,307.8,206.8,308.1,206.2z"
      />
      <path
        class="st7"
        d="M350.1,218.4c1.4-3.5,3.3-6.6,6-9.3c0.6,1.5,1.7,3,1.9,4.5c0.5,4,4.4,1.4,6.1,3.3c0.5,0.5,1.8-0.4,1.9-1.6
		c0.2-2.6-1.9-3.2-3.7-4c-0.7-0.3-1.7-0.3-1.6-1.5c1.5-0.6,2.9-1.1,4.4-1.7c3.2-1.6,5.9,1.9,9,1c0.7,0.7,1.3,1.3,2,2
		c-1.2,2.3-1.5,4.1,2,4c-1,3.7,2,8.5-3,11.1c-0.6,0.1-1.1,0.1-1.7,0.2c-5.4-0.1-10.7-2.3-16.2-1.4
		C355.3,222.3,353.9,219,350.1,218.4z"
      />
      <path
        class="st7"
        d="M378.1,147.1c3-3.8,6,0.1,9-0.1c0.1,9.3,0.1,18.7,0.2,28c-0.7,1-1.4,2-2.2,3.1c-0.3-0.9-0.8-1.8-1-2.7
		c-0.4-2.1,1.1-5.1-2.1-6c-2.8-0.8-1.8,3.3-4,3.7c-0.2-2.1-1.9-2.1-3.4-2c-3.3,0.3-5.3-1.2-6.6-4c2.1-3.1,4.8-4.8,8.6-3
		c3.3,1.6,5,0.5,5.4-3.1c-1.3-2.4,3.2-4.5,0.6-6.7C380.3,152.4,379.6,149.6,378.1,147.1z"
      />
      <path
        class="st8"
        d="M376.1,211.1c-0.7-0.7-1.3-1.3-2-2c3.5,0.4,6.1-3.9,10-2c1,3.4,2.1,6.7,3.1,10.1c0.2,9.2,0.2,9.2-12.1,8.9
		c5-2.6,2.1-7.4,3-11.1c0.1-0.5,0.2-1.1,0.5-1.3c1.2-1.2,4.6-1.3,2.9-3.8c-1.5-2.2-2.7,1.6-4.5,1.2
		C376.7,211,376.4,211.1,376.1,211.1z"
      />
      <path
        class="st9"
        d="M350.1,218.4c3.8,0.7,5.2,3.9,7.1,6.6c1,2.6,4.8,3,5.1,6.2c-1,1.5-2.1,3-3.1,4.5c-1.3-0.6-2.5-1.1-3.8-1.7
		c0,0-0.1,0.1-0.1,0.1c-0.2-1.9-1.5-2.6-3.2-2.8c0,0,0,0,0,0c-1.2-1.9-2.1-4.1-4.8-4.2c0,0,0.1,0.1,0.1,0.1
		c-0.1-1.3-0.2-2.5-0.3-3.8C348.6,222,348,219.3,350.1,218.4z"
      />
      <path
        class="st3"
        d="M385.1,234.1c-2.2-0.4-3.8,0.6-5.2,2.1c-2.6-3.5-5.6-2.4-8.7-0.9c-0.8-1.5-1.6-3,1.3-3.3
		c1.6-0.2,3.2-0.7,3.6-2.6c0.7,0,1.4,0,2.1,0c1,0.2,2,0.5,3,0.7C384.2,229.8,385.9,230.8,385.1,234.1z"
      />
      <path
        class="st5"
        d="M387.3,186.7c0,6.9,0,13.7,0,20.6c-2.5-1.3-1.5-4.4-3.3-6.1c0-2.4,0.1-4.7,0.1-7.1
		C387.8,192.7,385,188.6,387.3,186.7z"
      />
      <path
        class="st10"
        d="M362.3,231.1c-0.3-3.2-4-3.6-5.1-6.2c5.5-0.9,10.8,1.3,16.2,1.4C370.1,228.8,365.2,227.8,362.3,231.1z"
      />
      <path
        class="st6"
        d="M387.3,186.7c-2.3,1.9,0.5,6.1-3.1,7.4c0-3,0-6,0-9c4.2-1.8,0.8-4.7,1-7c0.7-1,1.4-2,2.2-3.1
		C387.3,178.9,387.3,182.8,387.3,186.7z"
      />
      <path
        class="st6"
        d="M384.1,201.2c1.7,1.7,0.7,4.8,3.3,6.1c0,3.3-0.1,6.6-0.1,9.9c-1-3.4-2.1-6.7-3.1-10.1c0-1.7-0.1-3.4-0.1-5
		C384,201.8,384,201.5,384.1,201.2z"
      />
      <path
        class="st7"
        d="M387.3,145.6c0-2.8-0.8-5.7,0.5-8.4C388.1,140.1,388.7,142.9,387.3,145.6z"
      />
      <path
        class="st2"
        d="M381.2,230c-1-0.2-2-0.5-3-0.7C379.3,229.1,380.3,229.2,381.2,230z"
      />
      <path
        class="st1"
        d="M365,240.8c1-1.8-1.6-5.2,2-5.2c3,0,2,3.2,2.1,5.2c0,2,0.8,5.2-2.2,5.1C363.5,245.7,366.1,242.3,365,240.8z"
      />
      <path
        class="st2"
        d="M314.5,194.3c4.7-4.6,5.4-11,7.7-16.8c1.1-3,2.7-4.9,5.8-5.2c5.7-0.5,11.4-0.9,17.1-1.3c2.5,2.4,0,3.1-1.6,3.9
		c2.3,2.7,5.7,1.5,9,3.1c-3.6,1.2-6.3,2.1-9.1,3c-1.2-6.5-6-4.8-10.2-4.4c-2,0.2-4.6,0.1-4.8,3.2c-0.1,2.1-1.1,4.5,0.6,6.2
		c1.9,1.9,4-0.1,6-0.6c1.8-0.4,3.5-1.1,5.2-1.6c1.3,2,3.1,2,5.2,1.3c2.3-0.8,4.8-1.1,7.2,0c-5.8,4.5-12.5,6.9-19.6,8
		c-4.6,0.7-5.9,3-5.8,7.4c0.1,12.2,0,12-12,13.4c-5.2,0.6-8,0.3-4.9-6c1.7-3.3,2.2-7.2,3.3-10.9
		C313.8,196.2,314.1,195.2,314.5,194.3z"
      />
      <path
        class="st8"
        d="M313.1,145.1c-4.1,8.4-9.3,16-15.9,22.7c-0.9,0.9-1.2,1.9-1,3.2c-1.7,4.3-4.7,3.6-7.2,1.3
		c-2.2-2.1-3.8-2.1-5.7-0.2c-0.7-0.4-1.4-0.7-2.1-1.1c-1.2-2.7-4.5-4.2-4.1-7.8c0.2-3.4,5.4,1.2,5.1-3.2c1.1,0,2.3,0.2,3-1
		c8.2,0.7,3.7-4.8,4-8l0,0c1.7-0.3,2.2,2.6,4.7,1.3c-2.5-2.3-0.6-6.2-3.7-8.3c3.7-1.1,7.4-2.6,11.5-2.1
		C305.7,141.8,308.7,146,313.1,145.1z M299,159.5c-0.3-2.3,1-4.3-0.4-6.1c0-0.1-1,0.3-1.1,0.6C296.8,155.9,296.9,157.7,299,159.5z"
      />
      <path
        class="st11"
        d="M334.6,158.2c-1.8,0.3-3.7,0.5-5.5,0.8c-1.2-3.8-4.4,1-6.1-1.6c2-1.7,4-3.6,6.1-5.4c1.3-0.3,2.5-0.7,3.8-0.8
		c2.4-0.2,2.5-1.9,2.2-3.6c-0.4-2.9,0.1-6.4-2.6-8.1c-1.9-1.2-2.1,1.9-3.3,2.8c-0.2-1.3-0.6-1.9-2.2-1.7c-3.8,0.3-2.2,4.1-3.4,5.7
		c-2.8-0.6-1.9-4.3-4.7-4.4c1.9-3.5,3.7-6.9,5.5-10.4c2.6-5,7.3-4.1,11.6-4.5c-0.4,1.4,4.1,1.6,0.8,3.9c-3.1,2.2-2.3-1.4-3.4-2
		c-2.4,5.5,0.5,8.6,7.7,8.1l0,0c-0.3,1.7,0.8,3.8-1.4,4.9c-1.3,0.6-1.9,1.5-1.4,2.7c0.1,0.3,1.8,0.1,2.8,0c1.3-0.1,2.5-0.3,3.8-0.5
		c1.6,7.3,1.4,14.9,3.9,22c-1.4,0.3-2.9,0.8-4.3,0.9c-1.7,0-4,1.1-4.9-0.9c-0.8-2,2.7-1.4,2.9-4
		C338.7,163.2,336.8,160.4,334.6,158.2z"
      />
      <path
        class="st11"
        d="M317.1,97.5c2.7,6.3-2,11.3-2.9,17c-0.1,0.4-0.9,0.6-1.4,0.9c-0.3-1.2-0.6-2.4-0.8-3.7
		c0.8-2.6,0.4-3.9-2.8-3.1c-6.3,1.6-12.6,2.9-18.8,4.7c-3.3,1-4.3-0.1-4.1-3.2c0-0.3,0-0.7,0-1c-0.2-10.5,0.3-11.3,10.8-11.9
		C303.8,97.1,310.4,97.5,317.1,97.5z"
      />
      <path
        class="st3"
        d="M318.9,142c2.8,0.1,1.9,3.7,4.7,4.4c1.2-1.6-0.5-5.4,3.4-5.7c1.6-0.1,2,0.4,2.2,1.7c-0.8,3.5-2.5,6.5-5.4,9.7
		c2.4,0,3.8,0,5.3,0c-2,1.8-4.1,3.6-6.1,5.4c1.6,2.5,4.8-2.2,6.1,1.6c-4.7,0.4-9.2,1.2-10.8,6.8c-0.8,3.1-3.6,2.4-5.8,2.4
		c-3.1,0-6.3,0-10.1,0C308.1,159.1,313.5,150.6,318.9,142z"
      />
      <path
        class="st12"
        d="M282.1,160.1c0.3,4.3-4.8-0.2-5.1,3.2c-3,0.1-3-2-3-4.1c0-5.5-4-5.7-7.9-6l0,0c-0.7-3.3-4.1-3.2-6-5
		c-3.3-4.9,1.5-8.7,2-13c2.8-2,6-0.5,9-1c-0.9,1.8-1.3,2.8,1.7,2.5c2.8-0.3,6,0.5,5.4,4.8c0.1,1.1,0.2,2.3-0.9,3.1
		c-1.9-1.7-2.8-2.9-3.6,1.2c-1.3,6.7,3.3,8.1,7.4,10.4c0,0,0,0,0,0C281.4,157.4,281.8,158.8,282.1,160.1z"
      />
      <path
        class="st3"
        d="M302.1,138.2c-1.5-1.2-3.6-2-3.5-4.3c0.1-2.9,3.4-1,3.6-1.9c1.5-5.2,9.5-0.8,10-7.1c9.1-1.4,16.9-6.3,26.4-9.6
		c-2.2,4.5,0.7,12.2-8.9,8.7c-1.4-0.5-5.3,1.7-5.9,3.4C320,138.2,310.3,136.5,302.1,138.2z"
      />
      <path
        class="st2"
        d="M359.4,198.2c-7.3,6.8-9.9,15.6-15.2,22.7c-1.6,2.1-4.1,1.8-5.9,1.1c-2.5-1.1-0.1-2.8,0.3-4.1
		c1.5-4.6,2.5-9.3,2.4-14.1c-0.1-4,1.3-5.8,5.4-5.6C350.4,198.3,354.3,198.2,359.4,198.2z"
      />
      <path
        class="st8"
        d="M321,172c-1.8,5.1-3.1,10.5-5.9,15.2c-1.2,0.5-2,0-3.2-0.5c-3.7-1.4-5.5-7.9-11-4.5c-1.2-0.4-2.5-0.7-3.7-1.1
		c1.8-2.4-0.4-6.1,2.5-8.2c0.6-0.8,1.4-0.7,2.2-0.3c0.3,0.2,0.6,0.4,0.8,0.6c0.1-0.3,0.1-0.5,0.2-0.8c5.4-2.9,11.3-0.2,16.9-1.6
		C320.2,171.2,320.6,171.6,321,172z"
      />
      <path
        class="st12"
        d="M364.4,197.1c-1.5-3.5-4.7-1.8-7-2c-4.8-0.3-9.6-0.1-16.1-0.1c7-4.4,14.2-5.8,18.1-11.9
		c2.4-0.4,1.7-2.9,2.9-4.1c1.3,0,2.6,0,4,0c2.4,3.6,3.7,7.6,3,12C364.1,190.4,367,195.9,364.4,197.1z M362,187.7
		c-0.1-0.3-0.2-0.6-0.3-0.8c-0.1,0.1-0.3,0.2-0.3,0.3c0,0.3,0.1,0.6,0.1,0.9C361.6,188,361.8,187.9,362,187.7z"
      />
      <path
        class="st10"
        d="M362.1,179.1c-1.1,1.3-0.5,3.7-2.9,4.1c1.7-5.7,0.3-10.1-4.4-14.1c-4-3.5-3.5-9.2-4.4-13.9
		c-1.4-7.5-3.6-15.2-1.6-23c0.4,0.7,0.8,1.3,1.2,2c0.3,3-0.8,6.2,0.9,9.1c0.5,2.5,2.5,1.8,4.1,1.9c0,0,0,0,0,0
		c0.2,2.6,1.9,3.1,4,2.9c-1.1,2.8,2.4,6.4-0.7,8.6c-5.2,3.7-4.3,7.5-0.7,11.4C360.6,171.3,362.8,174.5,362.1,179.1z"
      />
      <path
        class="st2"
        d="M334.9,242c-4.2-0.3-8.5-1.1-8.3-5.7c0.3-5.6,5.4-6,9.8-6.2c3.6-0.1,7.8,1.1,7.5,5.4
		C343.5,240.5,338.6,241.2,334.9,242z"
      />
      <path
        class="st10"
        d="M282.1,160.1c-0.3-1.3-0.7-2.6-1-4c0.3-0.3,0.7-0.7,1-1c2-0.3,2.3-1.5,1.6-3.1c-0.1-0.3-0.9-0.7-1.1-0.6
		c-1.9,1,0.1,2.5-0.5,3.7c-0.3,0.3-0.7,0.7-1,1c-4.1-2.2-8.7-3.7-7.4-10.4c0.8-4.2,1.7-3,3.6-1.2c0.7,5.1,3.9,0.4,5.7,1.5
		c-0.6,2.2,0.4,1.9,1.9,1.4c3.2-1,4.5,0.5,4.2,3.7c0,0,0,0,0,0c-1.3,0.1-3.7,0.6-3.1,1.3c2.6,2.9-1.1,4.5-0.9,6.7
		C284.4,160.2,283.2,160.1,282.1,160.1z"
      />
      <path
        class="st11"
        d="M352.5,185.3c-2.4-1.1-4.8-0.8-7.2,0c-2.1,0.7-3.9,0.7-5.2-1.3c1.1-0.9,2.1-1.9,3.2-2.8
		c2.8-0.9,5.6-1.8,9.1-3c-3.3-1.6-6.7-0.5-9-3.1c1.6-0.8,4.1-1.6,1.6-3.9c5,1.3,11.7,0.4,10.9,8.8
		C355.8,182.3,354.8,184.2,352.5,185.3z"
      />
      <path
        class="st10"
        d="M333,213.7c-3.5-4.7-3-10.2-2.3-15.5c0.3-2.4,3.3-2.2,5.6-2.1c2.4,0.2,1.8,2,1.8,3.4
		c-0.1,3.1-0.3,6.3-0.5,9.4c-1-0.1,0.4-1.8-1.7-1.8C329.2,207.2,334,211.6,333,213.7z"
      />
      <path
        class="st10"
        d="M321,172c-0.4-0.4-0.8-0.7-1.3-1.1c2.2-3,1.6-8.3,6.8-8.8c1.6-0.2,4.4-2.3,4.8,1.1c0.3,2.2,1.1,5.4-2.9,6.3
		C325.9,169.9,323.5,171.1,321,172z"
      />
      <path
        class="st6"
        d="M299.7,172.9c-2.9,2.1-0.7,5.8-2.5,8.2c-4.7-3-9.3-6-14-9c2-1.9,3.5-1.9,5.7,0.2c2.5,2.4,5.5,3,7.2-1.3
		C297.3,171.6,298.5,172.3,299.7,172.9z"
      />
      <path
        class="st7"
        d="M364.4,197.1c2.6-1.2-0.3-6.7,4.7-6.1c2.3,1-0.7,3.4,1.1,4.4c1.9,0.9,1.9-3.2,3.5-1.3c1.1,1.3,0.6,3.5-0.2,5.2
		c-0.7,1.6-1.6,3-3.7,2.4c-1.9-0.5-3.7-1.1-5.6-1.7c0-0.7-0.1-1.5-0.1-2.2C364,197.5,364.1,197.3,364.4,197.1z"
      />
      <path
        class="st7"
        d="M278.2,141.4c0.6-4.3-2.6-5.1-5.4-4.8c-3,0.3-2.6-0.7-1.7-2.5c1.9-2.2,5.2,0.3,7.1-2.1c0.6,0,1.3,0.1,1.9,0.1
		c0,3.4,5.7,0.5,5.1,4.6C283.3,139,280.7,140.1,278.2,141.4z"
      />
      <path
        class="st6"
        d="M365.1,208.1c-1.5,0.6-2.9,1.1-4.4,1.7c-0.1,1.2,0.9,1.2,1.6,1.5c1.8,0.8,3.9,1.4,3.7,4
		c-0.1,1.2-1.4,2.2-1.9,1.6c-1.7-1.9-5.6,0.7-6.1-3.3c-0.2-1.6-1.2-3-1.9-4.5c0.2-0.3,0.3-0.7,0.5-1c0.3-0.2,0.4-0.5,0.5-0.8
		c0,0,0.1-0.1,0.1-0.1c0.3-0.3,0.6-0.7,0.8-1c0,0,0,0,0,0c1.3-0.3,2.7-0.7,4-1C361.9,207.3,362.9,208.3,365.1,208.1z"
      />
      <path
        class="st3"
        d="M341.1,137.1c-7.2,0.5-10.1-2.6-7.7-8.1c1.2,0.6,0.3,4.2,3.4,2c3.3-2.3-1.1-2.5-0.8-3.9c1-0.1,2-0.1,2.9-0.2
		C342.6,129.7,342.5,133.3,341.1,137.1z"
      />
      <path
        class="st6"
        d="M300.9,182.2c5.5-3.4,7.3,3.1,11,4.5c1.2,0.4,2,1,3.2,0.5c-0.5,1.4-1,2.7-1.5,4.1c-4.2-0.3-6.7-5.1-11.3-4.1
		C301.8,185.5,301.4,183.8,300.9,182.2z"
      />
      <path
        class="st2"
        d="M334.6,158.2c2.2,2.2,4.1,5,8,3.9c-0.2,2.6-3.7,2-2.9,4c0.9,2,3.2,0.9,4.9,0.9c1.4,0,2.9-0.6,4.3-0.9
		c-3.9,3.8-8.9,2.2-13,1.5c-2.8-0.5-1.3-4.4-1-6.9C334.9,159.8,334.7,159,334.6,158.2z"
      />
      <path
        class="st7"
        d="M313.1,145.1c-4.4,0.8-7.4-3.3-11.5-3.1c3.9-2.6,8.5-1.9,12.7-2.9c0.5-0.1,1.6,0.4,1.6,0.6
		C315.8,141.9,314.5,143.6,313.1,145.1z"
      />
      <path
        class="st11"
        d="M341.1,137.1c1.4-3.8,1.5-7.4-2.1-10.2c3.2-1.6,4.8,0.3,5.1,3c0.5,4,0.4,8.1,0.6,12.2
		C342,141.6,342.8,138.4,341.1,137.1L341.1,137.1z"
      />
      <path
        class="st9"
        d="M333,213.7c1-2.1-3.9-6.4,2.8-6.6c2.2,0,0.8,1.7,1.7,1.8c-0.2,1.6-0.4,3.3-0.8,4.8c-0.3,1-0.5,2.6-1.9,2.5
		C333.7,216.2,333.2,214.9,333,213.7z"
      />
      <path
        class="st12"
        d="M289.1,151.1c0.3-3.2-0.9-4.7-4.2-3.7c-1.6,0.5-2.6,0.8-1.9-1.4c0,0,0,0,0,0c1.1,0.1,2.3,0.3,3.1-0.9
		c1.3-0.4,2.7-0.7,4-1.1c3.1,2.1,1.2,6,3.7,8.3C291.3,153.7,290.8,150.8,289.1,151.1z"
      />
      <path
        class="st5"
        d="M302.3,187.1c4.6-1.1,7.2,3.8,11.3,4.1c-0.3,0.9-0.5,1.9-0.8,2.8c-0.2,0-0.4,0.1-0.6,0.2
		c-3.3,0.2-4.3-3.6-7.3-4c-0.3-0.3-0.6-0.5-0.9-0.8c-0.2-1-0.9-1.3-1.8-1.3c0,0,0,0,0,0C302.2,187.7,302.2,187.4,302.3,187.1z"
      />
      <path
        class="st3"
        d="M341.1,137.1c1.7,1.3,0.9,4.5,3.7,5c0.1,0.7,0.1,1.3,0.2,2c-1.3,0.2-2.5,0.4-3.8,0.5c-1,0.1-2.6,0.4-2.8,0
		c-0.5-1.2,0.2-2.1,1.4-2.7C342,140.9,340.8,138.8,341.1,137.1z"
      />
      <path
        class="st13"
        d="M280.1,132.1c-0.6,0-1.3-0.1-1.9-0.1c-0.1-0.6-0.2-1.1-0.3-1.7c3.4-0.6,6.8-0.2,10.2,0.7c3.1,0.9,1.5,2,0,3
		C286.1,130.7,282.8,132.4,280.1,132.1z"
      />
      <path
        class="st12"
        d="M362.1,205.1c-1.3,0.3-2.7,0.7-4,1c1.6-3,3.2-6,5.9-8.2c0,0.7,0.1,1.5,0.1,2.2
		C363.4,201.8,362.8,203.4,362.1,205.1z"
      />
      <path
        class="st6"
        d="M280.1,132.1c2.8,0.3,6-1.4,8,1.9c-1,0.9-2,1.8-3,2.7C285.7,132.6,280.1,135.5,280.1,132.1z"
      />
      <path
        class="st13"
        d="M304.9,190.2c2.9,0.4,4,4.2,7.3,4c-0.2,0.9-0.3,1.9-0.5,2.8c-0.4-0.1-0.7-0.1-1.1-0.2
		C309.4,193.9,304.6,194.3,304.9,190.2z"
      />
      <path
        class="st4"
        d="M347.2,226.9c2.8,0.1,3.7,2.3,4.8,4.2C349,231.3,348.3,228.9,347.2,226.9z"
      />
      <path
        class="st4"
        d="M352.1,231.1c1.7,0.2,3,0.9,3.2,2.8C353.2,234.1,352.2,233.1,352.1,231.1z"
      />
      <path
        class="st4"
        d="M311.7,196.9c0.2-0.9,0.3-1.9,0.5-2.8c0.2-0.1,0.4-0.2,0.6-0.2c0.5,0.1,1.1,0.2,1.6,0.3c-0.3,1-0.7,1.9-1,2.9
		C312.9,197.1,312.3,197,311.7,196.9z"
      />
      <path
        class="st4"
        d="M347,223.2c0.1,1.3,0.2,2.5,0.3,3.8C344.3,225.9,345.7,224.6,347,223.2z"
      />
      <path
        class="st10"
        d="M286.1,145.1c-0.8,1.1-1.9,1-3.1,0.9C283.8,144.9,285,145.1,286.1,145.1z"
      />
      <path
        class="st12"
        d="M357.1,207.3c-0.1,0.3-0.3,0.6-0.5,0.8C356.8,207.8,357,207.5,357.1,207.3z"
      />
      <path
        class="st13"
        d="M274.1,130.4c-0.3,0-0.6-0.1-0.9-0.1C273.5,130.2,273.8,130.2,274.1,130.4z"
      />
      <path
        class="st12"
        d="M358.1,206.1c-0.3,0.3-0.6,0.7-0.8,1C357.5,206.8,357.8,206.4,358.1,206.1z"
      />
      <path
        class="st6"
        d="M302.9,172.4c-0.1,0.3-0.1,0.5-0.2,0.8c-0.3-0.2-0.6-0.4-0.8-0.6C302.2,172.5,302.6,172.5,302.9,172.4z"
      />
      <path
        class="st9"
        d="M274,159.1c0,2.1,0,4.2,3,4.1c-0.4,3.5,3,5.1,4.1,7.8c-3.3-0.7-4.9-4.9-8.9-4c0,0-0.1-0.1-0.1-0.1
		c0-1.6-0.4-2.9-2.5-2.6c-0.9-0.7-1.8-1.4-2.7-2.2c-0.6-1.4-0.9-3.1-3-2.9c0,0-0.1-0.1-0.1-0.1c-0.4-1.4-1.3-2.1-2.8-2
		c0,0-0.2-0.1-0.2-0.1c-0.3-0.3-0.7-0.5-1-0.8c-0.6-0.3-1.2-0.7-1.8-1c-0.4-0.9-1.2-1.2-2.1-1.1c0,0,0,0,0,0c-2.3-2.1-4-5.4-8-4.2
		c-1-0.1-2-0.3-3-0.4c-0.3,0-0.6,0.1-0.9,0.1c-0.4,0.4-0.7,0.8-1.1,1.2c-3.9-0.3-8.2,0.1-9.7-4.9c0.9-0.8,0.6-1.4-0.4-1.9
		c-0.3-0.1-0.3-0.3-0.2-0.6c1.8-1.6,1.9-3.4,0.5-5.3c-0.2-0.3-0.2-0.6-0.1-0.9c-0.2-0.7-0.3-1.3-0.5-2c-0.1-0.7-0.2-1.4-0.3-2.1
		c0.4-0.1,0.8-0.2,1.2-0.3c0.1-0.2,0.2-0.3,0.4-0.3c6.1,14.1,20.1,16,32.2,20.5c0,0,0,0,0,0C268.4,155.5,269.8,159.2,274,159.1z"
      />
      <path
        class="st6"
        d="M233.2,138.1c1.4,1.9,1.4,3.7-0.5,5.3C228.9,141.3,234.4,140,233.2,138.1z"
      />
      <path
        class="st6"
        d="M237.8,119c0.6,1.8,0.1,3.2-1.6,4.1C236.3,121.5,235.1,119.5,237.8,119z"
      />
      <path
        class="st6"
        d="M242.4,118.8c-1.4,0-2.9,0-4.3,0C239.5,117,240.9,118.2,242.4,118.8z"
      />
      <path
        class="st6"
        d="M232.9,144.1c0.9,0.5,1.3,1.1,0.4,1.9C233.2,145.3,233,144.7,232.9,144.1z"
      />
      <path
        class="st6"
        d="M232.6,135.2c0.2,0.7,0.3,1.3,0.5,2C232.2,136.7,232.1,136,232.6,135.2z"
      />
      <path
        class="st6"
        d="M235.9,125.9c-0.3,0.4-0.6,0.7-1,1.1C235.3,126.6,235.6,126.3,235.9,125.9z"
      />
      <path
        class="st6"
        d="M233.5,132.9c-0.4,0.1-0.8,0.2-1.2,0.3C232.4,131.9,232.9,132.3,233.5,132.9z"
      />
      <path
        class="st14"
        d="M362.1,179.1c0.7-4.5-1.6-7.8-4.5-10.9c-3.6-3.9-4.5-7.7,0.7-11.4c3.1-2.3-0.3-5.8,0.7-8.6
		c2.7-0.7,5.4-1.5,8.1-0.8c3,0.8,5.9,1.6,8.9-0.2c0.7,0,1.3,0,2,0c1.5,2.4,2.2,5.3,4.6,7.3c2.6,2.2-2,4.2-0.6,6.7
		c-3.4,1.8-6.5-2.8-9.8-0.5c-2.9,2.1-5.7,0.5-8.6,0.4c-1.2,0-2.6-3.2-3.3-0.2c-0.5,2.2-1.4,5.2,1.7,6.6c2,0.9,4.1,1.3,6.1-0.3
		c1.3,2.8,3.4,4.3,6.6,4c1.5-0.1,3.1-0.2,3.4,2c-1.2,0.2-3.2-0.2-2.4,2c4.1,10.9-3,5.1-6.6,4.5c-1-0.2-2-0.3-2.9-0.5
		C364.8,179.1,363.5,179.1,362.1,179.1z"
      />
      <path
        class="st6"
        d="M351,143.2c-1.7-2.9-0.6-6.1-0.9-9.1c1.2,0,2.5-0.3,3.5,0.1c2.2,1.1,6.1-0.3,6.6,2.2c0.4,2.5-3.4,1.6-5.2,2.4
		c-2.1,1-1.7,2.6-1.8,4.2C352.4,143.1,351.7,143.2,351,143.2z"
      />
      <path
        class="st7"
        d="M376.1,147.1c-2.9,1.8-5.9,1-8.9,0.2c-2.8-0.7-5.5,0-8.1,0.8c-2.1,0.1-3.8-0.4-4-2.9
		C362.4,142.9,369.1,145.9,376.1,147.1z"
      />
      <path
        class="st7"
        d="M351,143.2c0.7,0,1.4-0.1,2.1-0.1c0.7,0.7,1.3,1.4,2,2C353.5,145,351.5,145.7,351,143.2z"
      />
      <path
        class="st7"
        d="M262.1,135.1c-0.5,4.4-5.3,8.1-2,13c-7.2-3.3-14.8-5.6-21.8-10.3c2.2-0.7,3.8-1.9,5.3-3.5
		c1.1-1.3,2.6-2.5,4.8-1.5C252.7,134.9,257.3,135.8,262.1,135.1z"
      />
      <path
        class="st13"
        d="M272.3,167c4-0.9,5.6,3.3,8.9,4c0.7,0.4,1.4,0.7,2.1,1.1c4.7,3,9.3,6,14,9c1.2,0.4,2.5,0.7,3.7,1.1
		c0.5,1.6,0.9,3.3,1.4,4.9c0,0.3-0.1,0.6-0.1,0.9c-4.7-0.7-7.2-4.9-11.1-7c-1.6-0.8-3.2-1.5-4.9-2.2c-0.3-1.6-1.6-1.6-2.8-1.8
		c-0.4-0.3-0.8-0.6-1.2-0.9c0,0,0,0,0,0c-0.1-1.3-0.8-1.9-2.1-1.8C277.9,171.3,273.9,170.4,272.3,167z"
      />
      <path
        class="st13"
        d="M248.1,150c4-1.2,5.7,2.1,8,4.2C252.8,153.9,250.6,151.6,248.1,150z"
      />
      <path
        class="st13"
        d="M269.7,164.3c2.1-0.4,2.4,0.9,2.5,2.6C270.2,167.2,270.1,165.6,269.7,164.3z"
      />
      <path
        class="st13"
        d="M264,159.3c2.1-0.2,2.4,1.5,3,2.9C265.3,162,264.3,161,264,159.3z"
      />
      <path
        class="st13"
        d="M261.2,157.2c1.5-0.1,2.4,0.6,2.8,2C262.5,159.2,261.3,158.9,261.2,157.2z"
      />
      <path
        class="st13"
        d="M256.1,154.2c1-0.1,1.7,0.2,2.1,1.1C256.8,156.2,256.3,155.4,256.1,154.2z"
      />
      <path
        class="st4"
        d="M280,174.2c1.3-0.1,2,0.5,2.1,1.8C281.4,175.4,280.7,174.8,280,174.2z"
      />
      <path
        class="st13"
        d="M260,156.3c0.3,0.3,0.7,0.5,1,0.8C260.7,156.8,260.4,156.5,260,156.3z"
      />
      <path
        class="st13"
        d="M244.1,149.6c0.3,0,0.6-0.1,0.9-0.1c0,0-0.4,0.2-0.4,0.2L244.1,149.6z"
      />
      <path
        class="st4"
        d="M282.1,176.1c0.4,0.3,0.8,0.6,1.2,0.9C283,176.7,282.6,176.4,282.1,176.1z"
      />
      <path
        class="st13"
        d="M302.2,188c0.9,0,1.6,0.3,1.8,1.3C303.4,188.9,302.8,188.5,302.2,188z"
      />
      <path
        class="st15"
        d="M366.1,179.1c1,0.2,2,0.3,2.9,0.5c3.6,0.6,10.7,6.4,6.6-4.5c-0.8-2.2,1.2-1.8,2.4-2c2.2-0.4,1.1-4.5,4-3.7
		c3.1,0.9,1.6,3.9,2.1,6c0.2,0.9,0.6,1.8,1,2.7c-0.2,2.4,3.2,5.2-1,7c-1.2-3.1-2.2-1.6-2.9,0.2c-1.2,3.3-1.5,6.9-2.6,10.3
		c-0.7,2,1.7,5.3,3.2,7.7c0.6,0.9,1.4-1,2.2-1.3c0,1.7,0.1,3.4,0.1,5c-3.8-1.9-6.4,2.4-10,2c-3.1,1-5.8-2.6-9-1
		c-2.2,0.2-3.2-0.8-3-3c0.7-1.7,1.4-3.3,2-5c1.9,0.6,3.7,1.2,5.6,1.7c2.1,0.6,3-0.8,3.7-2.4c0.8-1.7,1.4-3.9,0.2-5.2
		c-1.7-2-1.7,2.2-3.5,1.3c-1.8-1,1.2-3.4-1.1-4.4C369.8,186.7,368.5,182.7,366.1,179.1z"
      />
      <path
        class="st15"
        d="M376.1,211.1c0.3,0,0.7-0.1,1,0c1.8,0.4,3-3.4,4.5-1.2c1.7,2.6-1.7,2.7-2.9,3.8c-0.3,0.3-0.3,0.9-0.5,1.3
		C374.6,215.2,374.9,213.4,376.1,211.1z"
      />
      <path
        class="st15"
        d="M368.1,167.1c-1.9,1.7-4.1,1.2-6.1,0.3c-3.1-1.4-2.2-4.4-1.7-6.6c0.7-3,2.1,0.2,3.3,0.2
		c2.9,0,5.7,1.6,8.6-0.4c3.3-2.3,6.4,2.3,9.8,0.5c-0.4,3.5-2.1,4.6-5.4,3.1C372.9,162.3,370.2,164,368.1,167.1z"
      />
      <path
        class="st14"
        d="M384,202.1c-0.8,0.4-1.6,2.3-2.2,1.3c-1.5-2.4-3.9-5.7-3.2-7.7c1.1-3.4,1.4-7,2.6-10.3
		c0.7-1.8,1.7-3.3,2.9-0.2c0,3,0,6,0,9c0,2.4-0.1,4.7-0.1,7.1C384,201.5,384,201.8,384,202.1z"
      />
      <path
        class="st1"
        d="M343.3,181.1c-1.1,0.9-2.1,1.9-3.2,2.8c-1.7,0.5-3.4,1.2-5.2,1.6c-2,0.5-4.1,2.5-6,0.6
		c-1.7-1.7-0.7-4.1-0.6-6.2c0.2-3.1,2.8-3,4.8-3.2C337.2,176.3,342.1,174.6,343.3,181.1z M341,179.9c-4.3-0.7-7-1.8-9.2,0.7
		c-0.3,0.4-0.1,2,0.2,2.1C334.8,183.4,337.1,181.9,341,179.9z"
      />
      <path
        class="st12"
        d="M285.1,159.1c-0.2-2.2,3.4-3.8,0.9-6.7c-0.6-0.7,1.9-1.2,3.1-1.3C288.8,154.3,293.3,159.9,285.1,159.1z"
      />
      <path
        class="st12"
        d="M299,159.5c-2.1-1.8-2.2-3.6-1.5-5.6c0.1-0.3,1.1-0.6,1.1-0.6C300,155.3,298.7,157.2,299,159.5z"
      />
      <path
        class="st1"
        d="M329.1,152.1c-1.5,0-2.9,0-5.3,0c3-3.2,4.6-6.3,5.4-9.7c1.3-0.8,1.4-4,3.3-2.8c2.7,1.7,2.2,5.2,2.6,8.1
		c0.2,1.7,0.2,3.4-2.2,3.6C331.6,151.4,330.4,151.8,329.1,152.1z"
      />
      <path
        class="st6"
        d="M274,159.1c-4.2,0.1-5.6-3.6-7.9-6C270,153.5,274,153.6,274,159.1z"
      />
      <path
        class="st10"
        d="M362,187.7c-0.2,0.1-0.4,0.2-0.6,0.4c0-0.3-0.1-0.6-0.1-0.9c0-0.1,0.2-0.2,0.3-0.3
		C361.8,187.2,361.9,187.5,362,187.7z"
      />
      <path
        class="st12"
        d="M282.1,155.1c0.7-1.2-1.4-2.8,0.5-3.7c0.2-0.1,1,0.3,1.1,0.6C284.4,153.6,284.1,154.8,282.1,155.1
		L282.1,155.1z"
      />
      <path
        class="st12"
        d="M282.1,155.1c-0.3,0.3-0.7,0.7-1,1c0,0,0,0,0,0C281.4,155.8,281.8,155.4,282.1,155.1
		C282.1,155.1,282.1,155.1,282.1,155.1z"
      />
      <path
        class="st10"
        d="M341,179.9c-3.8,2-6.1,3.6-9,2.8c-0.3-0.1-0.5-1.7-0.2-2.1C334,178.1,336.7,179.2,341,179.9z"
      />
    </g>
  </svg>
